STARTFONT 2.1
FONT -Adobe-New Century Schoolbook-Medium-R-Normal--24-240-75-75-P-137-ISO10646-1
SIZE 24 75 75
FONTBOUNDINGBOX 31 36 -3 -8
COMMENT $XFree86$
COMMENT ISO10646-1 extension by Markus Kuhn <mkuhn@acm.org>, 2001-03-20
COMMENT 
COMMENT +
COMMENT  Copyright 1984-1989, 1994 Adobe Systems Incorporated.
COMMENT  Copyright 1988, 1994 Digital Equipment Corporation.
COMMENT
COMMENT  Adobe is a trademark of Adobe Systems Incorporated which may be
COMMENT  registered in certain jurisdictions.
COMMENT  Permission to use these trademarks is hereby granted only in
COMMENT  association with the images described in this file.
COMMENT
COMMENT  Permission to use, copy, modify, distribute and sell this software
COMMENT  and its documentation for any purpose and without fee is hereby
COMMENT  granted, provided that the above copyright notices appear in all
COMMENT  copies and that both those copyright notices and this permission
COMMENT  notice appear in supporting documentation, and that the names of
COMMENT  Adobe Systems and Digital Equipment Corporation not be used in
COMMENT  advertising or publicity pertaining to distribution of the software
COMMENT  without specific, written prior permission.  Adobe Systems and
COMMENT  Digital Equipment Corporation make no representations about the
COMMENT  suitability of this software for any purpose.  It is provided "as
COMMENT  is" without express or implied warranty.
COMMENT -
STARTPROPERTIES 23
COMMENT Begin LogicalFontDescription
FONTNAME_REGISTRY ""
FAMILY_NAME "New Century Schoolbook"
FOUNDRY "Adobe"
WEIGHT_NAME "Medium"
SLANT "R"
SETWIDTH_NAME "Normal"
ADD_STYLE_NAME ""
PIXEL_SIZE 24
POINT_SIZE 240
RESOLUTION_X 75
RESOLUTION_Y 75
SPACING "P"
AVERAGE_WIDTH 137
CHARSET_REGISTRY "ISO10646"
CHARSET_ENCODING "1"
COMMENT END LogicalFontDescription
FULL_NAME "New Century Schoolbook Roman"
COPYRIGHT "Copyright (c) 1984,1987 Adobe Systems, Inc., Portions Copyright 1988 Digital Equipment Corp."

STARTCHAR char0
ENCODING 0
SWIDTH 833 0
DWIDTH 21 0
BBX 19 17 1 0
BITMAP
AAAAA0
000000
800020
000000
800020
000000
800020
000000
800020
000000
800020
000000
800020
000000
800020
000000
AAAAA0
ENDCHAR
STARTCHAR space
ENCODING 32
SWIDTH 278 0
DWIDTH 7 0
BBX 1 1 0 0
BITMAP
00
ENDCHAR
STARTCHAR exclam
ENCODING 33
SWIDTH 296 0
DWIDTH 7 0
BBX 3 18 2 0
BITMAP
60
60
60
60
60
60
60
60
60
60
60
40
40
40
00
E0
E0
E0
ENDCHAR
STARTCHAR quotedbl
ENCODING 34
SWIDTH 389 0
DWIDTH 10 0
BBX 6 6 2 12
BITMAP
CC
CC
CC
CC
88
88
ENDCHAR
STARTCHAR numbersign
ENCODING 35
SWIDTH 556 0
DWIDTH 15 0
BBX 13 16 1 1
BITMAP
0C60
0C60
0C60
0C60
0C60
7FF8
18C0
18C0
18C0
18C0
FFF0
3180
3180
3180
3180
3180
ENDCHAR
STARTCHAR dollar
ENCODING 36
SWIDTH 556 0
DWIDTH 13 0
BBX 11 22 1 -2
BITMAP
0400
0400
1F00
6580
44C0
C4C0
C5C0
C580
E400
FC00
7F00
1FC0
07C0
04E0
6460
E460
C460
C440
64C0
3F00
0400
0400
ENDCHAR
STARTCHAR percent
ENCODING 37
SWIDTH 833 0
DWIDTH 20 0
BBX 18 18 1 0
BITMAP
1E1800
332800
61D800
611000
C13000
C12000
C26000
C24000
C4C780
788CC0
019840
011840
033040
023040
063080
043080
0C3100
081E00
ENDCHAR
STARTCHAR ampersand
ENCODING 38
SWIDTH 815 0
DWIDTH 20 0
BBX 18 18 1 0
BITMAP
07C000
0CE000
186000
186000
186000
18C000
0D8000
0E0000
1E3F80
671E00
638C00
C1C800
C0E800
C07000
E03840
707C40
7FCF80
1F0700
ENDCHAR
STARTCHAR quotesingle
ENCODING 39
SWIDTH 204 0
DWIDTH 6 0
BBX 2 6 2 12
BITMAP
C0
C0
C0
C0
C0
C0
ENDCHAR
STARTCHAR parenleft
ENCODING 40
SWIDTH 333 0
DWIDTH 9 0
BBX 7 21 1 -3
BITMAP
02
0C
18
30
30
60
60
C0
C0
C0
C0
C0
C0
C0
60
60
30
30
18
0C
02
ENDCHAR
STARTCHAR parenright
ENCODING 41
SWIDTH 333 0
DWIDTH 8 0
BBX 7 21 0 -3
BITMAP
80
60
30
18
18
0C
0C
06
06
06
06
06
06
06
0C
0C
18
18
30
60
80
ENDCHAR
STARTCHAR asterisk
ENCODING 42
SWIDTH 500 0
DWIDTH 9 0
BBX 7 9 1 9
BITMAP
10
38
92
D6
38
D6
92
38
10
ENDCHAR
STARTCHAR plus
ENCODING 43
SWIDTH 606 0
DWIDTH 14 0
BBX 12 12 1 1
BITMAP
0600
0600
0600
0600
0600
FFF0
FFF0
0600
0600
0600
0600
0600
ENDCHAR
STARTCHAR comma
ENCODING 44
SWIDTH 278 0
DWIDTH 6 0
BBX 4 7 1 -4
BITMAP
60
F0
F0
30
20
40
80
ENDCHAR
STARTCHAR hyphen
ENCODING 45
SWIDTH 333 0
DWIDTH 8 0
BBX 6 2 1 6
BITMAP
FC
FC
ENDCHAR
STARTCHAR period
ENCODING 46
SWIDTH 278 0
DWIDTH 7 0
BBX 3 3 2 0
BITMAP
E0
E0
E0
ENDCHAR
STARTCHAR slash
ENCODING 47
SWIDTH 278 0
DWIDTH 8 0
BBX 7 18 0 0
BITMAP
06
06
06
0C
0C
0C
18
18
18
30
30
30
60
60
60
C0
C0
C0
ENDCHAR
STARTCHAR zero
ENCODING 48
SWIDTH 556 0
DWIDTH 13 0
BBX 11 18 1 0
BITMAP
1F00
3180
60C0
60C0
C060
C060
C060
C060
C060
C060
C060
C060
C060
C060
60C0
60C0
3180
1F00
ENDCHAR
STARTCHAR one
ENCODING 49
SWIDTH 556 0
DWIDTH 13 0
BBX 10 18 2 0
BITMAP
0400
1C00
FC00
0C00
0C00
0C00
0C00
0C00
0C00
0C00
0C00
0C00
0C00
0C00
0C00
0C00
1E00
7FC0
ENDCHAR
STARTCHAR two
ENCODING 50
SWIDTH 556 0
DWIDTH 13 0
BBX 11 18 1 0
BITMAP
1F80
61C0
C0E0
C060
E060
60E0
00C0
01C0
0180
0300
0600
0C00
1800
3020
6020
C060
FFE0
FFE0
ENDCHAR
STARTCHAR three
ENCODING 51
SWIDTH 556 0
DWIDTH 13 0
BBX 11 18 1 0
BITMAP
1F00
6380
C1C0
C0C0
E0C0
60C0
0180
0300
1F00
01C0
00E0
0060
6060
E060
E060
C0C0
6180
1F00
ENDCHAR
STARTCHAR four
ENCODING 52
SWIDTH 556 0
DWIDTH 13 0
BBX 11 18 1 0
BITMAP
0080
0180
0380
0380
0580
0D80
0980
1980
1180
3180
6180
4180
C180
FFE0
0180
0180
0180
07E0
ENDCHAR
STARTCHAR five
ENCODING 53
SWIDTH 556 0
DWIDTH 13 0
BBX 11 18 1 0
BITMAP
7FC0
7F80
5E00
4000
4000
4000
4000
5F00
63C0
00C0
0060
0060
6060
E060
E060
C0C0
6180
1F00
ENDCHAR
STARTCHAR six
ENCODING 54
SWIDTH 556 0
DWIDTH 13 0
BBX 11 18 1 0
BITMAP
0F80
18E0
30E0
3060
6000
6000
E000
CF00
F1C0
E0C0
C060
C060
C060
E060
6060
60C0
31C0
1F00
ENDCHAR
STARTCHAR seven
ENCODING 55
SWIDTH 556 0
DWIDTH 13 0
BBX 10 18 2 0
BITMAP
FFC0
FFC0
8080
8180
0100
0300
0300
0200
0600
0600
0400
0C00
0C00
1C00
1C00
1C00
1C00
0800
ENDCHAR
STARTCHAR eight
ENCODING 56
SWIDTH 556 0
DWIDTH 13 0
BBX 11 18 1 0
BITMAP
0E00
3180
20C0
60C0
60C0
70C0
7180
3F00
1F00
3780
61C0
C0E0
C060
C060
C060
60C0
6180
1F00
ENDCHAR
STARTCHAR nine
ENCODING 57
SWIDTH 556 0
DWIDTH 13 0
BBX 11 18 1 0
BITMAP
1F00
71C0
60C0
E0E0
C060
C060
C060
E060
70E0
71E0
1E60
0060
00C0
00C0
C0C0
E180
E380
3E00
ENDCHAR
STARTCHAR colon
ENCODING 58
SWIDTH 278 0
DWIDTH 7 0
BBX 3 12 2 0
BITMAP
E0
E0
E0
00
00
00
00
00
00
E0
E0
E0
ENDCHAR
STARTCHAR semicolon
ENCODING 59
SWIDTH 278 0
DWIDTH 7 0
BBX 4 16 2 -4
BITMAP
E0
E0
E0
00
00
00
00
00
00
60
F0
F0
30
20
40
80
ENDCHAR
STARTCHAR less
ENCODING 60
SWIDTH 606 0
DWIDTH 14 0
BBX 12 12 1 1
BITMAP
0030
00F0
03C0
0F00
3C00
F000
F000
3C00
0F00
03C0
00F0
0030
ENDCHAR
STARTCHAR equal
ENCODING 61
SWIDTH 606 0
DWIDTH 15 0
BBX 12 6 1 4
BITMAP
FFF0
FFF0
0000
0000
FFF0
FFF0
ENDCHAR
STARTCHAR greater
ENCODING 62
SWIDTH 606 0
DWIDTH 14 0
BBX 12 12 1 1
BITMAP
C000
F000
3C00
0F00
03C0
00F0
00F0
03C0
0F00
3C00
F000
C000
ENDCHAR
STARTCHAR question
ENCODING 63
SWIDTH 444 0
DWIDTH 12 0
BBX 10 18 1 0
BITMAP
1E00
6380
C1C0
E0C0
E0C0
01C0
0380
0700
0C00
1800
1800
1800
1800
0000
0000
3800
3800
3800
ENDCHAR
STARTCHAR at
ENCODING 64
SWIDTH 737 0
DWIDTH 19 0
BBX 17 18 1 0
BITMAP
01F800
060600
180300
100100
20D880
633880
461880
C61880
8C1880
8C3180
8C3100
8C7100
84B600
C33800
400000
600200
180C00
0FF000
ENDCHAR
STARTCHAR A
ENCODING 65
SWIDTH 722 0
DWIDTH 19 0
BBX 19 18 0 0
BITMAP
004000
004000
00C000
00E000
01E000
013000
033000
023800
061800
041C00
0C0C00
0FFE00
180600
100700
300300
300380
600180
F807E0
ENDCHAR
STARTCHAR B
ENCODING 66
SWIDTH 722 0
DWIDTH 18 0
BBX 15 18 1 0
BITMAP
FFE0
3838
180C
180C
180C
180C
1818
1830
1FE0
1838
180C
1806
1806
1806
1806
180E
381C
FFF0
ENDCHAR
STARTCHAR C
ENCODING 67
SWIDTH 722 0
DWIDTH 17 0
BBX 15 18 1 0
BITMAP
07F2
1C1E
300E
6006
E002
C002
C000
C000
C000
C000
C000
C000
E002
6002
7002
3804
1C0C
07F0
ENDCHAR
STARTCHAR D
ENCODING 68
SWIDTH 778 0
DWIDTH 20 0
BBX 17 18 1 0
BITMAP
FFF000
381C00
180600
180700
180300
180380
180180
180180
180180
180180
180180
180180
180380
180300
180700
180600
381C00
FFF000
ENDCHAR
STARTCHAR E
ENCODING 69
SWIDTH 722 0
DWIDTH 16 0
BBX 14 18 1 0
BITMAP
FFFC
381C
180C
1804
1804
1820
1820
1860
1FE0
1860
1820
1820
1800
1804
1804
180C
381C
FFFC
ENDCHAR
STARTCHAR F
ENCODING 70
SWIDTH 667 0
DWIDTH 16 0
BBX 14 18 1 0
BITMAP
FFFC
381C
180C
1804
1804
1820
1820
1860
1FE0
1860
1820
1820
1800
1800
1800
1800
3C00
FF00
ENDCHAR
STARTCHAR G
ENCODING 71
SWIDTH 778 0
DWIDTH 18 0
BBX 17 18 1 0
BITMAP
07F200
1E1E00
380600
700600
600200
E00200
C00000
C00000
C00000
C00000
C03F80
C00600
E00600
600600
700600
380E00
1E3600
07E200
ENDCHAR
STARTCHAR H
ENCODING 72
SWIDTH 833 0
DWIDTH 21 0
BBX 19 18 1 0
BITMAP
FE0FE0
380380
180300
180300
180300
180300
180300
180300
1FFF00
180300
180300
180300
180300
180300
180300
180300
380380
FE0FE0
ENDCHAR
STARTCHAR I
ENCODING 73
SWIDTH 407 0
DWIDTH 9 0
BBX 8 18 1 0
BITMAP
FF
3C
18
18
18
18
18
18
18
18
18
18
18
18
18
18
3C
FF
ENDCHAR
STARTCHAR J
ENCODING 74
SWIDTH 556 0
DWIDTH 14 0
BBX 13 18 1 0
BITMAP
0FF8
01E0
00C0
00C0
00C0
00C0
00C0
00C0
00C0
00C0
00C0
60C0
F0C0
F0C0
E0C0
C180
6380
3E00
ENDCHAR
STARTCHAR K
ENCODING 75
SWIDTH 778 0
DWIDTH 20 0
BBX 19 18 1 0
BITMAP
FE3F80
380E00
180C00
181800
183000
186000
18C000
198000
1B8000
1FC000
1CE000
187000
183800
181C00
180E00
180700
3C0380
FF0FE0
ENDCHAR
STARTCHAR L
ENCODING 76
SWIDTH 667 0
DWIDTH 16 0
BBX 14 18 1 0
BITMAP
FF00
3C00
1800
1800
1800
1800
1800
1800
1800
1800
1800
1800
1804
1804
1804
180C
381C
FFFC
ENDCHAR
STARTCHAR M
ENCODING 77
SWIDTH 944 0
DWIDTH 23 0
BBX 21 18 1 0
BITMAP
FC01F8
3C01E0
1C03C0
1602C0
1602C0
1706C0
1304C0
1304C0
138CC0
1188C0
1188C0
11C8C0
10D0C0
10D0C0
1070C0
1060C0
3821E0
FE27F8
ENDCHAR
STARTCHAR N
ENCODING 78
SWIDTH 815 0
DWIDTH 21 0
BBX 19 18 1 0
BITMAP
F80FE0
3C0380
1C0100
1E0100
170100
138100
11C100
10C100
10E100
107100
103100
101900
101D00
100F00
100700
100300
380300
FE0100
ENDCHAR
STARTCHAR O
ENCODING 79
SWIDTH 778 0
DWIDTH 19 0
BBX 17 18 1 0
BITMAP
07F000
1C1C00
300600
700700
600300
E00380
C00180
C00180
C00180
C00180
C00180
C00180
E00380
600300
700700
300600
1C1C00
07F000
ENDCHAR
STARTCHAR P
ENCODING 80
SWIDTH 667 0
DWIDTH 16 0
BBX 14 18 1 0
BITMAP
FFE0
3838
181C
180C
180C
180C
181C
1818
1870
1FC0
1800
1800
1800
1800
1800
1800
3C00
FF00
ENDCHAR
STARTCHAR Q
ENCODING 81
SWIDTH 778 0
DWIDTH 19 0
BBX 17 22 1 -4
BITMAP
07F000
1C1C00
300600
700700
600300
E00380
C00180
C00180
C00180
C00180
C00180
E3C180
E46380
682300
783300
383600
1C3C00
07F800
001880
001C80
001F00
000F00
ENDCHAR
STARTCHAR R
ENCODING 82
SWIDTH 722 0
DWIDTH 18 0
BBX 17 18 1 0
BITMAP
FFF000
383800
181C00
180C00
180C00
180C00
181800
183000
1FE000
186000
183000
183000
183000
183800
181880
181C80
380F00
FE0E00
ENDCHAR
STARTCHAR S
ENCODING 83
SWIDTH 630 0
DWIDTH 15 0
BBX 13 18 1 0
BITMAP
1F90
60F0
4030
C030
C010
E010
F000
7E00
1FC0
07F0
00F8
0038
8018
8018
C018
C030
F070
9FC0
ENDCHAR
STARTCHAR T
ENCODING 84
SWIDTH 667 0
DWIDTH 17 0
BBX 16 18 1 0
BITMAP
FFFF
E187
C183
8181
8181
8181
0180
0180
0180
0180
0180
0180
0180
0180
0180
0180
03C0
0FF0
ENDCHAR
STARTCHAR U
ENCODING 85
SWIDTH 815 0
DWIDTH 19 0
BBX 18 18 1 0
BITMAP
FE1FC0
780700
300200
300200
300200
300200
300200
300200
300200
300200
300200
300200
300200
300200
300600
180400
1C1C00
07F000
ENDCHAR
STARTCHAR V
ENCODING 86
SWIDTH 722 0
DWIDTH 18 0
BBX 19 18 0 0
BITMAP
FE0FE0
380380
380300
180200
1C0200
1C0600
0C0400
0E0C00
060800
070800
071800
031000
03B000
01A000
01E000
01E000
00C000
00C000
ENDCHAR
STARTCHAR W
ENCODING 87
SWIDTH 981 0
DWIDTH 25 0
BBX 26 18 0 0
BITMAP
FE3F9FC0
F80C0700
380E0200
180E0200
1C160400
1C170400
0C130400
0E230800
0E238800
06218800
07419000
0741D000
0340D000
0380F000
0380E000
01806000
01806000
01806000
ENDCHAR
STARTCHAR X
ENCODING 88
SWIDTH 704 0
DWIDTH 19 0
BBX 19 18 0 0
BITMAP
FF1FC0
3C0700
0E0600
060C00
071800
039000
01F000
00E000
00E000
01F000
013000
023800
061C00
0C0C00
0C0E00
180700
380780
FE1FE0
ENDCHAR
STARTCHAR Y
ENCODING 89
SWIDTH 704 0
DWIDTH 17 0
BBX 19 18 -1 0
BITMAP
FE0FE0
3C0380
1C0300
0C0600
0E0400
070C00
030800
019800
01F000
00F000
006000
006000
006000
006000
006000
006000
00F000
03FC00
ENDCHAR
STARTCHAR Z
ENCODING 90
SWIDTH 611 0
DWIDTH 16 0
BBX 14 18 1 0
BITMAP
7FF8
7038
6070
4060
40E0
40C0
01C0
0380
0380
0700
0600
0E00
1C04
1804
3804
300C
701C
FFFC
ENDCHAR
STARTCHAR bracketleft
ENCODING 91
SWIDTH 333 0
DWIDTH 7 0
BBX 5 21 2 -3
BITMAP
F8
C0
C0
C0
C0
C0
C0
C0
C0
C0
C0
C0
C0
C0
C0
C0
C0
C0
C0
C0
F8
ENDCHAR
STARTCHAR backslash
ENCODING 92
SWIDTH 606 0
DWIDTH 11 0
BBX 10 18 0 0
BITMAP
C000
C000
6000
6000
3000
3000
1800
1800
0C00
0C00
0600
0600
0300
0300
0180
0180
00C0
00C0
ENDCHAR
STARTCHAR bracketright
ENCODING 93
SWIDTH 333 0
DWIDTH 7 0
BBX 5 21 0 -3
BITMAP
F8
18
18
18
18
18
18
18
18
18
18
18
18
18
18
18
18
18
18
18
F8
ENDCHAR
STARTCHAR asciicircum
ENCODING 94
SWIDTH 606 0
DWIDTH 12 0
BBX 10 10 1 8
BITMAP
0C00
0C00
1E00
1E00
3300
3300
6180
6180
C0C0
C0C0
ENDCHAR
STARTCHAR underscore
ENCODING 95
SWIDTH 500 0
DWIDTH 15 0
BBX 15 2 0 -3
BITMAP
FFFE
FFFE
ENDCHAR
STARTCHAR grave
ENCODING 96
SWIDTH 333 0
DWIDTH 8 0
BBX 5 4 1 14
BITMAP
C0
E0
30
08
ENDCHAR
STARTCHAR a
ENCODING 97
SWIDTH 556 0
DWIDTH 13 0
BBX 12 12 1 0
BITMAP
1F00
7180
70C0
60C0
00C0
07C0
38C0
60C0
C0C0
C0C0
E1F0
7E60
ENDCHAR
STARTCHAR b
ENCODING 98
SWIDTH 556 0
DWIDTH 14 0
BBX 13 18 0 0
BITMAP
F000
3000
3000
3000
3000
3000
37C0
3C70
3830
3038
3018
3018
3018
3018
3038
3830
3C70
27C0
ENDCHAR
STARTCHAR c
ENCODING 99
SWIDTH 444 0
DWIDTH 12 0
BBX 10 12 1 0
BITMAP
1F00
71C0
61C0
E0C0
C000
C000
C000
C000
E000
6040
70C0
1F80
ENDCHAR
STARTCHAR d
ENCODING 100
SWIDTH 574 0
DWIDTH 14 0
BBX 13 18 1 0
BITMAP
01E0
0060
0060
0060
0060
0060
1E60
71E0
60E0
E060
C060
C060
C060
C060
E060
60E0
71E0
1F78
ENDCHAR
STARTCHAR e
ENCODING 101
SWIDTH 500 0
DWIDTH 13 0
BBX 11 12 1 0
BITMAP
1F00
71C0
60C0
E0E0
C060
FFE0
C000
C000
E000
6040
70C0
1F80
ENDCHAR
STARTCHAR f
ENCODING 102
SWIDTH 333 0
DWIDTH 8 0
BBX 9 18 1 0
BITMAP
0F00
1980
3180
3000
3000
3000
FC00
3000
3000
3000
3000
3000
3000
3000
3000
3000
3000
FC00
ENDCHAR
STARTCHAR g
ENCODING 103
SWIDTH 537 0
DWIDTH 12 0
BBX 13 17 0 -5
BITMAP
1F38
31D8
60C0
60C0
60C0
60C0
3180
1F00
3000
6000
3F00
1FC0
60E0
C060
C060
E0C0
7F80
ENDCHAR
STARTCHAR h
ENCODING 104
SWIDTH 611 0
DWIDTH 14 0
BBX 14 18 0 0
BITMAP
F000
3000
3000
3000
3000
3000
31C0
37E0
3870
3030
3030
3030
3030
3030
3030
3030
3030
FCFC
ENDCHAR
STARTCHAR i
ENCODING 105
SWIDTH 315 0
DWIDTH 8 0
BBX 6 17 1 0
BITMAP
30
30
00
00
00
F0
30
30
30
30
30
30
30
30
30
30
FC
ENDCHAR
STARTCHAR j
ENCODING 106
SWIDTH 296 0
DWIDTH 8 0
BBX 7 22 -2 -5
BITMAP
06
06
00
00
00
1E
06
06
06
06
06
06
06
06
06
06
06
06
06
C6
CC
78
ENDCHAR
STARTCHAR k
ENCODING 107
SWIDTH 593 0
DWIDTH 15 0
BBX 14 18 1 0
BITMAP
F000
3000
3000
3000
3000
3000
33F0
30C0
3180
3300
3600
3E00
3F00
3380
31C0
30E0
3070
FCFC
ENDCHAR
STARTCHAR l
ENCODING 108
SWIDTH 315 0
DWIDTH 8 0
BBX 6 18 1 0
BITMAP
F0
30
30
30
30
30
30
30
30
30
30
30
30
30
30
30
30
FC
ENDCHAR
STARTCHAR m
ENCODING 109
SWIDTH 889 0
DWIDTH 22 0
BBX 22 12 0 0
BITMAP
F1C1C0
37E7E0
387870
303030
303030
303030
303030
303030
303030
303030
303030
FCFCFC
ENDCHAR
STARTCHAR n
ENCODING 110
SWIDTH 611 0
DWIDTH 14 0
BBX 14 12 0 0
BITMAP
F1C0
37E0
3870
3030
3030
3030
3030
3030
3030
3030
3030
FCFC
ENDCHAR
STARTCHAR o
ENCODING 111
SWIDTH 500 0
DWIDTH 13 0
BBX 11 12 1 0
BITMAP
1F00
71C0
60C0
E0E0
C060
C060
C060
C060
E0E0
60C0
71C0
1F00
ENDCHAR
STARTCHAR p
ENCODING 112
SWIDTH 574 0
DWIDTH 14 0
BBX 13 17 0 -5
BITMAP
F7C0
3C70
3830
3038
3018
3018
3018
3018
3038
3830
3C70
37C0
3000
3000
3000
3000
FC00
ENDCHAR
STARTCHAR q
ENCODING 113
SWIDTH 556 0
DWIDTH 14 0
BBX 13 17 1 -5
BITMAP
1E20
71E0
60E0
E060
C060
C060
C060
C060
E060
60E0
71E0
1F60
0060
0060
0060
0060
01F8
ENDCHAR
STARTCHAR r
ENCODING 114
SWIDTH 444 0
DWIDTH 10 0
BBX 10 12 0 0
BITMAP
F380
35C0
38C0
3000
3000
3000
3000
3000
3000
3000
3000
FC00
ENDCHAR
STARTCHAR s
ENCODING 115
SWIDTH 463 0
DWIDTH 11 0
BBX 9 12 1 0
BITMAP
3D00
6300
C300
C100
E000
7C00
1F00
0380
8180
C180
C300
BE00
ENDCHAR
STARTCHAR t
ENCODING 116
SWIDTH 389 0
DWIDTH 10 0
BBX 8 16 1 0
BITMAP
10
10
30
70
FF
30
30
30
30
30
30
30
31
31
39
1E
ENDCHAR
STARTCHAR u
ENCODING 117
SWIDTH 611 0
DWIDTH 14 0
BBX 14 12 0 0
BITMAP
F0F0
3030
3030
3030
3030
3030
3030
3030
3030
3870
1FB0
0E3C
ENDCHAR
STARTCHAR v
ENCODING 118
SWIDTH 537 0
DWIDTH 13 0
BBX 15 12 -1 0
BITMAP
FC7E
3018
3010
1830
1820
0C60
0C40
06C0
0680
0380
0300
0100
ENDCHAR
STARTCHAR w
ENCODING 119
SWIDTH 778 0
DWIDTH 17 0
BBX 19 12 -1 0
BITMAP
FCF3E0
306080
306080
30E180
18B100
18B100
19B300
0D1A00
0D1A00
0D1A00
060C00
060C00
ENDCHAR
STARTCHAR x
ENCODING 120
SWIDTH 537 0
DWIDTH 12 0
BBX 13 12 -1 0
BITMAP
7C78
3830
1C60
0CC0
0780
0700
0700
0D80
18C0
30E0
7070
F8F8
ENDCHAR
STARTCHAR y
ENCODING 121
SWIDTH 537 0
DWIDTH 12 0
BBX 13 17 -1 -5
BITMAP
7838
3010
1820
1820
1860
0C40
0C40
06C0
0680
0680
0300
0300
0200
0200
C400
EC00
7800
ENDCHAR
STARTCHAR z
ENCODING 122
SWIDTH 481 0
DWIDTH 11 0
BBX 9 12 1 0
BITMAP
FF80
C380
8700
8600
0C00
1C00
1800
3000
7080
E080
C180
FF80
ENDCHAR
STARTCHAR braceleft
ENCODING 123
SWIDTH 333 0
DWIDTH 8 0
BBX 6 21 1 -3
BITMAP
0C
10
30
30
30
30
30
30
30
20
C0
20
30
30
30
30
30
30
30
10
0C
ENDCHAR
STARTCHAR bar
ENCODING 124
SWIDTH 606 0
DWIDTH 15 0
BBX 2 18 6 0
BITMAP
C0
C0
C0
C0
C0
C0
C0
C0
C0
C0
C0
C0
C0
C0
C0
C0
C0
C0
ENDCHAR
STARTCHAR braceright
ENCODING 125
SWIDTH 333 0
DWIDTH 7 0
BBX 6 21 0 -3
BITMAP
C0
20
30
30
30
30
30
30
30
10
0C
10
30
30
30
30
30
30
30
20
C0
ENDCHAR
STARTCHAR asciitilde
ENCODING 126
SWIDTH 606 0
DWIDTH 14 0
BBX 12 4 1 6
BITMAP
3C30
7E70
E7E0
C3C0
ENDCHAR
STARTCHAR space
ENCODING 160
SWIDTH 278 0
DWIDTH 7 0
BBX 1 1 0 0
BITMAP
00
ENDCHAR
STARTCHAR exclamdown
ENCODING 161
SWIDTH 296 0
DWIDTH 7 0
BBX 3 18 2 -4
BITMAP
E0
E0
E0
00
40
40
40
C0
C0
C0
C0
C0
C0
C0
C0
C0
C0
C0
ENDCHAR
STARTCHAR cent
ENCODING 162
SWIDTH 556 0
DWIDTH 14 0
BBX 10 18 2 -3
BITMAP
0040
0040
0080
1F80
71C0
61C0
E2C0
C200
C400
C400
C800
E800
7040
70C0
3F00
2000
4000
4000
ENDCHAR
STARTCHAR sterling
ENCODING 163
SWIDTH 556 0
DWIDTH 14 0
BBX 13 18 0 0
BITMAP
03C0
0660
0C30
0C70
0C20
0C00
0600
0600
3FE0
0700
0300
0300
0300
0300
7608
8C08
8FF0
73E0
ENDCHAR
STARTCHAR currency
ENCODING 164
SWIDTH 606 0
DWIDTH 15 0
BBX 13 12 1 4
BITMAP
C718
DFD8
3060
2020
6030
6030
6030
6030
2020
3060
DFD8
C718
ENDCHAR
STARTCHAR yen
ENCODING 165
SWIDTH 704 0
DWIDTH 17 0
BBX 17 18 0 0
BITMAP
FC1F80
300600
380400
180C00
1C0800
0C1800
0E3000
063000
076000
03C000
1FFC00
018000
018000
1FFC00
018000
018000
03C000
0FF800
ENDCHAR
STARTCHAR brokenbar
ENCODING 166
SWIDTH 606 0
DWIDTH 15 0
BBX 2 18 6 0
BITMAP
C0
C0
C0
C0
C0
C0
C0
00
00
00
C0
C0
C0
C0
C0
C0
C0
C0
ENDCHAR
STARTCHAR section
ENCODING 167
SWIDTH 500 0
DWIDTH 12 0
BBX 10 22 1 -4
BITMAP
0E00
3380
6380
6180
7000
3C00
3F00
2F80
43C0
C1C0
C0C0
E0C0
F0C0
7C80
3F00
0F00
0380
0180
6180
7180
7300
1C00
ENDCHAR
STARTCHAR dieresis
ENCODING 168
SWIDTH 333 0
DWIDTH 8 0
BBX 6 2 1 14
BITMAP
CC
CC
ENDCHAR
STARTCHAR copyright
ENCODING 169
SWIDTH 737 0
DWIDTH 20 0
BBX 18 18 1 0
BITMAP
03F000
0C0C00
100200
200100
43F080
461880
8C0840
8C0040
8C0040
8C0040
8C0040
8C0840
461880
43E080
200100
100200
0C0C00
03F000
ENDCHAR
STARTCHAR ordfeminine
ENCODING 170
SWIDTH 334 0
DWIDTH 9 0
BBX 7 10 1 8
BITMAP
78
4C
04
7C
C4
CC
76
00
00
FE
ENDCHAR
STARTCHAR guillemotleft
ENCODING 171
SWIDTH 426 0
DWIDTH 12 0
BBX 10 7 1 3
BITMAP
0840
3180
6300
C600
6300
3180
0840
ENDCHAR
STARTCHAR logicalnot
ENCODING 172
SWIDTH 606 0
DWIDTH 14 0
BBX 12 7 1 3
BITMAP
FFF0
FFF0
0030
0030
0030
0030
0030
ENDCHAR
STARTCHAR hyphen
ENCODING 173
SWIDTH 333 0
DWIDTH 8 0
BBX 6 2 1 6
BITMAP
FC
FC
ENDCHAR
STARTCHAR registered
ENCODING 174
SWIDTH 737 0
DWIDTH 20 0
BBX 18 18 1 0
BITMAP
03F000
0C0C00
100200
200100
47F080
431880
830840
830840
831040
83E040
833040
831840
430C80
478E80
200100
100200
0C0C00
03F000
ENDCHAR
STARTCHAR macron
ENCODING 175
SWIDTH 333 0
DWIDTH 9 0
BBX 7 2 1 14
BITMAP
FE
FE
ENDCHAR
STARTCHAR degree
ENCODING 176
SWIDTH 400 0
DWIDTH 9 0
BBX 8 7 0 11
BITMAP
3C
66
C3
C3
C3
66
3C
ENDCHAR
STARTCHAR plusminus
ENCODING 177
SWIDTH 606 0
DWIDTH 14 0
BBX 12 11 1 2
BITMAP
0600
0600
0600
FFF0
FFF0
0600
0600
0600
0000
FFF0
FFF0
ENDCHAR
STARTCHAR twosuperior
ENCODING 178
SWIDTH 333 0
DWIDTH 8 0
BBX 7 11 0 7
BITMAP
7C
C6
C6
06
0C
18
30
60
C0
C2
FE
ENDCHAR
STARTCHAR threesuperior
ENCODING 179
SWIDTH 333 0
DWIDTH 8 0
BBX 7 11 0 7
BITMAP
7C
C6
C6
06
0C
3C
06
06
C6
C6
7C
ENDCHAR
STARTCHAR acute
ENCODING 180
SWIDTH 333 0
DWIDTH 8 0
BBX 5 4 2 14
BITMAP
18
38
60
80
ENDCHAR
STARTCHAR mu
ENCODING 181
SWIDTH 611 0
DWIDTH 14 0
BBX 14 17 0 -5
BITMAP
F0F0
3030
3030
3030
3030
3030
3030
3030
3030
3870
3FB0
2E3C
2000
2000
6000
7000
2000
ENDCHAR
STARTCHAR paragraph
ENCODING 182
SWIDTH 606 0
DWIDTH 15 0
BBX 13 22 1 -4
BITMAP
1FF8
7330
E330
E330
E330
E330
E330
E330
7330
1F30
0330
0330
0330
0330
0330
0330
0330
0330
0330
0330
0330
07F8
ENDCHAR
STARTCHAR periodcentered
ENCODING 183
SWIDTH 278 0
DWIDTH 7 0
BBX 3 3 2 6
BITMAP
E0
E0
E0
ENDCHAR
STARTCHAR cedilla
ENCODING 184
SWIDTH 333 0
DWIDTH 7 0
BBX 4 4 1 -4
BITMAP
40
70
10
E0
ENDCHAR
STARTCHAR onesuperior
ENCODING 185
SWIDTH 333 0
DWIDTH 8 0
BBX 6 11 1 7
BITMAP
10
30
F0
30
30
30
30
30
30
30
FC
ENDCHAR
STARTCHAR ordmasculine
ENCODING 186
SWIDTH 300 0
DWIDTH 9 0
BBX 7 10 1 8
BITMAP
38
44
C6
C6
C6
44
38
00
00
FE
ENDCHAR
STARTCHAR guillemotright
ENCODING 187
SWIDTH 426 0
DWIDTH 12 0
BBX 10 7 1 3
BITMAP
8400
6300
3180
18C0
3180
6300
8400
ENDCHAR
STARTCHAR onequarter
ENCODING 188
SWIDTH 834 0
DWIDTH 19 0
BBX 18 18 0 0
BITMAP
100400
300C00
F00800
301800
301000
303000
302000
306100
304300
30C700
FC8B00
019B00
011300
033300
026300
067FC0
040300
0C0780
ENDCHAR
STARTCHAR onehalf
ENCODING 189
SWIDTH 834 0
DWIDTH 19 0
BBX 18 18 0 0
BITMAP
100800
301800
F01000
303000
302000
306000
304000
30CF80
3098C0
3198C0
FD00C0
030180
020300
060600
040C00
0C1840
081FC0
181FC0
ENDCHAR
STARTCHAR threequarters
ENCODING 190
SWIDTH 834 0
DWIDTH 19 0
BBX 18 18 0 0
BITMAP
7C0400
C60C00
C60800
061800
0C1000
3C3000
062000
066100
C64300
C6C700
7C8B00
019B00
011300
033300
026300
067FC0
040300
0C0780
ENDCHAR
STARTCHAR questiondown
ENCODING 191
SWIDTH 444 0
DWIDTH 12 0
BBX 10 18 1 -4
BITMAP
0700
0700
0700
0000
0000
0600
0600
0600
0600
0C00
3800
7000
E000
C1C0
C1C0
E0C0
7180
1E00
ENDCHAR
STARTCHAR Agrave
ENCODING 192
SWIDTH 722 0
DWIDTH 19 0
BBX 19 23 0 0
BITMAP
030000
038000
00C000
002000
000000
004000
004000
00C000
00E000
01E000
013000
033000
023800
061800
041C00
0C0C00
0FFE00
180600
100700
300300
300380
600180
F807E0
ENDCHAR
STARTCHAR Aacute
ENCODING 193
SWIDTH 722 0
DWIDTH 19 0
BBX 19 23 0 0
BITMAP
001800
003800
006000
008000
000000
004000
004000
00C000
00E000
01E000
013000
033000
023800
061800
041C00
0C0C00
0FFE00
180600
100700
300300
300380
600180
F807E0
ENDCHAR
STARTCHAR Acircumflex
ENCODING 194
SWIDTH 722 0
DWIDTH 19 0
BBX 19 23 0 0
BITMAP
00C000
01E000
033000
040800
000000
004000
004000
00C000
00E000
01E000
013000
033000
023800
061800
041C00
0C0C00
0FFE00
180600
100700
300300
300380
600180
F807E0
ENDCHAR
STARTCHAR Atilde
ENCODING 195
SWIDTH 722 0
DWIDTH 19 0
BBX 19 21 0 0
BITMAP
018800
02E800
023000
000000
004000
00C000
00E000
01E000
013000
033000
023800
061800
041C00
0C0C00
0FFE00
180600
100700
300300
300380
600180
F807E0
ENDCHAR
STARTCHAR Adieresis
ENCODING 196
SWIDTH 722 0
DWIDTH 19 0
BBX 19 22 0 0
BITMAP
031800
031800
031800
000000
004000
004000
00C000
00E000
01E000
013000
033000
023800
061800
041C00
0C0C00
0FFE00
180600
100700
300300
300380
600180
F807E0
ENDCHAR
STARTCHAR Aring
ENCODING 197
SWIDTH 722 0
DWIDTH 19 0
BBX 19 23 0 0
BITMAP
01C000
022000
022000
022000
01C000
000000
004000
00C000
00E000
01E000
013000
033000
023800
061800
041C00
0C0C00
0FFE00
180600
100700
300300
300380
600180
F807E0
ENDCHAR
STARTCHAR AE
ENCODING 198
SWIDTH 1000 0
DWIDTH 25 0
BBX 24 18 0 0
BITMAP
01FFFF
003607
006603
004601
00C601
008611
018610
010630
0307F0
020630
07FE10
040610
0C0601
080601
180601
100603
380E07
FE3FFF
ENDCHAR
STARTCHAR Ccedilla
ENCODING 199
SWIDTH 722 0
DWIDTH 17 0
BBX 15 22 1 -4
BITMAP
07F2
1E1E
3806
7002
6002
E002
C000
C000
C000
C000
C000
C000
E000
6002
7002
3806
1C1C
07F0
0100
01C0
0040
0780
ENDCHAR
STARTCHAR Egrave
ENCODING 200
SWIDTH 722 0
DWIDTH 16 0
BBX 14 23 1 0
BITMAP
0600
0700
0180
0040
0000
FFFC
381C
180C
1804
1804
1820
1820
1860
1FE0
1860
1820
1820
1800
1804
1804
180C
381C
FFFC
ENDCHAR
STARTCHAR Eacute
ENCODING 201
SWIDTH 722 0
DWIDTH 16 0
BBX 14 23 1 0
BITMAP
0030
0070
00C0
0100
0000
FFFC
381C
180C
1804
1804
1820
1820
1860
1FE0
1860
1820
1820
1800
1804
1804
180C
381C
FFFC
ENDCHAR
STARTCHAR Ecircumflex
ENCODING 202
SWIDTH 722 0
DWIDTH 16 0
BBX 14 23 1 0
BITMAP
0180
03C0
0660
0810
0000
FFFC
381C
180C
1804
1804
1820
1820
1860
1FE0
1860
1820
1820
1800
1804
1804
180C
381C
FFFC
ENDCHAR
STARTCHAR Edieresis
ENCODING 203
SWIDTH 722 0
DWIDTH 16 0
BBX 14 22 1 0
BITMAP
0C60
0C60
0C60
0000
FFFC
381C
180C
1804
1804
1820
1820
1860
1FE0
1860
1820
1820
1800
1804
1804
180C
381C
FFFC
ENDCHAR
STARTCHAR Igrave
ENCODING 204
SWIDTH 407 0
DWIDTH 9 0
BBX 8 23 1 0
BITMAP
60
70
18
04
00
FF
3C
18
18
18
18
18
18
18
18
18
18
18
18
18
18
3C
FF
ENDCHAR
STARTCHAR Iacute
ENCODING 205
SWIDTH 407 0
DWIDTH 9 0
BBX 8 23 1 0
BITMAP
03
07
0C
10
00
FF
3C
18
18
18
18
18
18
18
18
18
18
18
18
18
18
3C
FF
ENDCHAR
STARTCHAR Icircumflex
ENCODING 206
SWIDTH 407 0
DWIDTH 9 0
BBX 8 23 1 0
BITMAP
18
3C
66
81
00
FF
3C
18
18
18
18
18
18
18
18
18
18
18
18
18
18
3C
FF
ENDCHAR
STARTCHAR Idieresis
ENCODING 207
SWIDTH 407 0
DWIDTH 9 0
BBX 8 22 1 0
BITMAP
C3
C3
C3
00
FF
3C
18
18
18
18
18
18
18
18
18
18
18
18
18
18
3C
FF
ENDCHAR
STARTCHAR Eth
ENCODING 208
SWIDTH 778 0
DWIDTH 20 0
BBX 17 18 1 0
BITMAP
FFF000
381C00
180600
180700
180300
180380
180180
180180
FF0180
180180
180180
180180
180380
180300
180700
180600
381C00
FFF000
ENDCHAR
STARTCHAR Ntilde
ENCODING 209
SWIDTH 815 0
DWIDTH 21 0
BBX 19 22 1 0
BITMAP
018800
02E800
023000
000000
F80FE0
3C0380
1C0100
160100
170100
138100
118100
10C100
10E100
107100
103100
103900
101D00
100F00
100700
100300
380300
FE0100
ENDCHAR
STARTCHAR Ograve
ENCODING 210
SWIDTH 778 0
DWIDTH 19 0
BBX 17 23 1 0
BITMAP
030000
038000
00C000
002000
000000
07F000
1C1C00
300600
700700
600300
E00380
C00180
C00180
C00180
C00180
C00180
C00180
E00380
600300
700700
300600
1C1C00
07F000
ENDCHAR
STARTCHAR Oacute
ENCODING 211
SWIDTH 778 0
DWIDTH 19 0
BBX 17 23 1 0
BITMAP
001800
003800
006000
008000
000000
07F000
1C1C00
300600
700700
600300
E00380
C00180
C00180
C00180
C00180
C00180
C00180
E00380
600300
700700
300600
1C1C00
07F000
ENDCHAR
STARTCHAR Ocircumflex
ENCODING 212
SWIDTH 778 0
DWIDTH 19 0
BBX 17 23 1 0
BITMAP
00C000
01E000
033000
040800
000000
07F000
1C1C00
300600
700700
600300
E00380
C00180
C00180
C00180
C00180
C00180
C00180
E00380
600300
700700
300600
1C1C00
07F000
ENDCHAR
STARTCHAR Otilde
ENCODING 213
SWIDTH 778 0
DWIDTH 19 0
BBX 17 22 1 0
BITMAP
031000
05D000
046000
000000
07F000
1C1C00
300600
700700
600300
E00380
C00180
C00180
C00180
C00180
C00180
C00180
E00380
600300
700700
300600
1C1C00
07F000
ENDCHAR
STARTCHAR Odieresis
ENCODING 214
SWIDTH 778 0
DWIDTH 19 0
BBX 17 22 1 0
BITMAP
063000
063000
063000
000000
07F000
1C1C00
300600
700700
600300
E00380
C00180
C00180
C00180
C00180
C00180
C00180
E00380
600300
700700
300600
1C1C00
07F000
ENDCHAR
STARTCHAR multiply
ENCODING 215
SWIDTH 606 0
DWIDTH 14 0
BBX 13 12 1 1
BITMAP
C018
6030
3060
18C0
0D80
0700
0700
0D80
18C0
3060
6030
C018
ENDCHAR
STARTCHAR Oslash
ENCODING 216
SWIDTH 778 0
DWIDTH 19 0
BBX 17 20 1 -1
BITMAP
000200
07F600
1C1C00
300E00
701F00
603300
E06380
C04180
C0C180
C18180
C30180
C20180
C60180
EC0380
780300
700700
300600
7C1C00
C7F000
800000
ENDCHAR
STARTCHAR Ugrave
ENCODING 217
SWIDTH 815 0
DWIDTH 19 0
BBX 18 23 1 0
BITMAP
030000
038000
00C000
002000
000000
FE1FC0
780700
300200
300200
300200
300200
300200
300200
300200
300200
300200
300200
300200
300200
300600
180400
1C1C00
07F000
ENDCHAR
STARTCHAR Uacute
ENCODING 218
SWIDTH 815 0
DWIDTH 19 0
BBX 18 23 1 0
BITMAP
000C00
001C00
003000
004000
000000
FE1FC0
780700
300200
300200
300200
300200
300200
300200
300200
300200
300200
300200
300200
300200
300600
180400
1C1C00
07F000
ENDCHAR
STARTCHAR Ucircumflex
ENCODING 219
SWIDTH 815 0
DWIDTH 19 0
BBX 18 23 1 0
BITMAP
00C000
01E000
033000
040800
000000
FE1FC0
780700
300200
300200
300200
300200
300200
300200
300200
300200
300200
300200
300200
300200
300600
180400
1C1C00
07F000
ENDCHAR
STARTCHAR Udieresis
ENCODING 220
SWIDTH 815 0
DWIDTH 19 0
BBX 18 22 1 0
BITMAP
061800
061800
061800
000000
FE1FC0
780700
300200
300200
300200
300200
300200
300200
300200
300200
300200
300200
300200
300200
300600
180400
1C1C00
07F000
ENDCHAR
STARTCHAR Yacute
ENCODING 221
SWIDTH 704 0
DWIDTH 17 0
BBX 19 23 -1 0
BITMAP
000600
000E00
001800
002000
000000
FE0FE0
3C0380
1C0300
0C0600
0E0400
070C00
030800
019800
01F000
00F000
006000
006000
006000
006000
006000
006000
00F000
03FC00
ENDCHAR
STARTCHAR Thorn
ENCODING 222
SWIDTH 667 0
DWIDTH 16 0
BBX 14 18 1 0
BITMAP
FF00
3C00
1800
1800
1FE0
1838
181C
180C
180C
180C
181C
1818
1830
1FC0
1800
1800
3C00
FF00
ENDCHAR
STARTCHAR germandbls
ENCODING 223
SWIDTH 574 0
DWIDTH 14 0
BBX 12 18 1 0
BITMAP
0F80
18C0
3060
3060
3060
3060
30C0
33C0
3060
3030
3030
3030
3030
3030
3630
3630
3660
F3C0
ENDCHAR
STARTCHAR agrave
ENCODING 224
SWIDTH 556 0
DWIDTH 13 0
BBX 12 18 1 0
BITMAP
1800
1C00
0600
0100
0000
0000
1F00
7180
70C0
60C0
00C0
07C0
38C0
60C0
C0C0
C0C0
E1F0
7E60
ENDCHAR
STARTCHAR aacute
ENCODING 225
SWIDTH 556 0
DWIDTH 13 0
BBX 12 18 1 0
BITMAP
0180
0380
0600
0800
0000
0000
1F00
7180
70C0
60C0
00C0
07C0
38C0
60C0
C0C0
C0C0
E1F0
7E60
ENDCHAR
STARTCHAR acircumflex
ENCODING 226
SWIDTH 556 0
DWIDTH 13 0
BBX 12 18 1 0
BITMAP
0600
0F00
1980
2040
0000
0000
1F00
7180
70C0
60C0
00C0
07C0
38C0
60C0
C0C0
C0C0
E1F0
7E60
ENDCHAR
STARTCHAR atilde
ENCODING 227
SWIDTH 556 0
DWIDTH 13 0
BBX 12 16 1 0
BITMAP
1C40
2380
0000
0000
1F00
7180
70C0
60C0
00C0
07C0
38C0
60C0
C0C0
C0C0
E1F0
7E60
ENDCHAR
STARTCHAR adieresis
ENCODING 228
SWIDTH 556 0
DWIDTH 13 0
BBX 12 16 1 0
BITMAP
1980
1980
0000
0000
1F00
7180
70C0
60C0
00C0
07C0
38C0
60C0
C0C0
C0C0
E1F0
7E60
ENDCHAR
STARTCHAR aring
ENCODING 229
SWIDTH 556 0
DWIDTH 13 0
BBX 12 19 1 0
BITMAP
0E00
1100
1100
1100
0E00
0000
0000
1F00
7180
70C0
60C0
00C0
07C0
38C0
60C0
C0C0
C0C0
E1F0
7E60
ENDCHAR
STARTCHAR ae
ENCODING 230
SWIDTH 796 0
DWIDTH 21 0
BBX 19 12 1 0
BITMAP
1F1F00
71F1C0
60E0C0
00E0E0
00C060
07FFE0
38C000
60C000
C0E000
C0E040
E370C0
7C1F80
ENDCHAR
STARTCHAR ccedilla
ENCODING 231
SWIDTH 444 0
DWIDTH 12 0
BBX 10 16 1 -4
BITMAP
1F00
71C0
61C0
E0C0
C000
C000
C000
C000
E000
6040
70C0
1F80
0800
0E00
0200
1C00
ENDCHAR
STARTCHAR egrave
ENCODING 232
SWIDTH 500 0
DWIDTH 13 0
BBX 11 18 1 0
BITMAP
1800
1C00
0600
0100
0000
0000
1F00
71C0
60C0
E0E0
C060
FFE0
C000
C000
E000
6040
70C0
1F80
ENDCHAR
STARTCHAR eacute
ENCODING 233
SWIDTH 500 0
DWIDTH 13 0
BBX 11 18 1 0
BITMAP
0180
0380
0600
0800
0000
0000
1F00
71C0
60C0
E0E0
C060
FFE0
C000
C000
E000
6040
70C0
1F80
ENDCHAR
STARTCHAR ecircumflex
ENCODING 234
SWIDTH 500 0
DWIDTH 13 0
BBX 11 18 1 0
BITMAP
0600
0F00
1980
2040
0000
0000
1F00
71C0
60C0
E0E0
C060
FFE0
C000
C000
E000
6040
70C0
1F80
ENDCHAR
STARTCHAR edieresis
ENCODING 235
SWIDTH 500 0
DWIDTH 13 0
BBX 11 16 1 0
BITMAP
3180
3180
0000
0000
1F00
71C0
60C0
E0E0
C060
FFE0
C000
C000
E000
6040
70C0
1F80
ENDCHAR
STARTCHAR igrave
ENCODING 236
SWIDTH 315 0
DWIDTH 8 0
BBX 7 18 0 0
BITMAP
C0
E0
30
08
00
00
78
18
18
18
18
18
18
18
18
18
18
7E
ENDCHAR
STARTCHAR iacute
ENCODING 237
SWIDTH 315 0
DWIDTH 8 0
BBX 6 18 1 0
BITMAP
0C
1C
30
40
00
00
F0
30
30
30
30
30
30
30
30
30
30
FC
ENDCHAR
STARTCHAR icircumflex
ENCODING 238
SWIDTH 315 0
DWIDTH 8 0
BBX 8 18 0 0
BITMAP
18
3C
66
81
00
00
78
18
18
18
18
18
18
18
18
18
18
7E
ENDCHAR
STARTCHAR idieresis
ENCODING 239
SWIDTH 315 0
DWIDTH 8 0
BBX 6 16 1 0
BITMAP
CC
CC
00
00
F0
30
30
30
30
30
30
30
30
30
30
FC
ENDCHAR
STARTCHAR eth
ENCODING 240
SWIDTH 500 0
DWIDTH 13 0
BBX 11 18 1 0
BITMAP
6000
18C0
0F00
1E00
6300
0180
1F80
71C0
60C0
E0E0
C060
C060
C060
C060
E0E0
60C0
71C0
1F00
ENDCHAR
STARTCHAR ntilde
ENCODING 241
SWIDTH 611 0
DWIDTH 14 0
BBX 14 16 0 0
BITMAP
0E20
11C0
0000
0000
F1C0
37E0
3870
3030
3030
3030
3030
3030
3030
3030
3030
FCFC
ENDCHAR
STARTCHAR ograve
ENCODING 242
SWIDTH 500 0
DWIDTH 13 0
BBX 11 18 1 0
BITMAP
3000
3800
0C00
0200
0000
0000
1F00
71C0
60C0
E0E0
C060
C060
C060
C060
E0E0
60C0
71C0
1F00
ENDCHAR
STARTCHAR oacute
ENCODING 243
SWIDTH 500 0
DWIDTH 13 0
BBX 11 18 1 0
BITMAP
0180
0380
0600
0800
0000
0000
1F00
71C0
60C0
E0E0
C060
C060
C060
C060
E0E0
60C0
71C0
1F00
ENDCHAR
STARTCHAR ocircumflex
ENCODING 244
SWIDTH 500 0
DWIDTH 13 0
BBX 11 18 1 0
BITMAP
0600
0F00
1980
2040
0000
0000
1F00
71C0
60C0
E0E0
C060
C060
C060
C060
E0E0
60C0
71C0
1F00
ENDCHAR
STARTCHAR otilde
ENCODING 245
SWIDTH 500 0
DWIDTH 13 0
BBX 11 16 1 0
BITMAP
1C40
2380
0000
0000
1F00
71C0
60C0
E0E0
C060
C060
C060
C060
E0E0
60C0
71C0
1F00
ENDCHAR
STARTCHAR odieresis
ENCODING 246
SWIDTH 500 0
DWIDTH 13 0
BBX 11 16 1 0
BITMAP
3180
3180
0000
0000
1F00
71C0
60C0
E0E0
C060
C060
C060
C060
E0E0
60C0
71C0
1F00
ENDCHAR
STARTCHAR divide
ENCODING 247
SWIDTH 606 0
DWIDTH 14 0
BBX 12 10 1 2
BITMAP
0600
0600
0000
0000
FFF0
FFF0
0000
0000
0600
0600
ENDCHAR
STARTCHAR oslash
ENCODING 248
SWIDTH 500 0
DWIDTH 13 0
BBX 11 14 1 -1
BITMAP
0080
1F80
71C0
62C0
E2E0
C460
C460
C460
C860
E8E0
68C0
71C0
3F00
2000
ENDCHAR
STARTCHAR ugrave
ENCODING 249
SWIDTH 611 0
DWIDTH 14 0
BBX 14 18 0 0
BITMAP
0C00
0E00
0300
0080
0000
0000
F0F0
3030
3030
3030
3030
3030
3030
3030
3030
3870
1FB0
0E3C
ENDCHAR
STARTCHAR uacute
ENCODING 250
SWIDTH 611 0
DWIDTH 14 0
BBX 14 18 0 0
BITMAP
00C0
01C0
0300
0400
0000
0000
F0F0
3030
3030
3030
3030
3030
3030
3030
3030
3870
1FB0
0E3C
ENDCHAR
STARTCHAR ucircumflex
ENCODING 251
SWIDTH 611 0
DWIDTH 14 0
BBX 14 18 0 0
BITMAP
0300
0780
0CC0
1020
0000
0000
F0F0
3030
3030
3030
3030
3030
3030
3030
3030
3870
1FB0
0E3C
ENDCHAR
STARTCHAR udieresis
ENCODING 252
SWIDTH 611 0
DWIDTH 14 0
BBX 14 16 0 0
BITMAP
0CC0
0CC0
0000
0000
F0F0
3030
3030
3030
3030
3030
3030
3030
3030
3870
1FB0
0E3C
ENDCHAR
STARTCHAR yacute
ENCODING 253
SWIDTH 537 0
DWIDTH 12 0
BBX 13 23 -1 -5
BITMAP
0060
00E0
0180
0200
0000
0000
7838
3010
1820
1820
1820
0C40
0C40
0680
0680
0680
0300
0300
0200
0200
C400
EC00
7800
ENDCHAR
STARTCHAR thorn
ENCODING 254
SWIDTH 574 0
DWIDTH 14 0
BBX 13 23 0 -5
BITMAP
F000
3000
3000
3000
3000
3000
37C0
3C70
3830
3038
3018
3018
3018
3018
3038
3830
3C70
37C0
3000
3000
3000
3000
FC00
ENDCHAR
STARTCHAR ydieresis
ENCODING 255
SWIDTH 537 0
DWIDTH 12 0
BBX 13 21 -1 -5
BITMAP
0C60
0C60
0000
0000
7838
3010
1820
1820
1820
0C40
0C40
0680
0680
0680
0300
0300
0200
0200
C400
EC00
7800
ENDCHAR
STARTCHAR Amacron
ENCODING 256
SWIDTH 722 0
DWIDTH 19 0
BBX 19 21 0 0
BITMAP
03F800
03F800
000000
004000
004000
00C000
00E000
01E000
013000
033000
023800
061800
041C00
0C0C00
0FFE00
180600
100700
300300
300380
600180
F807E0
ENDCHAR
STARTCHAR amacron
ENCODING 257
SWIDTH 556 0
DWIDTH 13 0
BBX 12 15 1 0
BITMAP
3F80
3F80
0000
1F00
7180
70C0
60C0
00C0
07C0
38C0
60C0
C0C0
C0C0
E1F0
7E60
ENDCHAR
STARTCHAR Abreve
ENCODING 258
SWIDTH 722 0
DWIDTH 19 0
BBX 19 22 0 0
BITMAP
021000
033000
01E000
000000
004000
004000
00C000
00E000
01E000
013000
033000
023800
061800
041C00
0C0C00
0FFE00
180600
100700
300300
300380
600180
F807E0
ENDCHAR
STARTCHAR abreve
ENCODING 259
SWIDTH 556 0
DWIDTH 13 0
BBX 12 16 1 0
BITMAP
2100
3300
1E00
0000
1F00
7180
70C0
60C0
00C0
07C0
38C0
60C0
C0C0
C0C0
E1F0
7E60
ENDCHAR
STARTCHAR Aogonek
ENCODING 260
SWIDTH 722 0
DWIDTH 19 0
BBX 19 22 0 -4
BITMAP
004000
004000
00C000
00E000
01E000
013000
033000
023800
061800
041C00
0C0C00
0FFE00
180600
100700
300300
300380
600180
F807E0
006000
00C000
00D000
006000
ENDCHAR
STARTCHAR aogonek
ENCODING 261
SWIDTH 556 0
DWIDTH 13 0
BBX 12 16 1 -4
BITMAP
1F00
7180
70C0
60C0
00C0
07C0
38C0
60C0
C0C0
C0C0
E1F0
7E60
0600
0C00
0D00
0600
ENDCHAR
STARTCHAR Cacute
ENCODING 262
SWIDTH 722 0
DWIDTH 17 0
BBX 15 23 1 0
BITMAP
0060
00E0
0180
0200
0000
07F2
1C1E
300E
6006
E002
C002
C000
C000
C000
C000
C000
C000
E002
6002
7002
3804
1C0C
07F0
ENDCHAR
STARTCHAR cacute
ENCODING 263
SWIDTH 444 0
DWIDTH 12 0
BBX 10 17 1 0
BITMAP
0300
0700
0C00
1000
0000
1F00
71C0
61C0
E0C0
C000
C000
C000
C000
E000
6040
70C0
1F80
ENDCHAR
STARTCHAR Ccircumflex
ENCODING 264
SWIDTH 722 0
DWIDTH 17 0
BBX 15 23 1 0
BITMAP
0180
03C0
0660
0810
0000
07F2
1C1E
300E
6006
E002
C002
C000
C000
C000
C000
C000
C000
E002
6002
7002
3804
1C0C
07F0
ENDCHAR
STARTCHAR ccircumflex
ENCODING 265
SWIDTH 444 0
DWIDTH 12 0
BBX 10 17 1 0
BITMAP
0C00
1E00
3300
4080
0000
1F00
71C0
61C0
E0C0
C000
C000
C000
C000
E000
6040
70C0
1F80
ENDCHAR
STARTCHAR Cdotaccent
ENCODING 266
SWIDTH 722 0
DWIDTH 17 0
BBX 15 21 1 0
BITMAP
0180
0180
0000
07F2
1C1E
300E
6006
E002
C002
C000
C000
C000
C000
C000
C000
E002
6002
7002
3804
1C0C
07F0
ENDCHAR
STARTCHAR cdotaccent
ENCODING 267
SWIDTH 444 0
DWIDTH 12 0
BBX 10 15 1 0
BITMAP
0C00
0C00
0000
1F00
71C0
61C0
E0C0
C000
C000
C000
C000
E000
6040
70C0
1F80
ENDCHAR
STARTCHAR Ccaron
ENCODING 268
SWIDTH 722 0
DWIDTH 17 0
BBX 15 23 1 0
BITMAP
0810
0660
03C0
0180
0000
07F2
1C1E
300E
6006
E002
C002
C000
C000
C000
C000
C000
C000
E002
6002
7002
3804
1C0C
07F0
ENDCHAR
STARTCHAR ccaron
ENCODING 269
SWIDTH 444 0
DWIDTH 12 0
BBX 10 17 1 0
BITMAP
4080
3300
1E00
0C00
0000
1F00
71C0
61C0
E0C0
C000
C000
C000
C000
E000
6040
70C0
1F80
ENDCHAR
STARTCHAR Dcaron
ENCODING 270
SWIDTH 778 0
DWIDTH 20 0
BBX 17 23 1 0
BITMAP
081000
066000
03C000
018000
000000
FFF000
381C00
180600
180700
180300
180380
180180
180180
180180
180180
180180
180180
180380
180300
180700
180600
381C00
FFF000
ENDCHAR
STARTCHAR dcaron
ENCODING 271
SWIDTH 749 0
DWIDTH 19 0
BBX 17 18 1 0
BITMAP
01E300
006780
006780
006180
006100
006200
1E6400
71E000
60E000
E06000
C06000
C06000
C06000
C06000
E06000
60E000
71E000
1F7800
ENDCHAR
STARTCHAR Dcroat
ENCODING 272
SWIDTH 778 0
DWIDTH 20 0
BBX 17 18 1 0
BITMAP
FFF000
381C00
180600
180700
180300
180380
180180
180180
FF0180
180180
180180
180180
180380
180300
180700
180600
381C00
FFF000
ENDCHAR
STARTCHAR dcroat
ENCODING 273
SWIDTH 574 0
DWIDTH 14 0
BBX 13 18 1 0
BITMAP
01E0
0060
0060
0060
07F8
07F8
1E60
71E0
60E0
E060
C060
C060
C060
C060
E060
60E0
71E0
1F78
ENDCHAR
STARTCHAR Emacron
ENCODING 274
SWIDTH 722 0
DWIDTH 16 0
BBX 14 21 1 0
BITMAP
0FE0
0FE0
0000
FFFC
381C
180C
1804
1804
1820
1820
1860
1FE0
1860
1820
1820
1800
1804
1804
180C
381C
FFFC
ENDCHAR
STARTCHAR emacron
ENCODING 275
SWIDTH 500 0
DWIDTH 13 0
BBX 11 15 1 0
BITMAP
3F80
3F80
0000
1F00
71C0
60C0
E0E0
C060
FFE0
C000
C000
E000
6040
70C0
1F80
ENDCHAR
STARTCHAR Ebreve
ENCODING 276
SWIDTH 722 0
DWIDTH 16 0
BBX 14 22 1 0
BITMAP
0840
0CC0
0780
0000
FFFC
381C
180C
1804
1804
1820
1820
1860
1FE0
1860
1820
1820
1800
1804
1804
180C
381C
FFFC
ENDCHAR
STARTCHAR ebreve
ENCODING 277
SWIDTH 500 0
DWIDTH 13 0
BBX 11 16 1 0
BITMAP
1080
1980
0F00
0000
1F00
71C0
60C0
E0E0
C060
FFE0
C000
C000
E000
6040
70C0
1F80
ENDCHAR
STARTCHAR Edotaccent
ENCODING 278
SWIDTH 722 0
DWIDTH 16 0
BBX 14 21 1 0
BITMAP
0300
0300
0000
FFFC
381C
180C
1804
1804
1820
1820
1860
1FE0
1860
1820
1820
1800
1804
1804
180C
381C
FFFC
ENDCHAR
STARTCHAR edotaccent
ENCODING 279
SWIDTH 500 0
DWIDTH 13 0
BBX 11 15 1 0
BITMAP
0600
0600
0000
1F00
71C0
60C0
E0E0
C060
FFE0
C000
C000
E000
6040
70C0
1F80
ENDCHAR
STARTCHAR Eogonek
ENCODING 280
SWIDTH 722 0
DWIDTH 16 0
BBX 14 22 1 -4
BITMAP
FFFC
381C
180C
1804
1804
1820
1820
1860
1FE0
1860
1820
1820
1800
1804
1804
180C
381C
FFFC
0180
0300
0340
0180
ENDCHAR
STARTCHAR eogonek
ENCODING 281
SWIDTH 500 0
DWIDTH 13 0
BBX 11 16 1 -4
BITMAP
1F00
71C0
60C0
E0E0
C060
FFE0
C000
C000
E000
6040
70C0
1F80
0C00
1800
1A00
0C00
ENDCHAR
STARTCHAR Ecaron
ENCODING 282
SWIDTH 722 0
DWIDTH 16 0
BBX 14 23 1 0
BITMAP
1020
0CC0
0780
0300
0000
FFFC
381C
180C
1804
1804
1820
1820
1860
1FE0
1860
1820
1820
1800
1804
1804
180C
381C
FFFC
ENDCHAR
STARTCHAR ecaron
ENCODING 283
SWIDTH 500 0
DWIDTH 13 0
BBX 11 17 1 0
BITMAP
2040
1980
0F00
0600
0000
1F00
71C0
60C0
E0E0
C060
FFE0
C000
C000
E000
6040
70C0
1F80
ENDCHAR
STARTCHAR Gcircumflex
ENCODING 284
SWIDTH 778 0
DWIDTH 18 0
BBX 17 23 1 0
BITMAP
018000
03C000
066000
081000
000000
07F200
1E1E00
380600
700600
600200
E00200
C00000
C00000
C00000
C00000
C03F80
C00600
E00600
600600
700600
380E00
1E3600
07E200
ENDCHAR
STARTCHAR gcircumflex
ENCODING 285
SWIDTH 537 0
DWIDTH 12 0
BBX 13 22 0 -5
BITMAP
0300
0780
0CC0
1020
0000
1F38
31D8
60C0
60C0
60C0
60C0
3180
1F00
3000
6000
3F00
1FC0
60E0
C060
C060
E0C0
7F80
ENDCHAR
STARTCHAR Gbreve
ENCODING 286
SWIDTH 778 0
DWIDTH 18 0
BBX 17 22 1 0
BITMAP
042000
066000
03C000
000000
07F200
1E1E00
380600
700600
600200
E00200
C00000
C00000
C00000
C00000
C03F80
C00600
E00600
600600
700600
380E00
1E3600
07E200
ENDCHAR
STARTCHAR gbreve
ENCODING 287
SWIDTH 537 0
DWIDTH 12 0
BBX 13 21 0 -5
BITMAP
0840
0CC0
0780
0000
1F38
31D8
60C0
60C0
60C0
60C0
3180
1F00
3000
6000
3F00
1FC0
60E0
C060
C060
E0C0
7F80
ENDCHAR
STARTCHAR Gdotaccent
ENCODING 288
SWIDTH 778 0
DWIDTH 18 0
BBX 17 21 1 0
BITMAP
018000
018000
000000
07F200
1E1E00
380600
700600
600200
E00200
C00000
C00000
C00000
C00000
C03F80
C00600
E00600
600600
700600
380E00
1E3600
07E200
ENDCHAR
STARTCHAR gdotaccent
ENCODING 289
SWIDTH 537 0
DWIDTH 12 0
BBX 13 20 0 -5
BITMAP
0300
0300
0000
1F38
31D8
60C0
60C0
60C0
60C0
3180
1F00
3000
6000
3F00
1FC0
60E0
C060
C060
E0C0
7F80
ENDCHAR
STARTCHAR Gcommaaccent
ENCODING 290
SWIDTH 778 0
DWIDTH 18 0
BBX 17 26 1 -8
BITMAP
07F200
1E1E00
380600
700600
600200
E00200
C00000
C00000
C00000
C00000
C03F80
C00600
E00600
600600
700600
380E00
1E3600
07E200
000000
018000
03C000
03C000
00C000
008000
010000
020000
ENDCHAR
STARTCHAR gcommaaccent
ENCODING 291
SWIDTH 537 0
DWIDTH 12 0
BBX 13 25 0 -5
BITMAP
0080
0100
0200
0600
0780
0780
0300
0000
1F38
31D8
60C0
60C0
60C0
60C0
3180
1F00
3000
6000
3F00
1FC0
60E0
C060
C060
E0C0
7F80
ENDCHAR
STARTCHAR Hcircumflex
ENCODING 292
SWIDTH 833 0
DWIDTH 21 0
BBX 19 23 1 0
BITMAP
006000
00F000
019800
020400
000000
FE0FE0
380380
180300
180300
180300
180300
180300
180300
1FFF00
180300
180300
180300
180300
180300
180300
180300
380380
FE0FE0
ENDCHAR
STARTCHAR hcircumflex
ENCODING 293
SWIDTH 611 0
DWIDTH 14 0
BBX 14 23 0 0
BITMAP
1800
3C00
6600
8100
0000
F000
3000
3000
3000
3000
3000
31C0
37E0
3870
3030
3030
3030
3030
3030
3030
3030
3030
FCFC
ENDCHAR
STARTCHAR Hbar
ENCODING 294
SWIDTH 833 0
DWIDTH 21 0
BBX 19 18 1 0
BITMAP
FE0FE0
380380
180300
180300
180300
FFFFE0
FFFFE0
180300
1FFF00
180300
180300
180300
180300
180300
180300
180300
380380
FE0FE0
ENDCHAR
STARTCHAR hbar
ENCODING 295
SWIDTH 611 0
DWIDTH 14 0
BBX 14 18 0 0
BITMAP
F000
3000
3000
3000
FF00
FF00
31C0
37E0
3870
3030
3030
3030
3030
3030
3030
3030
3030
FCFC
ENDCHAR
STARTCHAR Itilde
ENCODING 296
SWIDTH 407 0
DWIDTH 9 0
BBX 8 21 1 0
BITMAP
79
9E
00
FF
3C
18
18
18
18
18
18
18
18
18
18
18
18
18
18
3C
FF
ENDCHAR
STARTCHAR itilde
ENCODING 297
SWIDTH 315 0
DWIDTH 8 0
BBX 8 15 0 0
BITMAP
79
9E
00
78
18
18
18
18
18
18
18
18
18
18
7E
ENDCHAR
STARTCHAR Imacron
ENCODING 298
SWIDTH 407 0
DWIDTH 9 0
BBX 8 21 1 0
BITMAP
7F
7F
00
FF
3C
18
18
18
18
18
18
18
18
18
18
18
18
18
18
3C
FF
ENDCHAR
STARTCHAR imacron
ENCODING 299
SWIDTH 315 0
DWIDTH 8 0
BBX 7 15 0 0
BITMAP
FE
FE
00
78
18
18
18
18
18
18
18
18
18
18
7E
ENDCHAR
STARTCHAR Ibreve
ENCODING 300
SWIDTH 407 0
DWIDTH 9 0
BBX 8 22 1 0
BITMAP
42
66
3C
00
FF
3C
18
18
18
18
18
18
18
18
18
18
18
18
18
18
3C
FF
ENDCHAR
STARTCHAR ibreve
ENCODING 301
SWIDTH 315 0
DWIDTH 8 0
BBX 6 16 1 0
BITMAP
84
CC
78
00
F0
30
30
30
30
30
30
30
30
30
30
FC
ENDCHAR
STARTCHAR Iogonek
ENCODING 302
SWIDTH 407 0
DWIDTH 9 0
BBX 8 22 1 -4
BITMAP
FF
3C
18
18
18
18
18
18
18
18
18
18
18
18
18
18
3C
FF
18
30
34
18
ENDCHAR
STARTCHAR iogonek
ENCODING 303
SWIDTH 315 0
DWIDTH 8 0
BBX 6 21 1 -4
BITMAP
30
30
00
00
00
F0
30
30
30
30
30
30
30
30
30
30
FC
30
60
68
30
ENDCHAR
STARTCHAR Idotaccent
ENCODING 304
SWIDTH 407 0
DWIDTH 9 0
BBX 8 21 1 0
BITMAP
18
18
00
FF
3C
18
18
18
18
18
18
18
18
18
18
18
18
18
18
3C
FF
ENDCHAR
STARTCHAR dotlessi
ENCODING 305
SWIDTH 315 0
DWIDTH 8 0
BBX 6 12 1 0
BITMAP
F0
30
30
30
30
30
30
30
30
30
30
FC
ENDCHAR
STARTCHAR IJ
ENCODING 306
SWIDTH 943 0
DWIDTH 23 0
BBX 22 18 1 0
BITMAP
FF07FC
3C00F0
180060
180060
180060
180060
180060
180060
180060
180060
180060
183060
187860
187860
187060
1860C0
3C31C0
FF1F00
ENDCHAR
STARTCHAR ij
ENCODING 307
SWIDTH 595 0
DWIDTH 16 0
BBX 12 22 1 -5
BITMAP
3030
3030
0000
0000
0000
F0F0
3030
3030
3030
3030
3030
3030
3030
3030
3030
3030
FC30
0030
0030
0630
0660
03C0
ENDCHAR
STARTCHAR Jcircumflex
ENCODING 308
SWIDTH 556 0
DWIDTH 14 0
BBX 13 23 1 0
BITMAP
0180
03C0
0660
0810
0000
0FF8
01E0
00C0
00C0
00C0
00C0
00C0
00C0
00C0
00C0
00C0
60C0
F0C0
F0C0
E0C0
C180
6380
3E00
ENDCHAR
STARTCHAR jcircumflex
ENCODING 309
SWIDTH 296 0
DWIDTH 8 0
BBX 9 22 -2 -5
BITMAP
0C00
1E00
3300
4080
0000
1E00
0600
0600
0600
0600
0600
0600
0600
0600
0600
0600
0600
0600
0600
C600
CC00
7800
ENDCHAR
STARTCHAR Kcommaaccent
ENCODING 310
SWIDTH 778 0
DWIDTH 20 0
BBX 19 26 1 -8
BITMAP
FE3F80
380E00
180C00
181800
183000
186000
18C000
198000
1B8000
1FC000
1CE000
187000
183800
181C00
180E00
180700
3C0380
FF0FE0
000000
00C000
01E000
01E000
006000
004000
008000
010000
ENDCHAR
STARTCHAR kcommaaccent
ENCODING 311
SWIDTH 593 0
DWIDTH 15 0
BBX 14 26 1 -8
BITMAP
F000
3000
3000
3000
3000
3000
33F0
30C0
3180
3300
3600
3E00
3F00
3380
31C0
30E0
3070
FCFC
0000
0300
0780
0780
0180
0100
0200
0400
ENDCHAR
STARTCHAR kgreenlandic
ENCODING 312
SWIDTH 593 0
DWIDTH 15 0
BBX 14 12 1 0
BITMAP
33F0
30C0
3180
3300
3600
3E00
3F00
3380
31C0
30E0
3070
FCFC
ENDCHAR
STARTCHAR Lacute
ENCODING 313
SWIDTH 667 0
DWIDTH 16 0
BBX 14 23 1 0
BITMAP
0300
0700
0C00
1000
0000
FF00
3C00
1800
1800
1800
1800
1800
1800
1800
1800
1800
1800
1804
1804
1804
180C
381C
FFFC
ENDCHAR
STARTCHAR lacute
ENCODING 314
SWIDTH 315 0
DWIDTH 8 0
BBX 6 23 1 0
BITMAP
0C
1C
30
40
00
F0
30
30
30
30
30
30
30
30
30
30
30
30
30
30
30
30
FC
ENDCHAR
STARTCHAR Lcommaaccent
ENCODING 315
SWIDTH 667 0
DWIDTH 16 0
BBX 14 26 1 -8
BITMAP
FF00
3C00
1800
1800
1800
1800
1800
1800
1800
1800
1800
1800
1804
1804
1804
180C
381C
FFFC
0000
0300
0780
0780
0180
0100
0200
0400
ENDCHAR
STARTCHAR lcommaaccent
ENCODING 316
SWIDTH 315 0
DWIDTH 8 0
BBX 6 26 1 -8
BITMAP
F0
30
30
30
30
30
30
30
30
30
30
30
30
30
30
30
30
FC
00
30
78
78
18
10
20
40
ENDCHAR
STARTCHAR Lcaron
ENCODING 317
SWIDTH 838 0
DWIDTH 21 0
BBX 19 18 1 0
BITMAP
FF00C0
3C01E0
1801E0
180060
180040
180080
180100
180000
180000
180000
180000
180000
180400
180400
180400
180C00
381C00
FFFC00
ENDCHAR
STARTCHAR lcaron
ENCODING 318
SWIDTH 503 0
DWIDTH 14 0
BBX 12 18 1 0
BITMAP
F060
30F0
30F0
3030
3020
3040
3080
3000
3000
3000
3000
3000
3000
3000
3000
3000
3000
FC00
ENDCHAR
STARTCHAR Ldot
ENCODING 319
SWIDTH 912 0
DWIDTH 22 0
BBX 19 18 1 0
BITMAP
FF0000
3C0000
180000
180000
180000
180000
180000
180000
180000
1800E0
1800E0
1800E0
180400
180400
180400
180C00
381C00
FFFC00
ENDCHAR
STARTCHAR ldot
ENCODING 320
SWIDTH 577 0
DWIDTH 15 0
BBX 12 18 1 0
BITMAP
F000
3000
3000
3000
3000
3000
3000
3000
3000
3070
3070
3070
3000
3000
3000
3000
3000
FC00
ENDCHAR
STARTCHAR Lslash
ENCODING 321
SWIDTH 667 0
DWIDTH 16 0
BBX 14 18 1 0
BITMAP
FF00
3800
3800
3800
3800
3800
3A00
3E00
3C00
3800
7800
F800
B804
3804
3804
380C
381C
FFFC
ENDCHAR
STARTCHAR lslash
ENCODING 322
SWIDTH 315 0
DWIDTH 8 0
BBX 6 18 1 0
BITMAP
F0
30
30
30
30
34
38
30
70
B0
30
30
30
30
30
30
30
FC
ENDCHAR
STARTCHAR Nacute
ENCODING 323
SWIDTH 815 0
DWIDTH 21 0
BBX 19 23 1 0
BITMAP
003000
007000
00C000
010000
000000
F80FE0
3C0380
1C0100
1E0100
170100
138100
11C100
10C100
10E100
107100
103100
101900
101D00
100F00
100700
100300
380300
FE0100
ENDCHAR
STARTCHAR nacute
ENCODING 324
SWIDTH 611 0
DWIDTH 14 0
BBX 14 17 0 0
BITMAP
00C0
01C0
0300
0400
0000
F1C0
37E0
3870
3030
3030
3030
3030
3030
3030
3030
3030
FCFC
ENDCHAR
STARTCHAR Ncommaaccent
ENCODING 325
SWIDTH 815 0
DWIDTH 21 0
BBX 19 26 1 -8
BITMAP
F80FE0
3C0380
1C0100
1E0100
170100
138100
11C100
10C100
10E100
107100
103100
101900
101D00
100F00
100700
100300
380300
FE0100
000000
00C000
01E000
01E000
006000
004000
008000
010000
ENDCHAR
STARTCHAR ncommaaccent
ENCODING 326
SWIDTH 611 0
DWIDTH 14 0
BBX 14 20 0 -8
BITMAP
F1C0
37E0
3870
3030
3030
3030
3030
3030
3030
3030
3030
FCFC
0000
0300
0780
0780
0180
0100
0200
0400
ENDCHAR
STARTCHAR Ncaron
ENCODING 327
SWIDTH 815 0
DWIDTH 21 0
BBX 19 23 1 0
BITMAP
040800
033000
01E000
00C000
000000
F80FE0
3C0380
1C0100
1E0100
170100
138100
11C100
10C100
10E100
107100
103100
101900
101D00
100F00
100700
100300
380300
FE0100
ENDCHAR
STARTCHAR ncaron
ENCODING 328
SWIDTH 611 0
DWIDTH 14 0
BBX 14 17 0 0
BITMAP
1020
0CC0
0780
0300
0000
F1C0
37E0
3870
3030
3030
3030
3030
3030
3030
3030
3030
FCFC
ENDCHAR
STARTCHAR napostrophe
ENCODING 329
SWIDTH 805 0
DWIDTH 20 0
BBX 19 18 1 0
BITMAP
600000
F00000
F00000
300000
200000
400000
878E00
01BF00
01C380
018180
018180
018180
018180
018180
018180
018180
018180
07E7E0
ENDCHAR
STARTCHAR Eng
ENCODING 330
SWIDTH 815 0
DWIDTH 21 0
BBX 19 23 1 -5
BITMAP
F80FE0
3C0380
1C0100
1E0100
170100
138100
11C100
10C100
10E100
107100
103100
101900
101D00
100F00
100700
100300
380300
FE0300
000300
000300
006300
006600
003C00
ENDCHAR
STARTCHAR eng
ENCODING 331
SWIDTH 611 0
DWIDTH 14 0
BBX 12 17 0 -5
BITMAP
F1C0
37E0
3870
3030
3030
3030
3030
3030
3030
3030
3030
FC30
0030
0030
0630
0660
03C0
ENDCHAR
STARTCHAR Omacron
ENCODING 332
SWIDTH 778 0
DWIDTH 19 0
BBX 17 21 1 0
BITMAP
07F000
07F000
000000
07F000
1C1C00
300600
700700
600300
E00380
C00180
C00180
C00180
C00180
C00180
C00180
E00380
600300
700700
300600
1C1C00
07F000
ENDCHAR
STARTCHAR omacron
ENCODING 333
SWIDTH 500 0
DWIDTH 13 0
BBX 11 15 1 0
BITMAP
3F80
3F80
0000
1F00
71C0
60C0
E0E0
C060
C060
C060
C060
E0E0
60C0
71C0
1F00
ENDCHAR
STARTCHAR Obreve
ENCODING 334
SWIDTH 778 0
DWIDTH 19 0
BBX 17 22 1 0
BITMAP
021000
033000
01E000
000000
07F000
1C1C00
300600
700700
600300
E00380
C00180
C00180
C00180
C00180
C00180
C00180
E00380
600300
700700
300600
1C1C00
07F000
ENDCHAR
STARTCHAR obreve
ENCODING 335
SWIDTH 500 0
DWIDTH 13 0
BBX 11 16 1 0
BITMAP
1080
1980
0F00
0000
1F00
71C0
60C0
E0E0
C060
C060
C060
C060
E0E0
60C0
71C0
1F00
ENDCHAR
STARTCHAR Ohungarumlaut
ENCODING 336
SWIDTH 778 0
DWIDTH 19 0
BBX 17 23 1 0
BITMAP
018C00
039C00
063000
084000
000000
07F000
1C1C00
300600
700700
600300
E00380
C00180
C00180
C00180
C00180
C00180
C00180
E00380
600300
700700
300600
1C1C00
07F000
ENDCHAR
STARTCHAR ohungarumlaut
ENCODING 337
SWIDTH 500 0
DWIDTH 13 0
BBX 11 17 1 0
BITMAP
0C60
1CE0
3180
4200
0000
1F00
71C0
60C0
E0E0
C060
C060
C060
C060
E0E0
60C0
71C0
1F00
ENDCHAR
STARTCHAR OE
ENCODING 338
SWIDTH 1000 0
DWIDTH 26 0
BBX 24 18 1 0
BITMAP
07FFFF
1C1E07
300E03
700E01
700E01
E00E11
E00E10
E00E30
E00FF0
E00E30
E00E10
E00E10
E00E01
700E01
700E01
300E03
1C1E07
07FFFF
ENDCHAR
STARTCHAR oe
ENCODING 339
SWIDTH 833 0
DWIDTH 22 0
BBX 20 12 1 0
BITMAP
1F0F80
71B8E0
60B060
E0F070
C06030
C07FF0
C06000
C06000
E0F000
60B020
71B860
1F0FC0
ENDCHAR
STARTCHAR Racute
ENCODING 340
SWIDTH 722 0
DWIDTH 18 0
BBX 17 23 1 0
BITMAP
006000
00E000
018000
020000
000000
FFF000
383800
181C00
180C00
180C00
180C00
181800
183000
1FE000
186000
183000
183000
183000
183800
181880
181C80
380F00
FE0E00
ENDCHAR
STARTCHAR racute
ENCODING 341
SWIDTH 444 0
DWIDTH 10 0
BBX 10 17 0 0
BITMAP
0300
0700
0C00
1000
0000
F380
35C0
38C0
3000
3000
3000
3000
3000
3000
3000
3000
FC00
ENDCHAR
STARTCHAR Rcommaaccent
ENCODING 342
SWIDTH 722 0
DWIDTH 18 0
BBX 17 26 1 -8
BITMAP
FFF000
383800
181C00
180C00
180C00
180C00
181800
183000
1FE000
186000
183000
183000
183000
183800
181880
181C80
380F00
FE0E00
000000
00C000
01E000
01E000
006000
004000
008000
010000
ENDCHAR
STARTCHAR rcommaaccent
ENCODING 343
SWIDTH 444 0
DWIDTH 10 0
BBX 10 20 0 -8
BITMAP
F380
35C0
38C0
3000
3000
3000
3000
3000
3000
3000
3000
FC00
0000
1800
3C00
3C00
0C00
0800
1000
2000
ENDCHAR
STARTCHAR Rcaron
ENCODING 344
SWIDTH 722 0
DWIDTH 18 0
BBX 17 23 1 0
BITMAP
081000
066000
03C000
018000
000000
FFF000
383800
181C00
180C00
180C00
180C00
181800
183000
1FE000
186000
183000
183000
183000
183800
181880
181C80
380F00
FE0E00
ENDCHAR
STARTCHAR rcaron
ENCODING 345
SWIDTH 444 0
DWIDTH 10 0
BBX 10 17 0 0
BITMAP
4080
3300
1E00
0C00
0000
F380
35C0
38C0
3000
3000
3000
3000
3000
3000
3000
3000
FC00
ENDCHAR
STARTCHAR Sacute
ENCODING 346
SWIDTH 630 0
DWIDTH 15 0
BBX 13 23 1 0
BITMAP
00C0
01C0
0300
0400
0000
1F90
60F0
4030
C030
C010
E010
F000
7E00
1FC0
07F0
00F8
0038
8018
8018
C018
C030
F070
9FC0
ENDCHAR
STARTCHAR sacute
ENCODING 347
SWIDTH 463 0
DWIDTH 11 0
BBX 9 17 1 0
BITMAP
0600
0E00
1800
2000
0000
3D00
6300
C300
C100
E000
7C00
1F00
0380
8180
C180
C300
BE00
ENDCHAR
STARTCHAR Scircumflex
ENCODING 348
SWIDTH 630 0
DWIDTH 15 0
BBX 13 23 1 0
BITMAP
0300
0780
0CC0
1020
0000
1F90
60F0
4030
C030
C010
E010
F000
7E00
1FC0
07F0
00F8
0038
8018
8018
C018
C030
F070
9FC0
ENDCHAR
STARTCHAR scircumflex
ENCODING 349
SWIDTH 463 0
DWIDTH 11 0
BBX 9 17 1 0
BITMAP
1800
3C00
6600
8100
0000
3D00
6300
C300
C100
E000
7C00
1F00
0380
8180
C180
C300
BE00
ENDCHAR
STARTCHAR Scedilla
ENCODING 350
SWIDTH 630 0
DWIDTH 15 0
BBX 13 22 1 -4
BITMAP
1F90
60F0
4030
C030
C010
E010
F000
7E00
1FC0
07F0
00F8
0038
8018
8018
C018
C030
F070
9FC0
0400
0700
0100
0E00
ENDCHAR
STARTCHAR scedilla
ENCODING 351
SWIDTH 463 0
DWIDTH 11 0
BBX 9 16 1 -4
BITMAP
3D00
6300
C300
C100
E000
7C00
1F00
0380
8180
C180
C300
BE00
1000
1C00
0400
3800
ENDCHAR
STARTCHAR Scaron
ENCODING 352
SWIDTH 630 0
DWIDTH 15 0
BBX 12 18 1 0
BITMAP
2040
1980
0F00
0600
0000
1F90
3870
7030
7010
3800
1E00
0780
81C0
80E0
C070
C070
F0E0
9FC0
ENDCHAR
STARTCHAR scaron
ENCODING 353
SWIDTH 463 0
DWIDTH 11 0
BBX 9 18 1 0
BITMAP
8100
6600
3C00
1800
0000
0000
3D00
6300
C300
C100
E000
7C00
1F00
0380
8180
C180
C300
BE00
ENDCHAR
STARTCHAR Tcommaaccent
ENCODING 354
SWIDTH 667 0
DWIDTH 17 0
BBX 16 22 1 -4
BITMAP
FFFF
E187
C183
8181
8181
8181
0180
0180
0180
0180
0180
0180
0180
0180
0180
0180
03C0
0FF0
0100
01C0
0040
0380
ENDCHAR
STARTCHAR tcommaaccent
ENCODING 355
SWIDTH 389 0
DWIDTH 10 0
BBX 8 20 1 -4
BITMAP
10
10
30
70
FF
30
30
30
30
30
30
30
31
31
39
1E
10
1C
04
38
ENDCHAR
STARTCHAR Tcaron
ENCODING 356
SWIDTH 667 0
DWIDTH 17 0
BBX 16 23 1 0
BITMAP
0810
0660
03C0
0180
0000
FFFF
E187
C183
8181
8181
8181
0180
0180
0180
0180
0180
0180
0180
0180
0180
0180
03C0
0FF0
ENDCHAR
STARTCHAR tcaron
ENCODING 357
SWIDTH 574 0
DWIDTH 16 0
BBX 14 18 1 0
BITMAP
0018
003C
103C
100C
3008
7010
FF20
3000
3000
3000
3000
3000
3000
3000
3100
3100
3900
1E00
ENDCHAR
STARTCHAR Tbar
ENCODING 358
SWIDTH 667 0
DWIDTH 17 0
BBX 16 18 1 0
BITMAP
FFFF
E187
C183
8181
8181
8181
0180
0180
0FF0
0FF0
0180
0180
0180
0180
0180
0180
03C0
0FF0
ENDCHAR
STARTCHAR tbar
ENCODING 359
SWIDTH 389 0
DWIDTH 10 0
BBX 8 16 1 0
BITMAP
10
10
30
70
FF
30
30
30
30
FF
FF
30
31
31
39
1E
ENDCHAR
STARTCHAR Utilde
ENCODING 360
SWIDTH 815 0
DWIDTH 19 0
BBX 18 21 1 0
BITMAP
079000
09E000
000000
FE1FC0
780700
300200
300200
300200
300200
300200
300200
300200
300200
300200
300200
300200
300200
300600
180400
1C1C00
07F000
ENDCHAR
STARTCHAR utilde
ENCODING 361
SWIDTH 611 0
DWIDTH 14 0
BBX 14 15 0 0
BITMAP
0F20
13C0
0000
F0F0
3030
3030
3030
3030
3030
3030
3030
3030
3870
1FB0
0E3C
ENDCHAR
STARTCHAR Umacron
ENCODING 362
SWIDTH 815 0
DWIDTH 19 0
BBX 18 21 1 0
BITMAP
07F000
07F000
000000
FE1FC0
780700
300200
300200
300200
300200
300200
300200
300200
300200
300200
300200
300200
300200
300600
180400
1C1C00
07F000
ENDCHAR
STARTCHAR umacron
ENCODING 363
SWIDTH 611 0
DWIDTH 14 0
BBX 14 15 0 0
BITMAP
1FC0
1FC0
0000
F0F0
3030
3030
3030
3030
3030
3030
3030
3030
3870
1FB0
0E3C
ENDCHAR
STARTCHAR Ubreve
ENCODING 364
SWIDTH 815 0
DWIDTH 19 0
BBX 18 22 1 0
BITMAP
042000
066000
03C000
000000
FE1FC0
780700
300200
300200
300200
300200
300200
300200
300200
300200
300200
300200
300200
300200
300600
180400
1C1C00
07F000
ENDCHAR
STARTCHAR ubreve
ENCODING 365
SWIDTH 611 0
DWIDTH 14 0
BBX 14 16 0 0
BITMAP
0840
0CC0
0780
0000
F0F0
3030
3030
3030
3030
3030
3030
3030
3030
3870
1FB0
0E3C
ENDCHAR
STARTCHAR Uring
ENCODING 366
SWIDTH 815 0
DWIDTH 19 0
BBX 18 24 1 0
BITMAP
01C000
022000
022000
022000
01C000
000000
FE1FC0
780700
300200
300200
300200
300200
300200
300200
300200
300200
300200
300200
300200
300200
300600
180400
1C1C00
07F000
ENDCHAR
STARTCHAR uring
ENCODING 367
SWIDTH 611 0
DWIDTH 14 0
BBX 14 18 0 0
BITMAP
0700
0880
0880
0880
0700
0000
F0F0
3030
3030
3030
3030
3030
3030
3030
3030
3870
1FB0
0E3C
ENDCHAR
STARTCHAR Uhungarumlaut
ENCODING 368
SWIDTH 815 0
DWIDTH 19 0
BBX 18 23 1 0
BITMAP
018C00
039C00
063000
084000
000000
FE1FC0
780700
300200
300200
300200
300200
300200
300200
300200
300200
300200
300200
300200
300200
300600
180400
1C1C00
07F000
ENDCHAR
STARTCHAR uhungarumlaut
ENCODING 369
SWIDTH 611 0
DWIDTH 14 0
BBX 14 17 0 0
BITMAP
0630
0E70
18C0
2100
0000
F0F0
3030
3030
3030
3030
3030
3030
3030
3030
3870
1FB0
0E3C
ENDCHAR
STARTCHAR Uogonek
ENCODING 370
SWIDTH 815 0
DWIDTH 19 0
BBX 18 22 1 -4
BITMAP
FE1FC0
780700
300200
300200
300200
300200
300200
300200
300200
300200
300200
300200
300200
300200
300600
180400
1C1C00
07F000
00C000
018000
01A000
00C000
ENDCHAR
STARTCHAR uogonek
ENCODING 371
SWIDTH 611 0
DWIDTH 14 0
BBX 14 16 0 -4
BITMAP
F0F0
3030
3030
3030
3030
3030
3030
3030
3030
3870
1FB0
0E3C
0180
0300
0340
0180
ENDCHAR
STARTCHAR Wcircumflex
ENCODING 372
SWIDTH 981 0
DWIDTH 25 0
BBX 26 23 0 0
BITMAP
00180000
003C0000
00660000
00810000
00000000
FE3F9FC0
F80C0700
380E0200
180E0200
1C160400
1C170400
0C130400
0E230800
0E238800
06218800
07419000
0741D000
0340D000
0380F000
0380E000
01806000
01806000
01806000
ENDCHAR
STARTCHAR wcircumflex
ENCODING 373
SWIDTH 778 0
DWIDTH 17 0
BBX 19 17 -1 0
BITMAP
00C000
01E000
033000
040800
000000
FCF3E0
306080
306080
30E180
18B100
18B100
19B300
0D1A00
0D1A00
0D1A00
060C00
060C00
ENDCHAR
STARTCHAR Ycircumflex
ENCODING 374
SWIDTH 704 0
DWIDTH 17 0
BBX 19 23 -1 0
BITMAP
00C000
01E000
033000
040800
000000
FE0FE0
3C0380
1C0300
0C0600
0E0400
070C00
030800
019800
01F000
00F000
006000
006000
006000
006000
006000
006000
00F000
03FC00
ENDCHAR
STARTCHAR ycircumflex
ENCODING 375
SWIDTH 537 0
DWIDTH 12 0
BBX 13 22 -1 -5
BITMAP
0600
0F00
1980
2040
0000
7838
3010
1820
1820
1860
0C40
0C40
06C0
0680
0680
0300
0300
0200
0200
C400
EC00
7800
ENDCHAR
STARTCHAR Ydieresis
ENCODING 376
SWIDTH 704 0
DWIDTH 17 0
BBX 17 18 0 0
BITMAP
066000
066000
000000
000000
000000
000000
FC1F80
780E00
380C00
1C1800
0E3000
076000
03C000
01C000
01C000
01C000
01C000
0FF800
ENDCHAR
STARTCHAR Zacute
ENCODING 377
SWIDTH 611 0
DWIDTH 16 0
BBX 14 23 1 0
BITMAP
00C0
01C0
0300
0400
0000
7FF8
7038
6070
4060
40E0
40C0
01C0
0380
0380
0700
0600
0E00
1C04
1804
3804
300C
701C
FFFC
ENDCHAR
STARTCHAR zacute
ENCODING 378
SWIDTH 481 0
DWIDTH 11 0
BBX 9 17 1 0
BITMAP
0300
0700
0C00
1000
0000
FF80
C380
8700
8600
0C00
1C00
1800
3000
7080
E080
C180
FF80
ENDCHAR
STARTCHAR Zdotaccent
ENCODING 379
SWIDTH 611 0
DWIDTH 16 0
BBX 14 21 1 0
BITMAP
0300
0300
0000
7FF8
7038
6070
4060
40E0
40C0
01C0
0380
0380
0700
0600
0E00
1C04
1804
3804
300C
701C
FFFC
ENDCHAR
STARTCHAR zdotaccent
ENCODING 380
SWIDTH 481 0
DWIDTH 11 0
BBX 9 15 1 0
BITMAP
0C00
0C00
0000
FF80
C380
8700
8600
0C00
1C00
1800
3000
7080
E080
C180
FF80
ENDCHAR
STARTCHAR Zcaron
ENCODING 381
SWIDTH 611 0
DWIDTH 16 0
BBX 14 18 1 0
BITMAP
1020
0CC0
0780
0300
0000
0000
7FFC
7038
6070
40E0
01C0
0380
0700
0E00
1C04
380C
701C
FFFC
ENDCHAR
STARTCHAR zcaron
ENCODING 382
SWIDTH 481 0
DWIDTH 11 0
BBX 9 18 1 0
BITMAP
8100
6600
3C00
1800
0000
0000
FF80
C380
8700
8600
0C00
1C00
1800
3000
7080
E080
C180
FF80
ENDCHAR
STARTCHAR uni0186
ENCODING 390
SWIDTH 722 0
DWIDTH 17 0
BBX 15 18 1 0
BITMAP
1FC0
6070
4038
801C
800C
800E
0006
0006
0006
0006
0006
0006
8006
800E
C00C
E018
F070
9FC0
ENDCHAR
STARTCHAR uni0189
ENCODING 393
SWIDTH 778 0
DWIDTH 20 0
BBX 17 18 1 0
BITMAP
FFF000
381C00
180600
180700
180300
180380
180180
180180
FF0180
180180
180180
180180
180380
180300
180700
180600
381C00
FFF000
ENDCHAR
STARTCHAR uni018E
ENCODING 398
SWIDTH 722 0
DWIDTH 16 0
BBX 14 18 1 0
BITMAP
FFFC
E070
C060
8060
8060
0060
1060
1060
1860
1FE0
1860
1060
1060
8060
8060
C060
E070
FFFC
ENDCHAR
STARTCHAR florin
ENCODING 402
SWIDTH 556 0
DWIDTH 13 0
BBX 13 23 0 -5
BITMAP
00F0
0198
0118
0318
0300
0300
0300
1FC0
0600
0600
0600
0600
0600
0600
0C00
0C00
0C00
0C00
0C00
0C00
CC00
C800
7000
ENDCHAR
STARTCHAR uni0197
ENCODING 407
SWIDTH 407 0
DWIDTH 9 0
BBX 8 18 1 0
BITMAP
FF
3C
18
18
18
18
18
18
FF
FF
18
18
18
18
18
18
3C
FF
ENDCHAR
STARTCHAR uni019A
ENCODING 410
SWIDTH 315 0
DWIDTH 8 0
BBX 8 18 0 0
BITMAP
78
18
18
18
18
18
18
18
FF
FF
18
18
18
18
18
18
18
7E
ENDCHAR
STARTCHAR uni019D
ENCODING 413
SWIDTH 815 0
DWIDTH 21 0
BBX 21 23 -1 -5
BITMAP
3E03F8
0F00E0
070040
078040
05C040
04E040
047040
043040
043840
041C40
040C40
040640
040740
0603C0
0601C0
0600C0
0600C0
060040
060000
060000
C60000
CC0000
780000
ENDCHAR
STARTCHAR uni019F
ENCODING 415
SWIDTH 778 0
DWIDTH 19 0
BBX 17 18 1 0
BITMAP
07F000
1C1C00
300600
700700
600300
E00380
C00180
C00180
FFFF80
FFFF80
C00180
C00180
E00380
600300
700700
300600
1C1C00
07F000
ENDCHAR
STARTCHAR Ohorn
ENCODING 416
SWIDTH 778 0
DWIDTH 19 0
BBX 19 18 1 0
BITMAP
07F0C0
1C1DE0
3007E0
700760
600340
E00380
C00180
C00180
C00180
C00180
C00180
C00180
E00380
600300
700700
300600
1C1C00
07F000
ENDCHAR
STARTCHAR ohorn
ENCODING 417
SWIDTH 500 0
DWIDTH 13 0
BBX 14 12 1 0
BITMAP
1F18
71FC
60FC
E0EC
C068
C070
C060
C060
E0E0
60C0
71C0
1F00
ENDCHAR
STARTCHAR uni01A7
ENCODING 423
SWIDTH 630 0
DWIDTH 15 0
BBX 13 18 1 0
BITMAP
4FC0
7830
6010
6018
4018
4038
0078
03F0
1FC0
7F00
F800
E000
C008
C008
C018
6018
7078
1FC8
ENDCHAR
STARTCHAR uni01A8
ENCODING 424
SWIDTH 463 0
DWIDTH 11 0
BBX 9 12 1 0
BITMAP
5E00
6300
6180
4180
0380
1F00
7C00
E000
C080
C180
6180
3E80
ENDCHAR
STARTCHAR uni01AE
ENCODING 430
SWIDTH 667 0
DWIDTH 17 0
BBX 16 23 1 -5
BITMAP
FFFF
E187
C183
8181
8181
8181
0180
0180
0180
0180
0180
0180
0180
0180
0180
0180
0180
0180
0180
0180
018C
00CC
0078
ENDCHAR
STARTCHAR Uhorn
ENCODING 431
SWIDTH 815 0
DWIDTH 19 0
BBX 20 18 1 0
BITMAP
FE1FE0
7807F0
3002F0
300230
300220
300240
300280
300200
300200
300200
300200
300200
300200
300200
300600
180400
1C1C00
07F000
ENDCHAR
STARTCHAR uhorn
ENCODING 432
SWIDTH 611 0
DWIDTH 14 0
BBX 17 12 0 0
BITMAP
F0F300
303780
303780
303180
303100
303200
303400
303000
303000
387000
1FB000
0E3C00
ENDCHAR
STARTCHAR uni01B5
ENCODING 437
SWIDTH 611 0
DWIDTH 16 0
BBX 14 18 1 0
BITMAP
7FF8
7038
6070
4060
40E0
40C0
01C0
0380
1FE0
1FE0
0600
0E00
1C04
1804
3804
300C
701C
FFFC
ENDCHAR
STARTCHAR uni01B6
ENCODING 438
SWIDTH 481 0
DWIDTH 11 0
BBX 9 12 1 0
BITMAP
FF80
C380
8700
8600
0C00
7F80
7F80
3000
7080
E080
C180
FF80
ENDCHAR
STARTCHAR uni01BB
ENCODING 443
SWIDTH 556 0
DWIDTH 13 0
BBX 11 18 1 0
BITMAP
1F80
61C0
C0E0
C060
E060
60E0
00C0
01C0
FFE0
FFE0
0600
0C00
1800
3020
6020
C060
FFE0
FFE0
ENDCHAR
STARTCHAR uni01BC
ENCODING 444
SWIDTH 556 0
DWIDTH 13 0
BBX 11 18 1 0
BITMAP
7FC0
7F80
5E00
4000
4000
4000
4000
5F00
63C0
00C0
0060
0060
6060
E060
E060
C0C0
6180
1F00
ENDCHAR
STARTCHAR uni01C0
ENCODING 448
SWIDTH 606 0
DWIDTH 15 0
BBX 2 18 6 0
BITMAP
C0
C0
C0
C0
C0
C0
C0
C0
C0
C0
C0
C0
C0
C0
C0
C0
C0
C0
ENDCHAR
STARTCHAR uni01C2
ENCODING 450
SWIDTH 606 0
DWIDTH 15 0
BBX 12 18 1 -2
BITMAP
0600
0600
0600
0600
0600
0600
FFF0
FFF0
0600
0600
FFF0
FFF0
0600
0600
0600
0600
0600
0600
ENDCHAR
STARTCHAR uni01C3
ENCODING 451
SWIDTH 296 0
DWIDTH 7 0
BBX 3 18 2 0
BITMAP
60
60
60
60
60
60
60
60
60
60
60
40
40
40
00
E0
E0
E0
ENDCHAR
STARTCHAR uni01CD
ENCODING 461
SWIDTH 722 0
DWIDTH 19 0
BBX 19 23 0 0
BITMAP
040800
033000
01E000
00C000
000000
004000
004000
00C000
00E000
01E000
013000
033000
023800
061800
041C00
0C0C00
0FFE00
180600
100700
300300
300380
600180
F807E0
ENDCHAR
STARTCHAR uni01CE
ENCODING 462
SWIDTH 556 0
DWIDTH 13 0
BBX 12 17 1 0
BITMAP
4080
3300
1E00
0C00
0000
1F00
7180
70C0
60C0
00C0
07C0
38C0
60C0
C0C0
C0C0
E1F0
7E60
ENDCHAR
STARTCHAR uni01CF
ENCODING 463
SWIDTH 407 0
DWIDTH 9 0
BBX 8 23 1 0
BITMAP
81
66
3C
18
00
FF
3C
18
18
18
18
18
18
18
18
18
18
18
18
18
18
3C
FF
ENDCHAR
STARTCHAR uni01D0
ENCODING 464
SWIDTH 315 0
DWIDTH 8 0
BBX 8 17 0 0
BITMAP
81
66
3C
18
00
78
18
18
18
18
18
18
18
18
18
18
7E
ENDCHAR
STARTCHAR uni01D1
ENCODING 465
SWIDTH 778 0
DWIDTH 19 0
BBX 17 23 1 0
BITMAP
040800
033000
01E000
00C000
000000
07F000
1C1C00
300600
700700
600300
E00380
C00180
C00180
C00180
C00180
C00180
C00180
E00380
600300
700700
300600
1C1C00
07F000
ENDCHAR
STARTCHAR uni01D2
ENCODING 466
SWIDTH 500 0
DWIDTH 13 0
BBX 11 17 1 0
BITMAP
2040
1980
0F00
0600
0000
1F00
71C0
60C0
E0E0
C060
C060
C060
C060
E0E0
60C0
71C0
1F00
ENDCHAR
STARTCHAR uni01D3
ENCODING 467
SWIDTH 815 0
DWIDTH 19 0
BBX 18 23 1 0
BITMAP
081000
066000
03C000
018000
000000
FE1FC0
780700
300200
300200
300200
300200
300200
300200
300200
300200
300200
300200
300200
300200
300600
180400
1C1C00
07F000
ENDCHAR
STARTCHAR uni01D4
ENCODING 468
SWIDTH 611 0
DWIDTH 14 0
BBX 14 17 0 0
BITMAP
1020
0CC0
0780
0300
0000
F0F0
3030
3030
3030
3030
3030
3030
3030
3030
3870
1FB0
0E3C
ENDCHAR
STARTCHAR uni01D5
ENCODING 469
SWIDTH 815 0
DWIDTH 19 0
BBX 18 25 1 0
BITMAP
07F000
07F000
000000
061800
061800
061800
000000
FE1FC0
780700
300200
300200
300200
300200
300200
300200
300200
300200
300200
300200
300200
300200
300600
180400
1C1C00
07F000
ENDCHAR
STARTCHAR uni01D6
ENCODING 470
SWIDTH 611 0
DWIDTH 14 0
BBX 14 19 0 0
BITMAP
1FC0
1FC0
0000
0CC0
0CC0
0000
0000
F0F0
3030
3030
3030
3030
3030
3030
3030
3030
3870
1FB0
0E3C
ENDCHAR
STARTCHAR uni01D7
ENCODING 471
SWIDTH 815 0
DWIDTH 19 0
BBX 18 27 1 0
BITMAP
003000
007000
00C000
010000
000000
061800
061800
061800
000000
FE1FC0
780700
300200
300200
300200
300200
300200
300200
300200
300200
300200
300200
300200
300200
300600
180400
1C1C00
07F000
ENDCHAR
STARTCHAR uni01D8
ENCODING 472
SWIDTH 611 0
DWIDTH 14 0
BBX 14 21 0 0
BITMAP
00C0
01C0
0300
0400
0000
0CC0
0CC0
0000
0000
F0F0
3030
3030
3030
3030
3030
3030
3030
3030
3870
1FB0
0E3C
ENDCHAR
STARTCHAR uni01D9
ENCODING 473
SWIDTH 815 0
DWIDTH 19 0
BBX 18 27 1 0
BITMAP
040800
033000
01E000
00C000
000000
061800
061800
061800
000000
FE1FC0
780700
300200
300200
300200
300200
300200
300200
300200
300200
300200
300200
300200
300200
300600
180400
1C1C00
07F000
ENDCHAR
STARTCHAR uni01DA
ENCODING 474
SWIDTH 611 0
DWIDTH 14 0
BBX 14 21 0 0
BITMAP
1020
0CC0
0780
0300
0000
0CC0
0CC0
0000
0000
F0F0
3030
3030
3030
3030
3030
3030
3030
3030
3870
1FB0
0E3C
ENDCHAR
STARTCHAR uni01DB
ENCODING 475
SWIDTH 815 0
DWIDTH 19 0
BBX 18 27 1 0
BITMAP
030000
038000
00C000
002000
000000
061800
061800
061800
000000
FE1FC0
780700
300200
300200
300200
300200
300200
300200
300200
300200
300200
300200
300200
300200
300600
180400
1C1C00
07F000
ENDCHAR
STARTCHAR uni01DC
ENCODING 476
SWIDTH 611 0
DWIDTH 14 0
BBX 14 21 0 0
BITMAP
0C00
0E00
0300
0080
0000
0CC0
0CC0
0000
0000
F0F0
3030
3030
3030
3030
3030
3030
3030
3030
3870
1FB0
0E3C
ENDCHAR
STARTCHAR uni01DD
ENCODING 477
SWIDTH 500 0
DWIDTH 13 0
BBX 11 12 1 0
BITMAP
3F00
61C0
40C0
00E0
0060
0060
FFE0
C060
E0E0
60C0
71C0
1F00
ENDCHAR
STARTCHAR uni01DE
ENCODING 478
SWIDTH 722 0
DWIDTH 19 0
BBX 19 25 0 0
BITMAP
03F800
03F800
000000
031800
031800
031800
000000
004000
004000
00C000
00E000
01E000
013000
033000
023800
061800
041C00
0C0C00
0FFE00
180600
100700
300300
300380
600180
F807E0
ENDCHAR
STARTCHAR uni01DF
ENCODING 479
SWIDTH 556 0
DWIDTH 13 0
BBX 12 19 1 0
BITMAP
3F80
3F80
0000
1980
1980
0000
0000
1F00
7180
70C0
60C0
00C0
07C0
38C0
60C0
C0C0
C0C0
E1F0
7E60
ENDCHAR
STARTCHAR uni01E0
ENCODING 480
SWIDTH 722 0
DWIDTH 19 0
BBX 19 24 0 0
BITMAP
03F800
03F800
000000
00C000
00C000
000000
004000
004000
00C000
00E000
01E000
013000
033000
023800
061800
041C00
0C0C00
0FFE00
180600
100700
300300
300380
600180
F807E0
ENDCHAR
STARTCHAR uni01E1
ENCODING 481
SWIDTH 556 0
DWIDTH 13 0
BBX 12 18 1 0
BITMAP
3F80
3F80
0000
0C00
0C00
0000
1F00
7180
70C0
60C0
00C0
07C0
38C0
60C0
C0C0
C0C0
E1F0
7E60
ENDCHAR
STARTCHAR uni01E2
ENCODING 482
SWIDTH 1000 0
DWIDTH 25 0
BBX 24 21 0 0
BITMAP
001FC0
001FC0
000000
01FFFF
003607
006603
004601
00C601
008611
018610
010630
0307F0
020630
07FE10
040610
0C0601
080601
180601
100603
380E07
FE3FFF
ENDCHAR
STARTCHAR uni01E3
ENCODING 483
SWIDTH 796 0
DWIDTH 21 0
BBX 19 15 1 0
BITMAP
03F800
03F800
000000
1F1F00
71F1C0
60E0C0
00E0E0
00C060
07FFE0
38C000
60C000
C0E000
C0E040
E370C0
7C1F80
ENDCHAR
STARTCHAR uni01E4
ENCODING 484
SWIDTH 778 0
DWIDTH 18 0
BBX 18 18 1 0
BITMAP
07F200
1E1E00
380600
700600
600200
E00200
C00000
C00000
C00000
C00000
C03F80
C00600
E00600
600600
703FC0
383FC0
1E3600
07E200
ENDCHAR
STARTCHAR uni01E5
ENCODING 485
SWIDTH 537 0
DWIDTH 12 0
BBX 13 17 0 -5
BITMAP
1F38
31D8
60C0
60C0
60C0
60C0
3180
1F00
3000
6000
3F00
1FC0
FFF8
FFF8
C060
E0C0
7F80
ENDCHAR
STARTCHAR Gcaron
ENCODING 486
SWIDTH 778 0
DWIDTH 18 0
BBX 17 23 1 0
BITMAP
081000
066000
03C000
018000
000000
07F200
1E1E00
380600
700600
600200
E00200
C00000
C00000
C00000
C00000
C03F80
C00600
E00600
600600
700600
380E00
1E3600
07E200
ENDCHAR
STARTCHAR gcaron
ENCODING 487
SWIDTH 537 0
DWIDTH 12 0
BBX 13 22 0 -5
BITMAP
1020
0CC0
0780
0300
0000
1F38
31D8
60C0
60C0
60C0
60C0
3180
1F00
3000
6000
3F00
1FC0
60E0
C060
C060
E0C0
7F80
ENDCHAR
STARTCHAR uni01E8
ENCODING 488
SWIDTH 778 0
DWIDTH 20 0
BBX 19 23 1 0
BITMAP
040800
033000
01E000
00C000
000000
FE3F80
380E00
180C00
181800
183000
186000
18C000
198000
1B8000
1FC000
1CE000
187000
183800
181C00
180E00
180700
3C0380
FF0FE0
ENDCHAR
STARTCHAR uni01E9
ENCODING 489
SWIDTH 593 0
DWIDTH 15 0
BBX 14 23 1 0
BITMAP
8100
6600
3C00
1800
0000
F000
3000
3000
3000
3000
3000
33F0
30C0
3180
3300
3600
3E00
3F00
3380
31C0
30E0
3070
FCFC
ENDCHAR
STARTCHAR uni01EA
ENCODING 490
SWIDTH 778 0
DWIDTH 19 0
BBX 17 22 1 -4
BITMAP
07F000
1C1C00
300600
700700
600300
E00380
C00180
C00180
C00180
C00180
C00180
C00180
E00380
600300
700700
300600
1C1C00
07F000
00C000
018000
01A000
00C000
ENDCHAR
STARTCHAR uni01EB
ENCODING 491
SWIDTH 500 0
DWIDTH 13 0
BBX 11 16 1 -4
BITMAP
1F00
71C0
60C0
E0E0
C060
C060
C060
C060
E0E0
60C0
71C0
1F00
0600
0C00
0D00
0600
ENDCHAR
STARTCHAR uni01EC
ENCODING 492
SWIDTH 778 0
DWIDTH 19 0
BBX 17 25 1 -4
BITMAP
07F000
07F000
000000
07F000
1C1C00
300600
700700
600300
E00380
C00180
C00180
C00180
C00180
C00180
C00180
E00380
600300
700700
300600
1C1C00
07F000
00C000
018000
01A000
00C000
ENDCHAR
STARTCHAR uni01ED
ENCODING 493
SWIDTH 500 0
DWIDTH 13 0
BBX 11 19 1 -4
BITMAP
3F80
3F80
0000
1F00
71C0
60C0
E0E0
C060
C060
C060
C060
E0E0
60C0
71C0
1F00
0600
0C00
0D00
0600
ENDCHAR
STARTCHAR uni01F0
ENCODING 496
SWIDTH 296 0
DWIDTH 8 0
BBX 9 22 -2 -5
BITMAP
4080
3300
1E00
0C00
0000
1E00
0600
0600
0600
0600
0600
0600
0600
0600
0600
0600
0600
0600
0600
C600
CC00
7800
ENDCHAR
STARTCHAR uni01F4
ENCODING 500
SWIDTH 778 0
DWIDTH 18 0
BBX 17 23 1 0
BITMAP
006000
00E000
018000
020000
000000
07F200
1E1E00
380600
700600
600200
E00200
C00000
C00000
C00000
C00000
C03F80
C00600
E00600
600600
700600
380E00
1E3600
07E200
ENDCHAR
STARTCHAR uni01F5
ENCODING 501
SWIDTH 537 0
DWIDTH 12 0
BBX 13 22 0 -5
BITMAP
00C0
01C0
0300
0400
0000
1F38
31D8
60C0
60C0
60C0
60C0
3180
1F00
3000
6000
3F00
1FC0
60E0
C060
C060
E0C0
7F80
ENDCHAR
STARTCHAR uni01F8
ENCODING 504
SWIDTH 815 0
DWIDTH 21 0
BBX 19 23 1 0
BITMAP
030000
038000
00C000
002000
000000
F80FE0
3C0380
1C0100
1E0100
170100
138100
11C100
10C100
10E100
107100
103100
101900
101D00
100F00
100700
100300
380300
FE0100
ENDCHAR
STARTCHAR uni01F9
ENCODING 505
SWIDTH 611 0
DWIDTH 14 0
BBX 14 17 0 0
BITMAP
1800
1C00
0600
0100
0000
F1C0
37E0
3870
3030
3030
3030
3030
3030
3030
3030
3030
FCFC
ENDCHAR
STARTCHAR Aringacute
ENCODING 506
SWIDTH 722 0
DWIDTH 19 0
BBX 19 28 0 0
BITMAP
003000
007000
00C000
010000
000000
01C000
022000
022000
022000
01C000
000000
004000
00C000
00E000
01E000
013000
033000
023800
061800
041C00
0C0C00
0FFE00
180600
100700
300300
300380
600180
F807E0
ENDCHAR
STARTCHAR aringacute
ENCODING 507
SWIDTH 556 0
DWIDTH 13 0
BBX 12 24 1 0
BITMAP
0180
0380
0600
0800
0000
0E00
1100
1100
1100
0E00
0000
0000
1F00
7180
70C0
60C0
00C0
07C0
38C0
60C0
C0C0
C0C0
E1F0
7E60
ENDCHAR
STARTCHAR AEacute
ENCODING 508
SWIDTH 1000 0
DWIDTH 25 0
BBX 24 23 0 0
BITMAP
0000C0
0001C0
000300
000400
000000
01FFFF
003607
006603
004601
00C601
008611
018610
010630
0307F0
020630
07FE10
040610
0C0601
080601
180601
100603
380E07
FE3FFF
ENDCHAR
STARTCHAR aeacute
ENCODING 509
SWIDTH 796 0
DWIDTH 21 0
BBX 19 17 1 0
BITMAP
001800
003800
006000
008000
000000
1F1F00
71F1C0
60E0C0
00E0E0
00C060
07FFE0
38C000
60C000
C0E000
C0E040
E370C0
7C1F80
ENDCHAR
STARTCHAR Oslashacute
ENCODING 510
SWIDTH 778 0
DWIDTH 19 0
BBX 17 25 1 -1
BITMAP
003000
007000
00C000
010000
000000
000200
07F600
1C1C00
300E00
701F00
603300
E06380
C04180
C0C180
C18180
C30180
C20180
C60180
EC0380
780300
700700
300600
7C1C00
C7F000
800000
ENDCHAR
STARTCHAR oslashacute
ENCODING 511
SWIDTH 500 0
DWIDTH 13 0
BBX 11 19 1 -1
BITMAP
0180
0380
0600
0800
0000
0080
1F80
71C0
62C0
E2E0
C460
C460
C460
C860
E8E0
68C0
71C0
3F00
2000
ENDCHAR
STARTCHAR uni0200
ENCODING 512
SWIDTH 722 0
DWIDTH 19 0
BBX 19 23 0 0
BITMAP
0C6000
0E7000
031800
008400
000000
004000
004000
00C000
00E000
01E000
013000
033000
023800
061800
041C00
0C0C00
0FFE00
180600
100700
300300
300380
600180
F807E0
ENDCHAR
STARTCHAR uni0201
ENCODING 513
SWIDTH 556 0
DWIDTH 13 0
BBX 12 17 1 0
BITMAP
C600
E700
3180
0840
0000
1F00
7180
70C0
60C0
00C0
07C0
38C0
60C0
C0C0
C0C0
E1F0
7E60
ENDCHAR
STARTCHAR uni0202
ENCODING 514
SWIDTH 722 0
DWIDTH 19 0
BBX 19 22 0 0
BITMAP
01E000
033000
021000
000000
004000
004000
00C000
00E000
01E000
013000
033000
023800
061800
041C00
0C0C00
0FFE00
180600
100700
300300
300380
600180
F807E0
ENDCHAR
STARTCHAR uni0203
ENCODING 515
SWIDTH 556 0
DWIDTH 13 0
BBX 12 16 1 0
BITMAP
1E00
3300
2100
0000
1F00
7180
70C0
60C0
00C0
07C0
38C0
60C0
C0C0
C0C0
E1F0
7E60
ENDCHAR
STARTCHAR uni0204
ENCODING 516
SWIDTH 722 0
DWIDTH 16 0
BBX 14 23 1 0
BITMAP
3180
39C0
0C60
0210
0000
FFFC
381C
180C
1804
1804
1820
1820
1860
1FE0
1860
1820
1820
1800
1804
1804
180C
381C
FFFC
ENDCHAR
STARTCHAR uni0205
ENCODING 517
SWIDTH 500 0
DWIDTH 13 0
BBX 11 17 1 0
BITMAP
C600
E700
3180
0840
0000
1F00
71C0
60C0
E0E0
C060
FFE0
C000
C000
E000
6040
70C0
1F80
ENDCHAR
STARTCHAR uni0206
ENCODING 518
SWIDTH 722 0
DWIDTH 16 0
BBX 14 22 1 0
BITMAP
0780
0CC0
0840
0000
FFFC
381C
180C
1804
1804
1820
1820
1860
1FE0
1860
1820
1820
1800
1804
1804
180C
381C
FFFC
ENDCHAR
STARTCHAR uni0207
ENCODING 519
SWIDTH 500 0
DWIDTH 13 0
BBX 11 16 1 0
BITMAP
0F00
1980
1080
0000
1F00
71C0
60C0
E0E0
C060
FFE0
C000
C000
E000
6040
70C0
1F80
ENDCHAR
STARTCHAR uni0208
ENCODING 520
SWIDTH 407 0
DWIDTH 9 0
BBX 10 23 -1 0
BITMAP
C600
E700
3180
0840
0000
3FC0
0F00
0600
0600
0600
0600
0600
0600
0600
0600
0600
0600
0600
0600
0600
0600
0F00
3FC0
ENDCHAR
STARTCHAR uni0209
ENCODING 521
SWIDTH 315 0
DWIDTH 8 0
BBX 10 17 -2 0
BITMAP
C600
E700
3180
0840
0000
1E00
0600
0600
0600
0600
0600
0600
0600
0600
0600
0600
1F80
ENDCHAR
STARTCHAR uni020A
ENCODING 522
SWIDTH 407 0
DWIDTH 9 0
BBX 8 22 1 0
BITMAP
3C
66
42
00
FF
3C
18
18
18
18
18
18
18
18
18
18
18
18
18
18
3C
FF
ENDCHAR
STARTCHAR uni020B
ENCODING 523
SWIDTH 315 0
DWIDTH 8 0
BBX 6 16 1 0
BITMAP
78
CC
84
00
F0
30
30
30
30
30
30
30
30
30
30
FC
ENDCHAR
STARTCHAR uni020C
ENCODING 524
SWIDTH 778 0
DWIDTH 19 0
BBX 17 23 1 0
BITMAP
18C000
1CE000
063000
010800
000000
07F000
1C1C00
300600
700700
600300
E00380
C00180
C00180
C00180
C00180
C00180
C00180
E00380
600300
700700
300600
1C1C00
07F000
ENDCHAR
STARTCHAR uni020D
ENCODING 525
SWIDTH 500 0
DWIDTH 13 0
BBX 11 17 1 0
BITMAP
C600
E700
3180
0840
0000
1F00
71C0
60C0
E0E0
C060
C060
C060
C060
E0E0
60C0
71C0
1F00
ENDCHAR
STARTCHAR uni020E
ENCODING 526
SWIDTH 778 0
DWIDTH 19 0
BBX 17 22 1 0
BITMAP
01E000
033000
021000
000000
07F000
1C1C00
300600
700700
600300
E00380
C00180
C00180
C00180
C00180
C00180
C00180
E00380
600300
700700
300600
1C1C00
07F000
ENDCHAR
STARTCHAR uni020F
ENCODING 527
SWIDTH 500 0
DWIDTH 13 0
BBX 11 16 1 0
BITMAP
0F00
1980
1080
0000
1F00
71C0
60C0
E0E0
C060
C060
C060
C060
E0E0
60C0
71C0
1F00
ENDCHAR
STARTCHAR uni0210
ENCODING 528
SWIDTH 722 0
DWIDTH 18 0
BBX 17 23 1 0
BITMAP
318000
39C000
0C6000
021000
000000
FFF000
383800
181C00
180C00
180C00
180C00
181800
183000
1FE000
186000
183000
183000
183000
183800
181880
181C80
380F00
FE0E00
ENDCHAR
STARTCHAR uni0211
ENCODING 529
SWIDTH 444 0
DWIDTH 10 0
BBX 11 17 -1 0
BITMAP
C600
E700
3180
0840
0000
79C0
1AE0
1C60
1800
1800
1800
1800
1800
1800
1800
1800
7E00
ENDCHAR
STARTCHAR uni0212
ENCODING 530
SWIDTH 722 0
DWIDTH 18 0
BBX 17 22 1 0
BITMAP
03C000
066000
042000
000000
FFF000
383800
181C00
180C00
180C00
180C00
181800
183000
1FE000
186000
183000
183000
183000
183800
181880
181C80
380F00
FE0E00
ENDCHAR
STARTCHAR uni0213
ENCODING 531
SWIDTH 444 0
DWIDTH 10 0
BBX 10 16 0 0
BITMAP
1E00
3300
2100
0000
F380
35C0
38C0
3000
3000
3000
3000
3000
3000
3000
3000
FC00
ENDCHAR
STARTCHAR uni0214
ENCODING 532
SWIDTH 815 0
DWIDTH 19 0
BBX 18 23 1 0
BITMAP
18C000
1CE000
063000
010800
000000
FE1FC0
780700
300200
300200
300200
300200
300200
300200
300200
300200
300200
300200
300200
300200
300600
180400
1C1C00
07F000
ENDCHAR
STARTCHAR uni0215
ENCODING 533
SWIDTH 611 0
DWIDTH 14 0
BBX 14 17 0 0
BITMAP
6300
7380
18C0
0420
0000
F0F0
3030
3030
3030
3030
3030
3030
3030
3030
3870
1FB0
0E3C
ENDCHAR
STARTCHAR uni0216
ENCODING 534
SWIDTH 815 0
DWIDTH 19 0
BBX 18 22 1 0
BITMAP
03C000
066000
042000
000000
FE1FC0
780700
300200
300200
300200
300200
300200
300200
300200
300200
300200
300200
300200
300200
300600
180400
1C1C00
07F000
ENDCHAR
STARTCHAR uni0217
ENCODING 535
SWIDTH 611 0
DWIDTH 14 0
BBX 14 16 0 0
BITMAP
0780
0CC0
0840
0000
F0F0
3030
3030
3030
3030
3030
3030
3030
3030
3870
1FB0
0E3C
ENDCHAR
STARTCHAR Scommaaccent
ENCODING 536
SWIDTH 630 0
DWIDTH 15 0
BBX 13 26 1 -8
BITMAP
1F90
60F0
4030
C030
C010
E010
F000
7E00
1FC0
07F0
00F8
0038
8018
8018
C018
C030
F070
9FC0
0000
0600
0F00
0F00
0300
0200
0400
0800
ENDCHAR
STARTCHAR scommaaccent
ENCODING 537
SWIDTH 463 0
DWIDTH 11 0
BBX 9 20 1 -8
BITMAP
3D00
6300
C300
C100
E000
7C00
1F00
0380
8180
C180
C300
BE00
0000
1800
3C00
3C00
0C00
0800
1000
2000
ENDCHAR
STARTCHAR Tcommaaccent
ENCODING 538
SWIDTH 667 0
DWIDTH 17 0
BBX 16 26 1 -8
BITMAP
FFFF
E187
C183
8181
8181
8181
0180
0180
0180
0180
0180
0180
0180
0180
0180
0180
03C0
0FF0
0000
0180
03C0
03C0
00C0
0080
0100
0200
ENDCHAR
STARTCHAR tcommaaccent
ENCODING 539
SWIDTH 389 0
DWIDTH 10 0
BBX 8 24 1 -8
BITMAP
10
10
30
70
FF
30
30
30
30
30
30
30
31
31
39
1E
00
18
3C
3C
0C
08
10
20
ENDCHAR
STARTCHAR uni021E
ENCODING 542
SWIDTH 833 0
DWIDTH 21 0
BBX 19 23 1 0
BITMAP
020400
019800
00F000
006000
000000
FE0FE0
380380
180300
180300
180300
180300
180300
180300
1FFF00
180300
180300
180300
180300
180300
180300
180300
380380
FE0FE0
ENDCHAR
STARTCHAR uni021F
ENCODING 543
SWIDTH 611 0
DWIDTH 14 0
BBX 14 23 0 0
BITMAP
8100
6600
3C00
1800
0000
F000
3000
3000
3000
3000
3000
31C0
37E0
3870
3030
3030
3030
3030
3030
3030
3030
3030
FCFC
ENDCHAR
STARTCHAR uni0226
ENCODING 550
SWIDTH 722 0
DWIDTH 19 0
BBX 19 21 0 0
BITMAP
00C000
00C000
000000
004000
004000
00C000
00E000
01E000
013000
033000
023800
061800
041C00
0C0C00
0FFE00
180600
100700
300300
300380
600180
F807E0
ENDCHAR
STARTCHAR uni0227
ENCODING 551
SWIDTH 556 0
DWIDTH 13 0
BBX 12 15 1 0
BITMAP
0C00
0C00
0000
1F00
7180
70C0
60C0
00C0
07C0
38C0
60C0
C0C0
C0C0
E1F0
7E60
ENDCHAR
STARTCHAR uni0228
ENCODING 552
SWIDTH 722 0
DWIDTH 16 0
BBX 14 22 1 -4
BITMAP
FFFC
381C
180C
1804
1804
1820
1820
1860
1FE0
1860
1820
1820
1800
1804
1804
180C
381C
FFFC
0200
0380
0080
0700
ENDCHAR
STARTCHAR uni0229
ENCODING 553
SWIDTH 500 0
DWIDTH 13 0
BBX 11 16 1 -4
BITMAP
1F00
71C0
60C0
E0E0
C060
FFE0
C000
C000
E000
6040
70C0
1F80
0800
0E00
0200
1C00
ENDCHAR
STARTCHAR uni022A
ENCODING 554
SWIDTH 778 0
DWIDTH 19 0
BBX 17 25 1 0
BITMAP
07F000
07F000
000000
063000
063000
063000
000000
07F000
1C1C00
300600
700700
600300
E00380
C00180
C00180
C00180
C00180
C00180
C00180
E00380
600300
700700
300600
1C1C00
07F000
ENDCHAR
STARTCHAR uni022B
ENCODING 555
SWIDTH 500 0
DWIDTH 13 0
BBX 11 19 1 0
BITMAP
3F80
3F80
0000
3180
3180
0000
0000
1F00
71C0
60C0
E0E0
C060
C060
C060
C060
E0E0
60C0
71C0
1F00
ENDCHAR
STARTCHAR uni022C
ENCODING 556
SWIDTH 778 0
DWIDTH 19 0
BBX 17 25 1 0
BITMAP
07F000
07F000
000000
031000
05D000
046000
000000
07F000
1C1C00
300600
700700
600300
E00380
C00180
C00180
C00180
C00180
C00180
C00180
E00380
600300
700700
300600
1C1C00
07F000
ENDCHAR
STARTCHAR uni022D
ENCODING 557
SWIDTH 500 0
DWIDTH 13 0
BBX 11 19 1 0
BITMAP
3F80
3F80
0000
1C40
2380
0000
0000
1F00
71C0
60C0
E0E0
C060
C060
C060
C060
E0E0
60C0
71C0
1F00
ENDCHAR
STARTCHAR uni022E
ENCODING 558
SWIDTH 778 0
DWIDTH 19 0
BBX 17 21 1 0
BITMAP
00C000
00C000
000000
07F000
1C1C00
300600
700700
600300
E00380
C00180
C00180
C00180
C00180
C00180
C00180
E00380
600300
700700
300600
1C1C00
07F000
ENDCHAR
STARTCHAR uni022F
ENCODING 559
SWIDTH 500 0
DWIDTH 13 0
BBX 11 15 1 0
BITMAP
0600
0600
0000
1F00
71C0
60C0
E0E0
C060
C060
C060
C060
E0E0
60C0
71C0
1F00
ENDCHAR
STARTCHAR uni0230
ENCODING 560
SWIDTH 778 0
DWIDTH 19 0
BBX 17 24 1 0
BITMAP
07F000
07F000
000000
00C000
00C000
000000
07F000
1C1C00
300600
700700
600300
E00380
C00180
C00180
C00180
C00180
C00180
C00180
E00380
600300
700700
300600
1C1C00
07F000
ENDCHAR
STARTCHAR uni0231
ENCODING 561
SWIDTH 500 0
DWIDTH 13 0
BBX 11 18 1 0
BITMAP
3F80
3F80
0000
0600
0600
0000
1F00
71C0
60C0
E0E0
C060
C060
C060
C060
E0E0
60C0
71C0
1F00
ENDCHAR
STARTCHAR uni0232
ENCODING 562
SWIDTH 704 0
DWIDTH 17 0
BBX 19 21 -1 0
BITMAP
03F800
03F800
000000
FE0FE0
3C0380
1C0300
0C0600
0E0400
070C00
030800
019800
01F000
00F000
006000
006000
006000
006000
006000
006000
00F000
03FC00
ENDCHAR
STARTCHAR uni0233
ENCODING 563
SWIDTH 537 0
DWIDTH 12 0
BBX 13 20 -1 -5
BITMAP
1FC0
1FC0
0000
7838
3010
1820
1820
1860
0C40
0C40
06C0
0680
0680
0300
0300
0200
0200
C400
EC00
7800
ENDCHAR
STARTCHAR uni0250
ENCODING 592
SWIDTH 556 0
DWIDTH 13 0
BBX 12 12 1 0
BITMAP
67E0
F870
3030
3030
3060
31C0
3E00
3000
3060
30E0
18E0
0F80
ENDCHAR
STARTCHAR uni0254
ENCODING 596
SWIDTH 444 0
DWIDTH 12 0
BBX 10 12 1 0
BITMAP
3E00
E380
E180
C1C0
00C0
00C0
00C0
00C0
01C0
8180
C380
7E00
ENDCHAR
STARTCHAR uni0258
ENCODING 600
SWIDTH 500 0
DWIDTH 13 0
BBX 11 12 1 0
BITMAP
1F00
71C0
60C0
E0E0
C060
FFE0
0060
0060
00E0
40C0
61C0
3F00
ENDCHAR
STARTCHAR uni0259
ENCODING 601
SWIDTH 500 0
DWIDTH 13 0
BBX 11 12 1 0
BITMAP
3F00
61C0
40C0
00E0
0060
0060
FFE0
C060
E0E0
60C0
71C0
1F00
ENDCHAR
STARTCHAR uni025F
ENCODING 607
SWIDTH 333 0
DWIDTH 8 0
BBX 9 18 1 -6
BITMAP
1F80
0600
0600
0600
0600
0600
0600
0600
0600
0600
0600
1F80
0600
0600
0600
C600
CC00
7800
ENDCHAR
STARTCHAR uni0265
ENCODING 613
SWIDTH 611 0
DWIDTH 14 0
BBX 14 18 0 -6
BITMAP
FCFC
3030
3030
3030
3030
3030
3030
3030
3030
3870
1FB0
0E30
0030
0030
0030
0030
0030
003C
ENDCHAR
STARTCHAR uni0275
ENCODING 629
SWIDTH 500 0
DWIDTH 13 0
BBX 11 12 1 0
BITMAP
1F00
71C0
60C0
E0E0
C060
FFE0
FFE0
C060
E0E0
60C0
71C0
1F00
ENDCHAR
STARTCHAR uni0279
ENCODING 633
SWIDTH 444 0
DWIDTH 10 0
BBX 10 12 0 0
BITMAP
0FC0
0300
0300
0300
0300
0300
0300
0300
0300
C700
EB00
73C0
ENDCHAR
STARTCHAR uni0287
ENCODING 647
SWIDTH 389 0
DWIDTH 10 0
BBX 8 16 1 0
BITMAP
78
9C
8C
8C
0C
0C
0C
0C
0C
0C
0C
FF
0E
0C
08
08
ENDCHAR
STARTCHAR uni0288
ENCODING 648
SWIDTH 389 0
DWIDTH 10 0
BBX 9 21 1 -5
BITMAP
1000
1000
3000
7000
FF00
3000
3000
3000
3000
3000
3000
3000
3000
3000
3000
3000
3000
3000
3180
1980
0F00
ENDCHAR
STARTCHAR uni0289
ENCODING 649
SWIDTH 611 0
DWIDTH 14 0
BBX 14 12 0 0
BITMAP
F0F0
3030
3030
3030
3030
FFFC
FFFC
3030
3030
3870
1FB0
0E3C
ENDCHAR
STARTCHAR uni028C
ENCODING 652
SWIDTH 537 0
DWIDTH 13 0
BBX 15 12 -1 0
BITMAP
0100
0180
0380
02C0
06C0
0460
0C60
0830
1830
1018
3018
FC7E
ENDCHAR
STARTCHAR uni028D
ENCODING 653
SWIDTH 778 0
DWIDTH 17 0
BBX 19 12 -1 0
BITMAP
060C00
060C00
0B1600
0B1600
0B1600
19B300
11A300
11A300
30E180
20C180
20C180
F9E7E0
ENDCHAR
STARTCHAR uni028E
ENCODING 654
SWIDTH 537 0
DWIDTH 12 0
BBX 13 17 -1 0
BITMAP
00F0
01B8
0118
0200
0200
0600
0600
0B00
0B00
1B00
1180
1180
30C0
20C0
20C0
4060
E0F0
ENDCHAR
STARTCHAR uni029E
ENCODING 670
SWIDTH 593 0
DWIDTH 15 0
BBX 14 18 1 -6
BITMAP
FCFC
3830
1C30
0E30
0730
03F0
01F0
01B0
0330
0630
0C30
3F30
0030
0030
0030
0030
0030
003C
ENDCHAR
STARTCHAR uni02BB
ENCODING 699
SWIDTH 204 0
DWIDTH 6 0
BBX 4 7 1 11
BITMAP
10
20
40
C0
F0
F0
60
ENDCHAR
STARTCHAR afii57929
ENCODING 700
SWIDTH 204 0
DWIDTH 6 0
BBX 4 7 1 11
BITMAP
60
F0
F0
30
20
40
80
ENDCHAR
STARTCHAR afii64937
ENCODING 701
SWIDTH 204 0
DWIDTH 6 0
BBX 4 7 1 11
BITMAP
60
F0
F0
C0
40
20
10
ENDCHAR
STARTCHAR circumflex
ENCODING 710
SWIDTH 333 0
DWIDTH 10 0
BBX 8 4 1 14
BITMAP
18
3C
66
81
ENDCHAR
STARTCHAR caron
ENCODING 711
SWIDTH 333 0
DWIDTH 8 0
BBX 8 4 0 14
BITMAP
81
66
3C
18
ENDCHAR
STARTCHAR uni02C8
ENCODING 712
SWIDTH 204 0
DWIDTH 6 0
BBX 2 6 2 12
BITMAP
C0
C0
C0
C0
C0
C0
ENDCHAR
STARTCHAR macron
ENCODING 713
SWIDTH 333 0
DWIDTH 9 0
BBX 7 2 1 14
BITMAP
FE
FE
ENDCHAR
STARTCHAR uni02CA
ENCODING 714
SWIDTH 333 0
DWIDTH 8 0
BBX 5 4 2 14
BITMAP
18
38
60
80
ENDCHAR
STARTCHAR uni02CB
ENCODING 715
SWIDTH 333 0
DWIDTH 8 0
BBX 5 4 1 14
BITMAP
C0
E0
30
08
ENDCHAR
STARTCHAR uni02CD
ENCODING 717
SWIDTH 333 0
DWIDTH 9 0
BBX 7 2 1 -3
BITMAP
FE
FE
ENDCHAR
STARTCHAR uni02CE
ENCODING 718
SWIDTH 333 0
DWIDTH 8 0
BBX 5 4 1 -5
BITMAP
C0
E0
30
08
ENDCHAR
STARTCHAR uni02CF
ENCODING 719
SWIDTH 333 0
DWIDTH 8 0
BBX 5 4 2 -5
BITMAP
18
38
60
80
ENDCHAR
STARTCHAR breve
ENCODING 728
SWIDTH 333 0
DWIDTH 8 0
BBX 6 3 1 14
BITMAP
84
CC
78
ENDCHAR
STARTCHAR dotaccent
ENCODING 729
SWIDTH 333 0
DWIDTH 6 0
BBX 2 2 2 14
BITMAP
C0
C0
ENDCHAR
STARTCHAR ring
ENCODING 730
SWIDTH 333 0
DWIDTH 7 0
BBX 5 5 1 14
BITMAP
70
88
88
88
70
ENDCHAR
STARTCHAR ogonek
ENCODING 731
SWIDTH 333 0
DWIDTH 8 0
BBX 4 4 2 -4
BITMAP
60
C0
D0
60
ENDCHAR
STARTCHAR tilde
ENCODING 732
SWIDTH 333 0
DWIDTH 10 0
BBX 8 2 1 14
BITMAP
79
9E
ENDCHAR
STARTCHAR hungarumlaut
ENCODING 733
SWIDTH 333 0
DWIDTH 12 0
BBX 10 4 1 14
BITMAP
18C0
39C0
6300
8400
ENDCHAR
STARTCHAR uni02EE
ENCODING 750
SWIDTH 389 0
DWIDTH 11 0
BBX 9 7 1 11
BITMAP
6300
F780
F780
3180
2100
4200
8400
ENDCHAR
STARTCHAR uni037E
ENCODING 894
SWIDTH 278 0
DWIDTH 7 0
BBX 4 16 2 -4
BITMAP
E0
E0
E0
00
00
00
00
00
00
60
F0
F0
30
20
40
80
ENDCHAR
STARTCHAR tonos
ENCODING 900
SWIDTH 333 0
DWIDTH 8 0
BBX 5 4 2 14
BITMAP
18
38
60
80
ENDCHAR
STARTCHAR dieresistonos
ENCODING 901
SWIDTH 333 0
DWIDTH 8 0
BBX 6 7 1 14
BITMAP
0C
1C
30
40
00
CC
CC
ENDCHAR
STARTCHAR anoteleia
ENCODING 903
SWIDTH 278 0
DWIDTH 7 0
BBX 3 3 2 6
BITMAP
E0
E0
E0
ENDCHAR
STARTCHAR mu
ENCODING 956
SWIDTH 611 0
DWIDTH 14 0
BBX 14 17 0 -5
BITMAP
F0F0
3030
3030
3030
3030
3030
3030
3030
3030
3870
3FB0
2E3C
2000
2000
6000
7000
2000
ENDCHAR
STARTCHAR uni1E00
ENCODING 7680
SWIDTH 722 0
DWIDTH 19 0
BBX 19 24 0 -6
BITMAP
004000
004000
00C000
00E000
01E000
013000
033000
023800
061800
041C00
0C0C00
0FFE00
180600
100700
300300
300380
600180
F807E0
000000
00E000
011000
011000
011000
00E000
ENDCHAR
STARTCHAR uni1E01
ENCODING 7681
SWIDTH 556 0
DWIDTH 13 0
BBX 12 18 1 -6
BITMAP
1F00
7180
70C0
60C0
00C0
07C0
38C0
60C0
C0C0
C0C0
E1F0
7E60
0000
0E00
1100
1100
1100
0E00
ENDCHAR
STARTCHAR uni1E02
ENCODING 7682
SWIDTH 722 0
DWIDTH 18 0
BBX 15 21 1 0
BITMAP
0300
0300
0000
FFE0
3838
180C
180C
180C
180C
1818
1830
1FE0
1838
180C
1806
1806
1806
1806
180E
381C
FFF0
ENDCHAR
STARTCHAR uni1E03
ENCODING 7683
SWIDTH 556 0
DWIDTH 14 0
BBX 13 21 0 0
BITMAP
1800
1800
0000
F000
3000
3000
3000
3000
3000
37C0
3C70
3830
3038
3018
3018
3018
3018
3038
3830
3C70
27C0
ENDCHAR
STARTCHAR uni1E04
ENCODING 7684
SWIDTH 722 0
DWIDTH 18 0
BBX 15 21 1 -3
BITMAP
FFE0
3838
180C
180C
180C
180C
1818
1830
1FE0
1838
180C
1806
1806
1806
1806
180E
381C
FFF0
0000
0180
0180
ENDCHAR
STARTCHAR uni1E05
ENCODING 7685
SWIDTH 556 0
DWIDTH 14 0
BBX 13 21 0 -3
BITMAP
F000
3000
3000
3000
3000
3000
37C0
3C70
3830
3038
3018
3018
3018
3018
3038
3830
3C70
27C0
0000
0300
0300
ENDCHAR
STARTCHAR uni1E06
ENCODING 7686
SWIDTH 722 0
DWIDTH 18 0
BBX 15 21 1 -3
BITMAP
FFE0
3838
180C
180C
180C
180C
1818
1830
1FE0
1838
180C
1806
1806
1806
1806
180E
381C
FFF0
0000
0FE0
0FE0
ENDCHAR
STARTCHAR uni1E07
ENCODING 7687
SWIDTH 556 0
DWIDTH 14 0
BBX 13 21 0 -3
BITMAP
F000
3000
3000
3000
3000
3000
37C0
3C70
3830
3038
3018
3018
3018
3018
3038
3830
3C70
27C0
0000
1FC0
1FC0
ENDCHAR
STARTCHAR uni1E08
ENCODING 7688
SWIDTH 722 0
DWIDTH 17 0
BBX 15 27 1 -4
BITMAP
0060
00E0
0180
0200
0000
07F2
1E1E
3806
7002
6002
E002
C000
C000
C000
C000
C000
C000
E000
6002
7002
3806
1C1C
07F0
0100
01C0
0040
0780
ENDCHAR
STARTCHAR uni1E09
ENCODING 7689
SWIDTH 444 0
DWIDTH 12 0
BBX 10 21 1 -4
BITMAP
0300
0700
0C00
1000
0000
1F00
71C0
61C0
E0C0
C000
C000
C000
C000
E000
6040
70C0
1F80
0800
0E00
0200
1C00
ENDCHAR
STARTCHAR uni1E0A
ENCODING 7690
SWIDTH 778 0
DWIDTH 20 0
BBX 17 21 1 0
BITMAP
018000
018000
000000
FFF000
381C00
180600
180700
180300
180380
180180
180180
180180
180180
180180
180180
180380
180300
180700
180600
381C00
FFF000
ENDCHAR
STARTCHAR uni1E0B
ENCODING 7691
SWIDTH 574 0
DWIDTH 14 0
BBX 13 21 1 0
BITMAP
00C0
00C0
0000
01E0
0060
0060
0060
0060
0060
1E60
71E0
60E0
E060
C060
C060
C060
C060
E060
60E0
71E0
1F78
ENDCHAR
STARTCHAR uni1E0C
ENCODING 7692
SWIDTH 778 0
DWIDTH 20 0
BBX 17 21 1 -3
BITMAP
FFF000
381C00
180600
180700
180300
180380
180180
180180
180180
180180
180180
180180
180380
180300
180700
180600
381C00
FFF000
000000
018000
018000
ENDCHAR
STARTCHAR uni1E0D
ENCODING 7693
SWIDTH 574 0
DWIDTH 14 0
BBX 13 21 1 -3
BITMAP
01E0
0060
0060
0060
0060
0060
1E60
71E0
60E0
E060
C060
C060
C060
C060
E060
60E0
71E0
1F78
0000
0600
0600
ENDCHAR
STARTCHAR uni1E0E
ENCODING 7694
SWIDTH 778 0
DWIDTH 20 0
BBX 17 21 1 -3
BITMAP
FFF000
381C00
180600
180700
180300
180380
180180
180180
180180
180180
180180
180180
180380
180300
180700
180600
381C00
FFF000
000000
07F000
07F000
ENDCHAR
STARTCHAR uni1E0F
ENCODING 7695
SWIDTH 574 0
DWIDTH 14 0
BBX 13 21 1 -3
BITMAP
01E0
0060
0060
0060
0060
0060
1E60
71E0
60E0
E060
C060
C060
C060
C060
E060
60E0
71E0
1F78
0000
1FC0
1FC0
ENDCHAR
STARTCHAR uni1E10
ENCODING 7696
SWIDTH 778 0
DWIDTH 20 0
BBX 17 22 1 -4
BITMAP
FFF000
381C00
180600
180700
180300
180380
180180
180180
180180
180180
180180
180180
180380
180300
180700
180600
381C00
FFF000
010000
01C000
004000
038000
ENDCHAR
STARTCHAR uni1E11
ENCODING 7697
SWIDTH 574 0
DWIDTH 14 0
BBX 13 22 1 -4
BITMAP
01E0
0060
0060
0060
0060
0060
1E60
71E0
60E0
E060
C060
C060
C060
C060
E060
60E0
71E0
1F78
0400
0700
0100
0E00
ENDCHAR
STARTCHAR uni1E12
ENCODING 7698
SWIDTH 778 0
DWIDTH 20 0
BBX 17 23 1 -5
BITMAP
FFF000
381C00
180600
180700
180300
180380
180180
180180
180180
180180
180180
180180
180380
180300
180700
180600
381C00
FFF000
000000
018000
03C000
066000
081000
ENDCHAR
STARTCHAR uni1E13
ENCODING 7699
SWIDTH 574 0
DWIDTH 14 0
BBX 13 23 1 -5
BITMAP
01E0
0060
0060
0060
0060
0060
1E60
71E0
60E0
E060
C060
C060
C060
C060
E060
60E0
71E0
1F78
0000
0600
0F00
1980
2040
ENDCHAR
STARTCHAR uni1E14
ENCODING 7700
SWIDTH 722 0
DWIDTH 16 0
BBX 14 26 1 0
BITMAP
0C00
0E00
0300
0080
0000
0FE0
0FE0
0000
FFFC
381C
180C
1804
1804
1820
1820
1860
1FE0
1860
1820
1820
1800
1804
1804
180C
381C
FFFC
ENDCHAR
STARTCHAR uni1E15
ENCODING 7701
SWIDTH 500 0
DWIDTH 13 0
BBX 11 20 1 0
BITMAP
3000
3800
0C00
0200
0000
3F80
3F80
0000
1F00
71C0
60C0
E0E0
C060
FFE0
C000
C000
E000
6040
70C0
1F80
ENDCHAR
STARTCHAR uni1E16
ENCODING 7702
SWIDTH 722 0
DWIDTH 16 0
BBX 14 26 1 0
BITMAP
0060
00E0
0180
0200
0000
0FE0
0FE0
0000
FFFC
381C
180C
1804
1804
1820
1820
1860
1FE0
1860
1820
1820
1800
1804
1804
180C
381C
FFFC
ENDCHAR
STARTCHAR uni1E17
ENCODING 7703
SWIDTH 500 0
DWIDTH 13 0
BBX 11 20 1 0
BITMAP
0180
0380
0600
0800
0000
3F80
3F80
0000
1F00
71C0
60C0
E0E0
C060
FFE0
C000
C000
E000
6040
70C0
1F80
ENDCHAR
STARTCHAR uni1E18
ENCODING 7704
SWIDTH 722 0
DWIDTH 16 0
BBX 14 23 1 -5
BITMAP
FFFC
381C
180C
1804
1804
1820
1820
1860
1FE0
1860
1820
1820
1800
1804
1804
180C
381C
FFFC
0000
0300
0780
0CC0
1020
ENDCHAR
STARTCHAR uni1E19
ENCODING 7705
SWIDTH 500 0
DWIDTH 13 0
BBX 11 17 1 -5
BITMAP
1F00
71C0
60C0
E0E0
C060
FFE0
C000
C000
E000
6040
70C0
1F80
0000
0C00
1E00
3300
4080
ENDCHAR
STARTCHAR uni1E1A
ENCODING 7706
SWIDTH 722 0
DWIDTH 16 0
BBX 14 21 1 -3
BITMAP
FFFC
381C
180C
1804
1804
1820
1820
1860
1FE0
1860
1820
1820
1800
1804
1804
180C
381C
FFFC
0000
0F20
13C0
ENDCHAR
STARTCHAR uni1E1B
ENCODING 7707
SWIDTH 500 0
DWIDTH 13 0
BBX 11 15 1 -3
BITMAP
1F00
71C0
60C0
E0E0
C060
FFE0
C000
C000
E000
6040
70C0
1F80
0000
3C80
4F00
ENDCHAR
STARTCHAR uni1E1C
ENCODING 7708
SWIDTH 722 0
DWIDTH 16 0
BBX 14 26 1 -4
BITMAP
0840
0CC0
0780
0000
FFFC
381C
180C
1804
1804
1820
1820
1860
1FE0
1860
1820
1820
1800
1804
1804
180C
381C
FFFC
0200
0380
0080
0700
ENDCHAR
STARTCHAR uni1E1D
ENCODING 7709
SWIDTH 500 0
DWIDTH 13 0
BBX 11 20 1 -4
BITMAP
1080
1980
0F00
0000
1F00
71C0
60C0
E0E0
C060
FFE0
C000
C000
E000
6040
70C0
1F80
0800
0E00
0200
1C00
ENDCHAR
STARTCHAR uni1E1E
ENCODING 7710
SWIDTH 667 0
DWIDTH 16 0
BBX 14 21 1 0
BITMAP
0300
0300
0000
FFFC
381C
180C
1804
1804
1820
1820
1860
1FE0
1860
1820
1820
1800
1800
1800
1800
3C00
FF00
ENDCHAR
STARTCHAR uni1E1F
ENCODING 7711
SWIDTH 333 0
DWIDTH 8 0
BBX 9 21 1 0
BITMAP
0C00
0C00
0000
0F00
1980
3180
3000
3000
3000
FC00
3000
3000
3000
3000
3000
3000
3000
3000
3000
3000
FC00
ENDCHAR
STARTCHAR uni1E20
ENCODING 7712
SWIDTH 778 0
DWIDTH 18 0
BBX 17 21 1 0
BITMAP
07F000
07F000
000000
07F200
1E1E00
380600
700600
600200
E00200
C00000
C00000
C00000
C00000
C03F80
C00600
E00600
600600
700600
380E00
1E3600
07E200
ENDCHAR
STARTCHAR uni1E21
ENCODING 7713
SWIDTH 537 0
DWIDTH 12 0
BBX 13 20 0 -5
BITMAP
1FC0
1FC0
0000
1F38
31D8
60C0
60C0
60C0
60C0
3180
1F00
3000
6000
3F00
1FC0
60E0
C060
C060
E0C0
7F80
ENDCHAR
STARTCHAR uni1E22
ENCODING 7714
SWIDTH 833 0
DWIDTH 21 0
BBX 19 21 1 0
BITMAP
006000
006000
000000
FE0FE0
380380
180300
180300
180300
180300
180300
180300
1FFF00
180300
180300
180300
180300
180300
180300
180300
380380
FE0FE0
ENDCHAR
STARTCHAR uni1E23
ENCODING 7715
SWIDTH 611 0
DWIDTH 14 0
BBX 14 21 0 0
BITMAP
1800
1800
0000
F000
3000
3000
3000
3000
3000
31C0
37E0
3870
3030
3030
3030
3030
3030
3030
3030
3030
FCFC
ENDCHAR
STARTCHAR uni1E24
ENCODING 7716
SWIDTH 833 0
DWIDTH 21 0
BBX 19 21 1 -3
BITMAP
FE0FE0
380380
180300
180300
180300
180300
180300
180300
1FFF00
180300
180300
180300
180300
180300
180300
180300
380380
FE0FE0
000000
006000
006000
ENDCHAR
STARTCHAR uni1E25
ENCODING 7717
SWIDTH 611 0
DWIDTH 14 0
BBX 14 21 0 -3
BITMAP
F000
3000
3000
3000
3000
3000
31C0
37E0
3870
3030
3030
3030
3030
3030
3030
3030
3030
FCFC
0000
0300
0300
ENDCHAR
STARTCHAR uni1E26
ENCODING 7718
SWIDTH 833 0
DWIDTH 21 0
BBX 19 21 1 0
BITMAP
019800
019800
000000
FE0FE0
380380
180300
180300
180300
180300
180300
180300
1FFF00
180300
180300
180300
180300
180300
180300
180300
380380
FE0FE0
ENDCHAR
STARTCHAR uni1E27
ENCODING 7719
SWIDTH 611 0
DWIDTH 14 0
BBX 14 21 0 0
BITMAP
6600
6600
0000
F000
3000
3000
3000
3000
3000
31C0
37E0
3870
3030
3030
3030
3030
3030
3030
3030
3030
FCFC
ENDCHAR
STARTCHAR uni1E28
ENCODING 7720
SWIDTH 833 0
DWIDTH 21 0
BBX 19 22 1 -4
BITMAP
FE0FE0
380380
180300
180300
180300
180300
180300
180300
1FFF00
180300
180300
180300
180300
180300
180300
180300
380380
FE0FE0
008000
00E000
002000
01C000
ENDCHAR
STARTCHAR uni1E29
ENCODING 7721
SWIDTH 611 0
DWIDTH 14 0
BBX 14 22 0 -4
BITMAP
F000
3000
3000
3000
3000
3000
31C0
37E0
3870
3030
3030
3030
3030
3030
3030
3030
3030
FCFC
0200
0380
0080
0700
ENDCHAR
STARTCHAR uni1E2A
ENCODING 7722
SWIDTH 833 0
DWIDTH 21 0
BBX 19 22 1 -4
BITMAP
FE0FE0
380380
180300
180300
180300
180300
180300
180300
1FFF00
180300
180300
180300
180300
180300
180300
180300
380380
FE0FE0
000000
010800
019800
00F000
ENDCHAR
STARTCHAR uni1E2B
ENCODING 7723
SWIDTH 611 0
DWIDTH 14 0
BBX 14 22 0 -4
BITMAP
F000
3000
3000
3000
3000
3000
31C0
37E0
3870
3030
3030
3030
3030
3030
3030
3030
3030
FCFC
0000
0840
0CC0
0780
ENDCHAR
STARTCHAR uni1E2C
ENCODING 7724
SWIDTH 407 0
DWIDTH 9 0
BBX 8 21 1 -3
BITMAP
FF
3C
18
18
18
18
18
18
18
18
18
18
18
18
18
18
3C
FF
00
79
9E
ENDCHAR
STARTCHAR uni1E2D
ENCODING 7725
SWIDTH 315 0
DWIDTH 8 0
BBX 8 20 0 -3
BITMAP
18
18
00
00
00
78
18
18
18
18
18
18
18
18
18
18
7E
00
79
9E
ENDCHAR
STARTCHAR uni1E2E
ENCODING 7726
SWIDTH 407 0
DWIDTH 9 0
BBX 8 27 1 0
BITMAP
06
0E
18
20
00
C3
C3
C3
00
FF
3C
18
18
18
18
18
18
18
18
18
18
18
18
18
18
3C
FF
ENDCHAR
STARTCHAR uni1E2F
ENCODING 7727
SWIDTH 315 0
DWIDTH 8 0
BBX 6 21 1 0
BITMAP
0C
1C
30
40
00
CC
CC
00
00
F0
30
30
30
30
30
30
30
30
30
30
FC
ENDCHAR
STARTCHAR uni1E30
ENCODING 7728
SWIDTH 778 0
DWIDTH 20 0
BBX 19 23 1 0
BITMAP
003000
007000
00C000
010000
000000
FE3F80
380E00
180C00
181800
183000
186000
18C000
198000
1B8000
1FC000
1CE000
187000
183800
181C00
180E00
180700
3C0380
FF0FE0
ENDCHAR
STARTCHAR uni1E31
ENCODING 7729
SWIDTH 593 0
DWIDTH 15 0
BBX 14 23 1 0
BITMAP
0600
0E00
1800
2000
0000
F000
3000
3000
3000
3000
3000
33F0
30C0
3180
3300
3600
3E00
3F00
3380
31C0
30E0
3070
FCFC
ENDCHAR
STARTCHAR uni1E32
ENCODING 7730
SWIDTH 778 0
DWIDTH 20 0
BBX 19 21 1 -3
BITMAP
FE3F80
380E00
180C00
181800
183000
186000
18C000
198000
1B8000
1FC000
1CE000
187000
183800
181C00
180E00
180700
3C0380
FF0FE0
000000
00C000
00C000
ENDCHAR
STARTCHAR uni1E33
ENCODING 7731
SWIDTH 593 0
DWIDTH 15 0
BBX 14 21 1 -3
BITMAP
F000
3000
3000
3000
3000
3000
33F0
30C0
3180
3300
3600
3E00
3F00
3380
31C0
30E0
3070
FCFC
0000
0300
0300
ENDCHAR
STARTCHAR uni1E34
ENCODING 7732
SWIDTH 778 0
DWIDTH 20 0
BBX 19 21 1 -3
BITMAP
FE3F80
380E00
180C00
181800
183000
186000
18C000
198000
1B8000
1FC000
1CE000
187000
183800
181C00
180E00
180700
3C0380
FF0FE0
000000
03F800
03F800
ENDCHAR
STARTCHAR uni1E35
ENCODING 7733
SWIDTH 593 0
DWIDTH 15 0
BBX 14 21 1 -3
BITMAP
F000
3000
3000
3000
3000
3000
33F0
30C0
3180
3300
3600
3E00
3F00
3380
31C0
30E0
3070
FCFC
0000
1FC0
1FC0
ENDCHAR
STARTCHAR uni1E36
ENCODING 7734
SWIDTH 667 0
DWIDTH 16 0
BBX 14 21 1 -3
BITMAP
FF00
3C00
1800
1800
1800
1800
1800
1800
1800
1800
1800
1800
1804
1804
1804
180C
381C
FFFC
0000
0300
0300
ENDCHAR
STARTCHAR uni1E37
ENCODING 7735
SWIDTH 315 0
DWIDTH 8 0
BBX 6 21 1 -3
BITMAP
F0
30
30
30
30
30
30
30
30
30
30
30
30
30
30
30
30
FC
00
30
30
ENDCHAR
STARTCHAR uni1E38
ENCODING 7736
SWIDTH 667 0
DWIDTH 16 0
BBX 14 24 1 -3
BITMAP
3F80
3F80
0000
FF00
3C00
1800
1800
1800
1800
1800
1800
1800
1800
1800
1800
1804
1804
1804
180C
381C
FFFC
0000
0300
0300
ENDCHAR
STARTCHAR uni1E39
ENCODING 7737
SWIDTH 315 0
DWIDTH 8 0
BBX 7 24 0 -3
BITMAP
FE
FE
00
78
18
18
18
18
18
18
18
18
18
18
18
18
18
18
18
18
7E
00
18
18
ENDCHAR
STARTCHAR uni1E3A
ENCODING 7738
SWIDTH 667 0
DWIDTH 16 0
BBX 14 21 1 -3
BITMAP
FF00
3C00
1800
1800
1800
1800
1800
1800
1800
1800
1800
1800
1804
1804
1804
180C
381C
FFFC
0000
0FE0
0FE0
ENDCHAR
STARTCHAR uni1E3B
ENCODING 7739
SWIDTH 315 0
DWIDTH 8 0
BBX 7 21 1 -3
BITMAP
F0
30
30
30
30
30
30
30
30
30
30
30
30
30
30
30
30
FC
00
FE
FE
ENDCHAR
STARTCHAR uni1E3C
ENCODING 7740
SWIDTH 667 0
DWIDTH 16 0
BBX 14 23 1 -5
BITMAP
FF00
3C00
1800
1800
1800
1800
1800
1800
1800
1800
1800
1800
1804
1804
1804
180C
381C
FFFC
0000
0300
0780
0CC0
1020
ENDCHAR
STARTCHAR uni1E3D
ENCODING 7741
SWIDTH 315 0
DWIDTH 8 0
BBX 8 23 0 -5
BITMAP
78
18
18
18
18
18
18
18
18
18
18
18
18
18
18
18
18
7E
00
18
3C
66
81
ENDCHAR
STARTCHAR uni1E3E
ENCODING 7742
SWIDTH 944 0
DWIDTH 23 0
BBX 21 23 1 0
BITMAP
000C00
001C00
003000
004000
000000
FC01F8
3C01E0
1C03C0
1602C0
1602C0
1706C0
1304C0
1304C0
138CC0
1188C0
1188C0
11C8C0
10D0C0
10D0C0
1070C0
1060C0
3821E0
FE27F8
ENDCHAR
STARTCHAR uni1E3F
ENCODING 7743
SWIDTH 889 0
DWIDTH 22 0
BBX 22 17 0 0
BITMAP
000C00
001C00
003000
004000
000000
F1C1C0
37E7E0
387870
303030
303030
303030
303030
303030
303030
303030
303030
FCFCFC
ENDCHAR
STARTCHAR uni1E40
ENCODING 7744
SWIDTH 944 0
DWIDTH 23 0
BBX 21 21 1 0
BITMAP
003000
003000
000000
FC01F8
3C01E0
1C03C0
1602C0
1602C0
1706C0
1304C0
1304C0
138CC0
1188C0
1188C0
11C8C0
10D0C0
10D0C0
1070C0
1060C0
3821E0
FE27F8
ENDCHAR
STARTCHAR uni1E41
ENCODING 7745
SWIDTH 889 0
DWIDTH 22 0
BBX 22 15 0 0
BITMAP
006000
006000
000000
F1C1C0
37E7E0
387870
303030
303030
303030
303030
303030
303030
303030
303030
FCFCFC
ENDCHAR
STARTCHAR uni1E42
ENCODING 7746
SWIDTH 944 0
DWIDTH 23 0
BBX 21 21 1 -3
BITMAP
FC01F8
3C01E0
1C03C0
1602C0
1602C0
1706C0
1304C0
1304C0
138CC0
1188C0
1188C0
11C8C0
10D0C0
10D0C0
1070C0
1060C0
3821E0
FE27F8
000000
003000
003000
ENDCHAR
STARTCHAR uni1E43
ENCODING 7747
SWIDTH 889 0
DWIDTH 22 0
BBX 22 15 0 -3
BITMAP
F1C1C0
37E7E0
387870
303030
303030
303030
303030
303030
303030
303030
303030
FCFCFC
000000
003000
003000
ENDCHAR
STARTCHAR uni1E44
ENCODING 7748
SWIDTH 815 0
DWIDTH 21 0
BBX 19 21 1 0
BITMAP
00C000
00C000
000000
F80FE0
3C0380
1C0100
1E0100
170100
138100
11C100
10C100
10E100
107100
103100
101900
101D00
100F00
100700
100300
380300
FE0100
ENDCHAR
STARTCHAR uni1E45
ENCODING 7749
SWIDTH 611 0
DWIDTH 14 0
BBX 14 15 0 0
BITMAP
0300
0300
0000
F1C0
37E0
3870
3030
3030
3030
3030
3030
3030
3030
3030
FCFC
ENDCHAR
STARTCHAR uni1E46
ENCODING 7750
SWIDTH 815 0
DWIDTH 21 0
BBX 19 21 1 -3
BITMAP
F80FE0
3C0380
1C0100
1E0100
170100
138100
11C100
10C100
10E100
107100
103100
101900
101D00
100F00
100700
100300
380300
FE0100
000000
00C000
00C000
ENDCHAR
STARTCHAR uni1E47
ENCODING 7751
SWIDTH 611 0
DWIDTH 14 0
BBX 14 15 0 -3
BITMAP
F1C0
37E0
3870
3030
3030
3030
3030
3030
3030
3030
3030
FCFC
0000
0300
0300
ENDCHAR
STARTCHAR uni1E48
ENCODING 7752
SWIDTH 815 0
DWIDTH 21 0
BBX 19 21 1 -3
BITMAP
F80FE0
3C0380
1C0100
1E0100
170100
138100
11C100
10C100
10E100
107100
103100
101900
101D00
100F00
100700
100300
380300
FE0100
000000
03F800
03F800
ENDCHAR
STARTCHAR uni1E49
ENCODING 7753
SWIDTH 611 0
DWIDTH 14 0
BBX 14 15 0 -3
BITMAP
F1C0
37E0
3870
3030
3030
3030
3030
3030
3030
3030
3030
FCFC
0000
0FE0
0FE0
ENDCHAR
STARTCHAR uni1E4A
ENCODING 7754
SWIDTH 815 0
DWIDTH 21 0
BBX 19 23 1 -5
BITMAP
F80FE0
3C0380
1C0100
1E0100
170100
138100
11C100
10C100
10E100
107100
103100
101900
101D00
100F00
100700
100300
380300
FE0100
000000
00C000
01E000
033000
040800
ENDCHAR
STARTCHAR uni1E4B
ENCODING 7755
SWIDTH 611 0
DWIDTH 14 0
BBX 14 17 0 -5
BITMAP
F1C0
37E0
3870
3030
3030
3030
3030
3030
3030
3030
3030
FCFC
0000
0300
0780
0CC0
1020
ENDCHAR
STARTCHAR uni1E4C
ENCODING 7756
SWIDTH 778 0
DWIDTH 19 0
BBX 17 27 1 0
BITMAP
003000
007000
00C000
010000
000000
031000
05D000
046000
000000
07F000
1C1C00
300600
700700
600300
E00380
C00180
C00180
C00180
C00180
C00180
C00180
E00380
600300
700700
300600
1C1C00
07F000
ENDCHAR
STARTCHAR uni1E4D
ENCODING 7757
SWIDTH 500 0
DWIDTH 13 0
BBX 11 21 1 0
BITMAP
0180
0380
0600
0800
0000
1C40
2380
0000
0000
1F00
71C0
60C0
E0E0
C060
C060
C060
C060
E0E0
60C0
71C0
1F00
ENDCHAR
STARTCHAR uni1E4E
ENCODING 7758
SWIDTH 778 0
DWIDTH 19 0
BBX 17 25 1 0
BITMAP
033000
033000
000000
031000
05D000
046000
000000
07F000
1C1C00
300600
700700
600300
E00380
C00180
C00180
C00180
C00180
C00180
C00180
E00380
600300
700700
300600
1C1C00
07F000
ENDCHAR
STARTCHAR uni1E4F
ENCODING 7759
SWIDTH 500 0
DWIDTH 13 0
BBX 11 19 1 0
BITMAP
1980
1980
0000
1C40
2380
0000
0000
1F00
71C0
60C0
E0E0
C060
C060
C060
C060
E0E0
60C0
71C0
1F00
ENDCHAR
STARTCHAR uni1E50
ENCODING 7760
SWIDTH 778 0
DWIDTH 19 0
BBX 17 26 1 0
BITMAP
060000
070000
018000
004000
000000
07F000
07F000
000000
07F000
1C1C00
300600
700700
600300
E00380
C00180
C00180
C00180
C00180
C00180
C00180
E00380
600300
700700
300600
1C1C00
07F000
ENDCHAR
STARTCHAR uni1E51
ENCODING 7761
SWIDTH 500 0
DWIDTH 13 0
BBX 11 20 1 0
BITMAP
3000
3800
0C00
0200
0000
3F80
3F80
0000
1F00
71C0
60C0
E0E0
C060
C060
C060
C060
E0E0
60C0
71C0
1F00
ENDCHAR
STARTCHAR uni1E52
ENCODING 7762
SWIDTH 778 0
DWIDTH 19 0
BBX 17 26 1 0
BITMAP
003000
007000
00C000
010000
000000
07F000
07F000
000000
07F000
1C1C00
300600
700700
600300
E00380
C00180
C00180
C00180
C00180
C00180
C00180
E00380
600300
700700
300600
1C1C00
07F000
ENDCHAR
STARTCHAR uni1E53
ENCODING 7763
SWIDTH 500 0
DWIDTH 13 0
BBX 11 20 1 0
BITMAP
0180
0380
0600
0800
0000
3F80
3F80
0000
1F00
71C0
60C0
E0E0
C060
C060
C060
C060
E0E0
60C0
71C0
1F00
ENDCHAR
STARTCHAR uni1E54
ENCODING 7764
SWIDTH 667 0
DWIDTH 16 0
BBX 14 23 1 0
BITMAP
00C0
01C0
0300
0400
0000
FFE0
3838
181C
180C
180C
180C
181C
1818
1870
1FC0
1800
1800
1800
1800
1800
1800
3C00
FF00
ENDCHAR
STARTCHAR uni1E55
ENCODING 7765
SWIDTH 574 0
DWIDTH 14 0
BBX 13 22 0 -5
BITMAP
00C0
01C0
0300
0400
0000
F7C0
3C70
3830
3038
3018
3018
3018
3018
3038
3830
3C70
37C0
3000
3000
3000
3000
FC00
ENDCHAR
STARTCHAR uni1E56
ENCODING 7766
SWIDTH 667 0
DWIDTH 16 0
BBX 14 21 1 0
BITMAP
0300
0300
0000
FFE0
3838
181C
180C
180C
180C
181C
1818
1870
1FC0
1800
1800
1800
1800
1800
1800
3C00
FF00
ENDCHAR
STARTCHAR uni1E57
ENCODING 7767
SWIDTH 574 0
DWIDTH 14 0
BBX 13 20 0 -5
BITMAP
0300
0300
0000
F7C0
3C70
3830
3038
3018
3018
3018
3018
3038
3830
3C70
37C0
3000
3000
3000
3000
FC00
ENDCHAR
STARTCHAR uni1E58
ENCODING 7768
SWIDTH 722 0
DWIDTH 18 0
BBX 17 21 1 0
BITMAP
018000
018000
000000
FFF000
383800
181C00
180C00
180C00
180C00
181800
183000
1FE000
186000
183000
183000
183000
183800
181880
181C80
380F00
FE0E00
ENDCHAR
STARTCHAR uni1E59
ENCODING 7769
SWIDTH 444 0
DWIDTH 10 0
BBX 10 15 0 0
BITMAP
0C00
0C00
0000
F380
35C0
38C0
3000
3000
3000
3000
3000
3000
3000
3000
FC00
ENDCHAR
STARTCHAR uni1E5A
ENCODING 7770
SWIDTH 722 0
DWIDTH 18 0
BBX 17 21 1 -3
BITMAP
FFF000
383800
181C00
180C00
180C00
180C00
181800
183000
1FE000
186000
183000
183000
183000
183800
181880
181C80
380F00
FE0E00
000000
00C000
00C000
ENDCHAR
STARTCHAR uni1E5B
ENCODING 7771
SWIDTH 444 0
DWIDTH 10 0
BBX 10 15 0 -3
BITMAP
F380
35C0
38C0
3000
3000
3000
3000
3000
3000
3000
3000
FC00
0000
1800
1800
ENDCHAR
STARTCHAR uni1E5C
ENCODING 7772
SWIDTH 722 0
DWIDTH 18 0
BBX 17 24 1 -3
BITMAP
0FE000
0FE000
000000
FFF000
383800
181C00
180C00
180C00
180C00
181800
183000
1FE000
186000
183000
183000
183000
183800
181880
181C80
380F00
FE0E00
000000
00C000
00C000
ENDCHAR
STARTCHAR uni1E5D
ENCODING 7773
SWIDTH 444 0
DWIDTH 10 0
BBX 10 18 0 -3
BITMAP
3F80
3F80
0000
F380
35C0
38C0
3000
3000
3000
3000
3000
3000
3000
3000
FC00
0000
1800
1800
ENDCHAR
STARTCHAR uni1E5E
ENCODING 7774
SWIDTH 722 0
DWIDTH 18 0
BBX 17 21 1 -3
BITMAP
FFF000
383800
181C00
180C00
180C00
180C00
181800
183000
1FE000
186000
183000
183000
183000
183800
181880
181C80
380F00
FE0E00
000000
07F000
07F000
ENDCHAR
STARTCHAR uni1E5F
ENCODING 7775
SWIDTH 444 0
DWIDTH 10 0
BBX 10 15 0 -3
BITMAP
F380
35C0
38C0
3000
3000
3000
3000
3000
3000
3000
3000
FC00
0000
FE00
FE00
ENDCHAR
STARTCHAR uni1E60
ENCODING 7776
SWIDTH 630 0
DWIDTH 15 0
BBX 13 21 1 0
BITMAP
0300
0300
0000
1F90
60F0
4030
C030
C010
E010
F000
7E00
1FC0
07F0
00F8
0038
8018
8018
C018
C030
F070
9FC0
ENDCHAR
STARTCHAR uni1E61
ENCODING 7777
SWIDTH 463 0
DWIDTH 11 0
BBX 9 15 1 0
BITMAP
1800
1800
0000
3D00
6300
C300
C100
E000
7C00
1F00
0380
8180
C180
C300
BE00
ENDCHAR
STARTCHAR uni1E62
ENCODING 7778
SWIDTH 630 0
DWIDTH 15 0
BBX 13 21 1 -3
BITMAP
1F90
60F0
4030
C030
C010
E010
F000
7E00
1FC0
07F0
00F8
0038
8018
8018
C018
C030
F070
9FC0
0000
0600
0600
ENDCHAR
STARTCHAR uni1E63
ENCODING 7779
SWIDTH 463 0
DWIDTH 11 0
BBX 9 15 1 -3
BITMAP
3D00
6300
C300
C100
E000
7C00
1F00
0380
8180
C180
C300
BE00
0000
1800
1800
ENDCHAR
STARTCHAR uni1E64
ENCODING 7780
SWIDTH 630 0
DWIDTH 15 0
BBX 13 26 1 0
BITMAP
0300
0300
0000
00C0
01C0
0300
0400
0000
1F90
60F0
4030
C030
C010
E010
F000
7E00
1FC0
07F0
00F8
0038
8018
8018
C018
C030
F070
9FC0
ENDCHAR
STARTCHAR uni1E65
ENCODING 7781
SWIDTH 463 0
DWIDTH 11 0
BBX 9 20 1 0
BITMAP
0C00
0C00
0000
0600
0E00
1800
2000
0000
3D00
6300
C300
C100
E000
7C00
1F00
0380
8180
C180
C300
BE00
ENDCHAR
STARTCHAR uni1E66
ENCODING 7782
SWIDTH 630 0
DWIDTH 15 0
BBX 12 21 1 0
BITMAP
0600
0600
0000
2040
1980
0F00
0600
0000
1F90
3870
7030
7010
3800
1E00
0780
81C0
80E0
C070
C070
F0E0
9FC0
ENDCHAR
STARTCHAR uni1E67
ENCODING 7783
SWIDTH 463 0
DWIDTH 11 0
BBX 9 21 1 0
BITMAP
1800
1800
0000
8100
6600
3C00
1800
0000
0000
3D00
6300
C300
C100
E000
7C00
1F00
0380
8180
C180
C300
BE00
ENDCHAR
STARTCHAR uni1E68
ENCODING 7784
SWIDTH 630 0
DWIDTH 15 0
BBX 13 24 1 -3
BITMAP
0600
0600
0000
1F90
60F0
4030
C030
C010
E010
F000
7E00
1FC0
07F0
00F8
0038
8018
8018
C018
C030
F070
9FC0
0000
0600
0600
ENDCHAR
STARTCHAR uni1E69
ENCODING 7785
SWIDTH 463 0
DWIDTH 11 0
BBX 9 18 1 -3
BITMAP
1800
1800
0000
3D00
6300
C300
C100
E000
7C00
1F00
0380
8180
C180
C300
BE00
0000
1800
1800
ENDCHAR
STARTCHAR uni1E6A
ENCODING 7786
SWIDTH 667 0
DWIDTH 17 0
BBX 16 21 1 0
BITMAP
0180
0180
0000
FFFF
E187
C183
8181
8181
8181
0180
0180
0180
0180
0180
0180
0180
0180
0180
0180
03C0
0FF0
ENDCHAR
STARTCHAR uni1E6B
ENCODING 7787
SWIDTH 389 0
DWIDTH 10 0
BBX 8 19 1 0
BITMAP
18
18
00
10
10
30
70
FF
30
30
30
30
30
30
30
31
31
39
1E
ENDCHAR
STARTCHAR uni1E6C
ENCODING 7788
SWIDTH 667 0
DWIDTH 17 0
BBX 16 21 1 -3
BITMAP
FFFF
E187
C183
8181
8181
8181
0180
0180
0180
0180
0180
0180
0180
0180
0180
0180
03C0
0FF0
0000
0180
0180
ENDCHAR
STARTCHAR uni1E6D
ENCODING 7789
SWIDTH 389 0
DWIDTH 10 0
BBX 8 19 1 -3
BITMAP
10
10
30
70
FF
30
30
30
30
30
30
30
31
31
39
1E
00
18
18
ENDCHAR
STARTCHAR uni1E6E
ENCODING 7790
SWIDTH 667 0
DWIDTH 17 0
BBX 16 21 1 -3
BITMAP
FFFF
E187
C183
8181
8181
8181
0180
0180
0180
0180
0180
0180
0180
0180
0180
0180
03C0
0FF0
0000
07F0
07F0
ENDCHAR
STARTCHAR uni1E6F
ENCODING 7791
SWIDTH 389 0
DWIDTH 10 0
BBX 8 19 1 -3
BITMAP
10
10
30
70
FF
30
30
30
30
30
30
30
31
31
39
1E
00
7F
7F
ENDCHAR
STARTCHAR uni1E70
ENCODING 7792
SWIDTH 667 0
DWIDTH 17 0
BBX 16 23 1 -5
BITMAP
FFFF
E187
C183
8181
8181
8181
0180
0180
0180
0180
0180
0180
0180
0180
0180
0180
03C0
0FF0
0000
0180
03C0
0660
0810
ENDCHAR
STARTCHAR uni1E71
ENCODING 7793
SWIDTH 389 0
DWIDTH 10 0
BBX 8 21 1 -5
BITMAP
10
10
30
70
FF
30
30
30
30
30
30
30
31
31
39
1E
00
18
3C
66
81
ENDCHAR
STARTCHAR uni1E72
ENCODING 7794
SWIDTH 815 0
DWIDTH 19 0
BBX 18 21 1 -3
BITMAP
FE1FC0
780700
300200
300200
300200
300200
300200
300200
300200
300200
300200
300200
300200
300200
300600
180400
1C1C00
07F000
000000
066000
066000
ENDCHAR
STARTCHAR uni1E73
ENCODING 7795
SWIDTH 611 0
DWIDTH 14 0
BBX 14 15 0 -3
BITMAP
F0F0
3030
3030
3030
3030
3030
3030
3030
3030
3870
1FB0
0E3C
0000
0CC0
0CC0
ENDCHAR
STARTCHAR uni1E74
ENCODING 7796
SWIDTH 815 0
DWIDTH 19 0
BBX 18 21 1 -3
BITMAP
FE1FC0
780700
300200
300200
300200
300200
300200
300200
300200
300200
300200
300200
300200
300200
300600
180400
1C1C00
07F000
000000
079000
09E000
ENDCHAR
STARTCHAR uni1E75
ENCODING 7797
SWIDTH 611 0
DWIDTH 14 0
BBX 14 15 0 -3
BITMAP
F0F0
3030
3030
3030
3030
3030
3030
3030
3030
3870
1FB0
0E3C
0000
0790
09E0
ENDCHAR
STARTCHAR uni1E76
ENCODING 7798
SWIDTH 815 0
DWIDTH 19 0
BBX 18 23 1 -5
BITMAP
FE1FC0
780700
300200
300200
300200
300200
300200
300200
300200
300200
300200
300200
300200
300200
300600
180400
1C1C00
07F000
000000
018000
03C000
066000
081000
ENDCHAR
STARTCHAR uni1E77
ENCODING 7799
SWIDTH 611 0
DWIDTH 14 0
BBX 14 17 0 -5
BITMAP
F0F0
3030
3030
3030
3030
3030
3030
3030
3030
3870
1FB0
0E3C
0000
0300
0780
0CC0
1020
ENDCHAR
STARTCHAR uni1E78
ENCODING 7800
SWIDTH 815 0
DWIDTH 19 0
BBX 18 26 1 0
BITMAP
003000
007000
00C000
010000
000000
079000
09E000
000000
FE1FC0
780700
300200
300200
300200
300200
300200
300200
300200
300200
300200
300200
300200
300200
300600
180400
1C1C00
07F000
ENDCHAR
STARTCHAR uni1E79
ENCODING 7801
SWIDTH 611 0
DWIDTH 14 0
BBX 14 20 0 0
BITMAP
00C0
01C0
0300
0400
0000
0F20
13C0
0000
F0F0
3030
3030
3030
3030
3030
3030
3030
3030
3870
1FB0
0E3C
ENDCHAR
STARTCHAR uni1E7A
ENCODING 7802
SWIDTH 815 0
DWIDTH 19 0
BBX 18 24 1 0
BITMAP
033000
033000
000000
07F000
07F000
000000
FE1FC0
780700
300200
300200
300200
300200
300200
300200
300200
300200
300200
300200
300200
300200
300600
180400
1C1C00
07F000
ENDCHAR
STARTCHAR uni1E7B
ENCODING 7803
SWIDTH 611 0
DWIDTH 14 0
BBX 14 18 0 0
BITMAP
0CC0
0CC0
0000
1FC0
1FC0
0000
F0F0
3030
3030
3030
3030
3030
3030
3030
3030
3870
1FB0
0E3C
ENDCHAR
STARTCHAR uni1E7C
ENCODING 7804
SWIDTH 722 0
DWIDTH 18 0
BBX 19 21 0 0
BITMAP
03C800
04F000
000000
FE0FE0
380380
380300
180200
1C0200
1C0600
0C0400
0E0C00
060800
070800
071800
031000
03B000
01A000
01E000
01E000
00C000
00C000
ENDCHAR
STARTCHAR uni1E7D
ENCODING 7805
SWIDTH 537 0
DWIDTH 13 0
BBX 15 15 -1 0
BITMAP
0F20
13C0
0000
FC7E
3018
3010
1830
1820
0C60
0C40
06C0
0680
0380
0300
0100
ENDCHAR
STARTCHAR uni1E7E
ENCODING 7806
SWIDTH 722 0
DWIDTH 18 0
BBX 19 21 0 -3
BITMAP
FE0FE0
380380
380300
180200
1C0200
1C0600
0C0400
0E0C00
060800
070800
071800
031000
03B000
01A000
01E000
01E000
00C000
00C000
000000
00C000
00C000
ENDCHAR
STARTCHAR uni1E7F
ENCODING 7807
SWIDTH 537 0
DWIDTH 13 0
BBX 15 15 -1 -3
BITMAP
FC7E
3018
3010
1830
1820
0C60
0C40
06C0
0680
0380
0300
0100
0000
0300
0300
ENDCHAR
STARTCHAR Wgrave
ENCODING 7808
SWIDTH 981 0
DWIDTH 25 0
BBX 26 23 0 0
BITMAP
00600000
00700000
00180000
00040000
00000000
FE3F9FC0
F80C0700
380E0200
180E0200
1C160400
1C170400
0C130400
0E230800
0E238800
06218800
07419000
0741D000
0340D000
0380F000
0380E000
01806000
01806000
01806000
ENDCHAR
STARTCHAR wgrave
ENCODING 7809
SWIDTH 778 0
DWIDTH 17 0
BBX 19 17 -1 0
BITMAP
030000
038000
00C000
002000
000000
FCF3E0
306080
306080
30E180
18B100
18B100
19B300
0D1A00
0D1A00
0D1A00
060C00
060C00
ENDCHAR
STARTCHAR Wacute
ENCODING 7810
SWIDTH 981 0
DWIDTH 25 0
BBX 26 23 0 0
BITMAP
00060000
000E0000
00180000
00200000
00000000
FE3F9FC0
F80C0700
380E0200
180E0200
1C160400
1C170400
0C130400
0E230800
0E238800
06218800
07419000
0741D000
0340D000
0380F000
0380E000
01806000
01806000
01806000
ENDCHAR
STARTCHAR wacute
ENCODING 7811
SWIDTH 778 0
DWIDTH 17 0
BBX 19 17 -1 0
BITMAP
003000
007000
00C000
010000
000000
FCF3E0
306080
306080
30E180
18B100
18B100
19B300
0D1A00
0D1A00
0D1A00
060C00
060C00
ENDCHAR
STARTCHAR Wdieresis
ENCODING 7812
SWIDTH 981 0
DWIDTH 25 0
BBX 26 21 0 0
BITMAP
00660000
00660000
00000000
FE3F9FC0
F80C0700
380E0200
180E0200
1C160400
1C170400
0C130400
0E230800
0E238800
06218800
07419000
0741D000
0340D000
0380F000
0380E000
01806000
01806000
01806000
ENDCHAR
STARTCHAR wdieresis
ENCODING 7813
SWIDTH 778 0
DWIDTH 17 0
BBX 19 15 -1 0
BITMAP
033000
033000
000000
FCF3E0
306080
306080
30E180
18B100
18B100
19B300
0D1A00
0D1A00
0D1A00
060C00
060C00
ENDCHAR
STARTCHAR uni1E86
ENCODING 7814
SWIDTH 981 0
DWIDTH 25 0
BBX 26 21 0 0
BITMAP
00180000
00180000
00000000
FE3F9FC0
F80C0700
380E0200
180E0200
1C160400
1C170400
0C130400
0E230800
0E238800
06218800
07419000
0741D000
0340D000
0380F000
0380E000
01806000
01806000
01806000
ENDCHAR
STARTCHAR uni1E87
ENCODING 7815
SWIDTH 778 0
DWIDTH 17 0
BBX 19 15 -1 0
BITMAP
00C000
00C000
000000
FCF3E0
306080
306080
30E180
18B100
18B100
19B300
0D1A00
0D1A00
0D1A00
060C00
060C00
ENDCHAR
STARTCHAR uni1E88
ENCODING 7816
SWIDTH 981 0
DWIDTH 25 0
BBX 26 21 0 -3
BITMAP
FE3F9FC0
F80C0700
380E0200
180E0200
1C160400
1C170400
0C130400
0E230800
0E238800
06218800
07419000
0741D000
0340D000
0380F000
0380E000
01806000
01806000
01806000
00000000
000C0000
000C0000
ENDCHAR
STARTCHAR uni1E89
ENCODING 7817
SWIDTH 778 0
DWIDTH 17 0
BBX 19 15 -1 -3
BITMAP
FCF3E0
306080
306080
30E180
18B100
18B100
19B300
0D1A00
0D1A00
0D1A00
060C00
060C00
000000
00C000
00C000
ENDCHAR
STARTCHAR uni1E8A
ENCODING 7818
SWIDTH 704 0
DWIDTH 19 0
BBX 19 21 0 0
BITMAP
00C000
00C000
000000
FF1FC0
3C0700
0E0600
060C00
071800
039000
01F000
00E000
00E000
01F000
013000
023800
061C00
0C0C00
0C0E00
180700
380780
FE1FE0
ENDCHAR
STARTCHAR uni1E8B
ENCODING 7819
SWIDTH 537 0
DWIDTH 12 0
BBX 13 15 -1 0
BITMAP
0300
0300
0000
7C78
3830
1C60
0CC0
0780
0700
0700
0D80
18C0
30E0
7070
F8F8
ENDCHAR
STARTCHAR uni1E8C
ENCODING 7820
SWIDTH 704 0
DWIDTH 19 0
BBX 19 21 0 0
BITMAP
033000
033000
000000
FF1FC0
3C0700
0E0600
060C00
071800
039000
01F000
00E000
00E000
01F000
013000
023800
061C00
0C0C00
0C0E00
180700
380780
FE1FE0
ENDCHAR
STARTCHAR uni1E8D
ENCODING 7821
SWIDTH 537 0
DWIDTH 12 0
BBX 13 15 -1 0
BITMAP
0CC0
0CC0
0000
7C78
3830
1C60
0CC0
0780
0700
0700
0D80
18C0
30E0
7070
F8F8
ENDCHAR
STARTCHAR uni1E8E
ENCODING 7822
SWIDTH 704 0
DWIDTH 17 0
BBX 19 21 -1 0
BITMAP
00C000
00C000
000000
FE0FE0
3C0380
1C0300
0C0600
0E0400
070C00
030800
019800
01F000
00F000
006000
006000
006000
006000
006000
006000
00F000
03FC00
ENDCHAR
STARTCHAR uni1E8F
ENCODING 7823
SWIDTH 537 0
DWIDTH 12 0
BBX 13 20 -1 -5
BITMAP
0600
0600
0000
7838
3010
1820
1820
1860
0C40
0C40
06C0
0680
0680
0300
0300
0200
0200
C400
EC00
7800
ENDCHAR
STARTCHAR uni1E90
ENCODING 7824
SWIDTH 611 0
DWIDTH 16 0
BBX 14 23 1 0
BITMAP
0300
0780
0CC0
1020
0000
7FF8
7038
6070
4060
40E0
40C0
01C0
0380
0380
0700
0600
0E00
1C04
1804
3804
300C
701C
FFFC
ENDCHAR
STARTCHAR uni1E91
ENCODING 7825
SWIDTH 481 0
DWIDTH 11 0
BBX 9 17 1 0
BITMAP
0C00
1E00
3300
4080
0000
FF80
C380
8700
8600
0C00
1C00
1800
3000
7080
E080
C180
FF80
ENDCHAR
STARTCHAR uni1E92
ENCODING 7826
SWIDTH 611 0
DWIDTH 16 0
BBX 14 21 1 -3
BITMAP
7FF8
7038
6070
4060
40E0
40C0
01C0
0380
0380
0700
0600
0E00
1C04
1804
3804
300C
701C
FFFC
0000
0300
0300
ENDCHAR
STARTCHAR uni1E93
ENCODING 7827
SWIDTH 481 0
DWIDTH 11 0
BBX 9 15 1 -3
BITMAP
FF80
C380
8700
8600
0C00
1C00
1800
3000
7080
E080
C180
FF80
0000
1800
1800
ENDCHAR
STARTCHAR uni1E94
ENCODING 7828
SWIDTH 611 0
DWIDTH 16 0
BBX 14 21 1 -3
BITMAP
7FF8
7038
6070
4060
40E0
40C0
01C0
0380
0380
0700
0600
0E00
1C04
1804
3804
300C
701C
FFFC
0000
0FE0
0FE0
ENDCHAR
STARTCHAR uni1E95
ENCODING 7829
SWIDTH 481 0
DWIDTH 11 0
BBX 9 15 1 -3
BITMAP
FF80
C380
8700
8600
0C00
1C00
1800
3000
7080
E080
C180
FF80
0000
7F00
7F00
ENDCHAR
STARTCHAR uni1E96
ENCODING 7830
SWIDTH 611 0
DWIDTH 14 0
BBX 14 21 0 -3
BITMAP
F000
3000
3000
3000
3000
3000
31C0
37E0
3870
3030
3030
3030
3030
3030
3030
3030
3030
FCFC
0000
0FE0
0FE0
ENDCHAR
STARTCHAR uni1E97
ENCODING 7831
SWIDTH 389 0
DWIDTH 10 0
BBX 8 19 1 0
BITMAP
66
66
00
10
10
30
70
FF
30
30
30
30
30
30
30
31
31
39
1E
ENDCHAR
STARTCHAR uni1E98
ENCODING 7832
SWIDTH 778 0
DWIDTH 17 0
BBX 19 18 -1 0
BITMAP
00E000
011000
011000
011000
00E000
000000
FCF3E0
306080
306080
30E180
18B100
18B100
19B300
0D1A00
0D1A00
0D1A00
060C00
060C00
ENDCHAR
STARTCHAR uni1E99
ENCODING 7833
SWIDTH 537 0
DWIDTH 12 0
BBX 13 23 -1 -5
BITMAP
0700
0880
0880
0880
0700
0000
7838
3010
1820
1820
1860
0C40
0C40
06C0
0680
0680
0300
0300
0200
0200
C400
EC00
7800
ENDCHAR
STARTCHAR uni1EA0
ENCODING 7840
SWIDTH 722 0
DWIDTH 19 0
BBX 19 21 0 -3
BITMAP
004000
004000
00C000
00E000
01E000
013000
033000
023800
061800
041C00
0C0C00
0FFE00
180600
100700
300300
300380
600180
F807E0
000000
006000
006000
ENDCHAR
STARTCHAR uni1EA1
ENCODING 7841
SWIDTH 556 0
DWIDTH 13 0
BBX 12 15 1 -3
BITMAP
1F00
7180
70C0
60C0
00C0
07C0
38C0
60C0
C0C0
C0C0
E1F0
7E60
0000
0600
0600
ENDCHAR
STARTCHAR uni1EA4
ENCODING 7844
SWIDTH 722 0
DWIDTH 19 0
BBX 19 28 0 0
BITMAP
003000
007000
00C000
010000
000000
00C000
01E000
033000
040800
000000
004000
004000
00C000
00E000
01E000
013000
033000
023800
061800
041C00
0C0C00
0FFE00
180600
100700
300300
300380
600180
F807E0
ENDCHAR
STARTCHAR uni1EA5
ENCODING 7845
SWIDTH 556 0
DWIDTH 13 0
BBX 12 23 1 0
BITMAP
0180
0380
0600
0800
0000
0600
0F00
1980
2040
0000
0000
1F00
7180
70C0
60C0
00C0
07C0
38C0
60C0
C0C0
C0C0
E1F0
7E60
ENDCHAR
STARTCHAR uni1EA6
ENCODING 7846
SWIDTH 722 0
DWIDTH 19 0
BBX 19 28 0 0
BITMAP
030000
038000
00C000
002000
000000
00C000
01E000
033000
040800
000000
004000
004000
00C000
00E000
01E000
013000
033000
023800
061800
041C00
0C0C00
0FFE00
180600
100700
300300
300380
600180
F807E0
ENDCHAR
STARTCHAR uni1EA7
ENCODING 7847
SWIDTH 556 0
DWIDTH 13 0
BBX 12 23 1 0
BITMAP
1800
1C00
0600
0100
0000
0600
0F00
1980
2040
0000
0000
1F00
7180
70C0
60C0
00C0
07C0
38C0
60C0
C0C0
C0C0
E1F0
7E60
ENDCHAR
STARTCHAR uni1EAA
ENCODING 7850
SWIDTH 722 0
DWIDTH 19 0
BBX 19 26 0 0
BITMAP
03C800
04F000
000000
00C000
01E000
033000
040800
000000
004000
004000
00C000
00E000
01E000
013000
033000
023800
061800
041C00
0C0C00
0FFE00
180600
100700
300300
300380
600180
F807E0
ENDCHAR
STARTCHAR uni1EAB
ENCODING 7851
SWIDTH 556 0
DWIDTH 13 0
BBX 12 21 1 0
BITMAP
1E40
2780
0000
0600
0F00
1980
2040
0000
0000
1F00
7180
70C0
60C0
00C0
07C0
38C0
60C0
C0C0
C0C0
E1F0
7E60
ENDCHAR
STARTCHAR uni1EAC
ENCODING 7852
SWIDTH 722 0
DWIDTH 19 0
BBX 19 26 0 -3
BITMAP
00C000
01E000
033000
040800
000000
004000
004000
00C000
00E000
01E000
013000
033000
023800
061800
041C00
0C0C00
0FFE00
180600
100700
300300
300380
600180
F807E0
000000
006000
006000
ENDCHAR
STARTCHAR uni1EAD
ENCODING 7853
SWIDTH 556 0
DWIDTH 13 0
BBX 12 20 1 -3
BITMAP
0C00
1E00
3300
4080
0000
1F00
7180
70C0
60C0
00C0
07C0
38C0
60C0
C0C0
C0C0
E1F0
7E60
0000
0600
0600
ENDCHAR
STARTCHAR uni1EAE
ENCODING 7854
SWIDTH 722 0
DWIDTH 19 0
BBX 19 27 0 0
BITMAP
003000
007000
00C000
010000
000000
021000
033000
01E000
000000
004000
004000
00C000
00E000
01E000
013000
033000
023800
061800
041C00
0C0C00
0FFE00
180600
100700
300300
300380
600180
F807E0
ENDCHAR
STARTCHAR uni1EAF
ENCODING 7855
SWIDTH 556 0
DWIDTH 13 0
BBX 12 21 1 0
BITMAP
0180
0380
0600
0800
0000
2100
3300
1E00
0000
1F00
7180
70C0
60C0
00C0
07C0
38C0
60C0
C0C0
C0C0
E1F0
7E60
ENDCHAR
STARTCHAR uni1EB0
ENCODING 7856
SWIDTH 722 0
DWIDTH 19 0
BBX 19 27 0 0
BITMAP
030000
038000
00C000
002000
000000
021000
033000
01E000
000000
004000
004000
00C000
00E000
01E000
013000
033000
023800
061800
041C00
0C0C00
0FFE00
180600
100700
300300
300380
600180
F807E0
ENDCHAR
STARTCHAR uni1EB1
ENCODING 7857
SWIDTH 556 0
DWIDTH 13 0
BBX 12 21 1 0
BITMAP
3000
3800
0C00
0200
0000
2100
3300
1E00
0000
1F00
7180
70C0
60C0
00C0
07C0
38C0
60C0
C0C0
C0C0
E1F0
7E60
ENDCHAR
STARTCHAR uni1EB4
ENCODING 7860
SWIDTH 722 0
DWIDTH 19 0
BBX 19 25 0 0
BITMAP
03C800
04F000
000000
021000
033000
01E000
000000
004000
004000
00C000
00E000
01E000
013000
033000
023800
061800
041C00
0C0C00
0FFE00
180600
100700
300300
300380
600180
F807E0
ENDCHAR
STARTCHAR uni1EB5
ENCODING 7861
SWIDTH 556 0
DWIDTH 13 0
BBX 12 19 1 0
BITMAP
3C80
4F00
0000
2100
3300
1E00
0000
1F00
7180
70C0
60C0
00C0
07C0
38C0
60C0
C0C0
C0C0
E1F0
7E60
ENDCHAR
STARTCHAR uni1EB6
ENCODING 7862
SWIDTH 722 0
DWIDTH 19 0
BBX 19 25 0 -3
BITMAP
021000
033000
01E000
000000
004000
004000
00C000
00E000
01E000
013000
033000
023800
061800
041C00
0C0C00
0FFE00
180600
100700
300300
300380
600180
F807E0
000000
006000
006000
ENDCHAR
STARTCHAR uni1EB7
ENCODING 7863
SWIDTH 556 0
DWIDTH 13 0
BBX 12 19 1 -3
BITMAP
2100
3300
1E00
0000
1F00
7180
70C0
60C0
00C0
07C0
38C0
60C0
C0C0
C0C0
E1F0
7E60
0000
0600
0600
ENDCHAR
STARTCHAR uni1EB8
ENCODING 7864
SWIDTH 722 0
DWIDTH 16 0
BBX 14 21 1 -3
BITMAP
FFFC
381C
180C
1804
1804
1820
1820
1860
1FE0
1860
1820
1820
1800
1804
1804
180C
381C
FFFC
0000
0300
0300
ENDCHAR
STARTCHAR uni1EB9
ENCODING 7865
SWIDTH 500 0
DWIDTH 13 0
BBX 11 15 1 -3
BITMAP
1F00
71C0
60C0
E0E0
C060
FFE0
C000
C000
E000
6040
70C0
1F80
0000
0C00
0C00
ENDCHAR
STARTCHAR uni1EBC
ENCODING 7868
SWIDTH 722 0
DWIDTH 16 0
BBX 14 21 1 0
BITMAP
0F20
13C0
0000
FFFC
381C
180C
1804
1804
1820
1820
1860
1FE0
1860
1820
1820
1800
1804
1804
180C
381C
FFFC
ENDCHAR
STARTCHAR uni1EBD
ENCODING 7869
SWIDTH 500 0
DWIDTH 13 0
BBX 11 15 1 0
BITMAP
3C80
4F00
0000
1F00
71C0
60C0
E0E0
C060
FFE0
C000
C000
E000
6040
70C0
1F80
ENDCHAR
STARTCHAR uni1EBE
ENCODING 7870
SWIDTH 722 0
DWIDTH 16 0
BBX 14 28 1 0
BITMAP
00C0
01C0
0300
0400
0000
0180
03C0
0660
0810
0000
FFFC
381C
180C
1804
1804
1820
1820
1860
1FE0
1860
1820
1820
1800
1804
1804
180C
381C
FFFC
ENDCHAR
STARTCHAR uni1EBF
ENCODING 7871
SWIDTH 500 0
DWIDTH 13 0
BBX 11 23 1 0
BITMAP
0180
0380
0600
0800
0000
0600
0F00
1980
2040
0000
0000
1F00
71C0
60C0
E0E0
C060
FFE0
C000
C000
E000
6040
70C0
1F80
ENDCHAR
STARTCHAR uni1EC0
ENCODING 7872
SWIDTH 722 0
DWIDTH 16 0
BBX 14 28 1 0
BITMAP
0C00
0E00
0300
0080
0000
0180
03C0
0660
0810
0000
FFFC
381C
180C
1804
1804
1820
1820
1860
1FE0
1860
1820
1820
1800
1804
1804
180C
381C
FFFC
ENDCHAR
STARTCHAR uni1EC1
ENCODING 7873
SWIDTH 500 0
DWIDTH 13 0
BBX 11 23 1 0
BITMAP
1800
1C00
0600
0100
0000
0600
0F00
1980
2040
0000
0000
1F00
71C0
60C0
E0E0
C060
FFE0
C000
C000
E000
6040
70C0
1F80
ENDCHAR
STARTCHAR uni1EC4
ENCODING 7876
SWIDTH 722 0
DWIDTH 16 0
BBX 14 26 1 0
BITMAP
0F20
13C0
0000
0180
03C0
0660
0810
0000
FFFC
381C
180C
1804
1804
1820
1820
1860
1FE0
1860
1820
1820
1800
1804
1804
180C
381C
FFFC
ENDCHAR
STARTCHAR uni1EC5
ENCODING 7877
SWIDTH 500 0
DWIDTH 13 0
BBX 11 21 1 0
BITMAP
1E40
2780
0000
0600
0F00
1980
2040
0000
0000
1F00
71C0
60C0
E0E0
C060
FFE0
C000
C000
E000
6040
70C0
1F80
ENDCHAR
STARTCHAR uni1EC6
ENCODING 7878
SWIDTH 722 0
DWIDTH 16 0
BBX 14 26 1 -3
BITMAP
0300
0780
0CC0
1020
0000
FFFC
381C
180C
1804
1804
1820
1820
1860
1FE0
1860
1820
1820
1800
1804
1804
180C
381C
FFFC
0000
0300
0300
ENDCHAR
STARTCHAR uni1EC7
ENCODING 7879
SWIDTH 500 0
DWIDTH 13 0
BBX 11 20 1 -3
BITMAP
0600
0F00
1980
2040
0000
1F00
71C0
60C0
E0E0
C060
FFE0
C000
C000
E000
6040
70C0
1F80
0000
0C00
0C00
ENDCHAR
STARTCHAR uni1ECA
ENCODING 7882
SWIDTH 407 0
DWIDTH 9 0
BBX 8 21 1 -3
BITMAP
FF
3C
18
18
18
18
18
18
18
18
18
18
18
18
18
18
3C
FF
00
18
18
ENDCHAR
STARTCHAR uni1ECB
ENCODING 7883
SWIDTH 315 0
DWIDTH 8 0
BBX 6 20 1 -3
BITMAP
30
30
00
00
00
F0
30
30
30
30
30
30
30
30
30
30
FC
00
30
30
ENDCHAR
STARTCHAR uni1ECC
ENCODING 7884
SWIDTH 778 0
DWIDTH 19 0
BBX 17 21 1 -3
BITMAP
07F000
1C1C00
300600
700700
600300
E00380
C00180
C00180
C00180
C00180
C00180
C00180
E00380
600300
700700
300600
1C1C00
07F000
000000
00C000
00C000
ENDCHAR
STARTCHAR uni1ECD
ENCODING 7885
SWIDTH 500 0
DWIDTH 13 0
BBX 11 15 1 -3
BITMAP
1F00
71C0
60C0
E0E0
C060
C060
C060
C060
E0E0
60C0
71C0
1F00
0000
0600
0600
ENDCHAR
STARTCHAR uni1ED0
ENCODING 7888
SWIDTH 778 0
DWIDTH 19 0
BBX 17 28 1 0
BITMAP
003000
007000
00C000
010000
000000
00C000
01E000
033000
040800
000000
07F000
1C1C00
300600
700700
600300
E00380
C00180
C00180
C00180
C00180
C00180
C00180
E00380
600300
700700
300600
1C1C00
07F000
ENDCHAR
STARTCHAR uni1ED1
ENCODING 7889
SWIDTH 500 0
DWIDTH 13 0
BBX 11 23 1 0
BITMAP
0180
0380
0600
0800
0000
0600
0F00
1980
2040
0000
0000
1F00
71C0
60C0
E0E0
C060
C060
C060
C060
E0E0
60C0
71C0
1F00
ENDCHAR
STARTCHAR uni1ED2
ENCODING 7890
SWIDTH 778 0
DWIDTH 19 0
BBX 17 28 1 0
BITMAP
030000
038000
00C000
002000
000000
00C000
01E000
033000
040800
000000
07F000
1C1C00
300600
700700
600300
E00380
C00180
C00180
C00180
C00180
C00180
C00180
E00380
600300
700700
300600
1C1C00
07F000
ENDCHAR
STARTCHAR uni1ED3
ENCODING 7891
SWIDTH 500 0
DWIDTH 13 0
BBX 11 23 1 0
BITMAP
1800
1C00
0600
0100
0000
0600
0F00
1980
2040
0000
0000
1F00
71C0
60C0
E0E0
C060
C060
C060
C060
E0E0
60C0
71C0
1F00
ENDCHAR
STARTCHAR uni1ED6
ENCODING 7894
SWIDTH 778 0
DWIDTH 19 0
BBX 17 26 1 0
BITMAP
03C800
04F000
000000
00C000
01E000
033000
040800
000000
07F000
1C1C00
300600
700700
600300
E00380
C00180
C00180
C00180
C00180
C00180
C00180
E00380
600300
700700
300600
1C1C00
07F000
ENDCHAR
STARTCHAR uni1ED7
ENCODING 7895
SWIDTH 500 0
DWIDTH 13 0
BBX 11 21 1 0
BITMAP
1E40
2780
0000
0600
0F00
1980
2040
0000
0000
1F00
71C0
60C0
E0E0
C060
C060
C060
C060
E0E0
60C0
71C0
1F00
ENDCHAR
STARTCHAR uni1ED8
ENCODING 7896
SWIDTH 778 0
DWIDTH 19 0
BBX 17 26 1 -3
BITMAP
00C000
01E000
033000
040800
000000
07F000
1C1C00
300600
700700
600300
E00380
C00180
C00180
C00180
C00180
C00180
C00180
E00380
600300
700700
300600
1C1C00
07F000
000000
00C000
00C000
ENDCHAR
STARTCHAR uni1ED9
ENCODING 7897
SWIDTH 500 0
DWIDTH 13 0
BBX 11 20 1 -3
BITMAP
0600
0F00
1980
2040
0000
1F00
71C0
60C0
E0E0
C060
C060
C060
C060
E0E0
60C0
71C0
1F00
0000
0600
0600
ENDCHAR
STARTCHAR uni1EDA
ENCODING 7898
SWIDTH 778 0
DWIDTH 19 0
BBX 19 23 1 0
BITMAP
000C00
001C00
003000
004000
000000
07F0C0
1C1DE0
3007E0
700760
600340
E00380
C00180
C00180
C00180
C00180
C00180
C00180
E00380
600300
700700
300600
1C1C00
07F000
ENDCHAR
STARTCHAR uni1EDB
ENCODING 7899
SWIDTH 500 0
DWIDTH 13 0
BBX 14 17 1 0
BITMAP
0060
00E0
0180
0200
0000
1F18
71FC
60FC
E0EC
C068
C070
C060
C060
E0E0
60C0
71C0
1F00
ENDCHAR
STARTCHAR uni1EDC
ENCODING 7900
SWIDTH 778 0
DWIDTH 19 0
BBX 19 23 1 0
BITMAP
00C000
00E000
003000
000800
000000
07F0C0
1C1DE0
3007E0
700760
600340
E00380
C00180
C00180
C00180
C00180
C00180
C00180
E00380
600300
700700
300600
1C1C00
07F000
ENDCHAR
STARTCHAR uni1EDD
ENCODING 7901
SWIDTH 500 0
DWIDTH 13 0
BBX 14 17 1 0
BITMAP
0C00
0E00
0300
0080
0000
1F18
71FC
60FC
E0EC
C068
C070
C060
C060
E0E0
60C0
71C0
1F00
ENDCHAR
STARTCHAR uni1EE0
ENCODING 7904
SWIDTH 778 0
DWIDTH 19 0
BBX 19 21 1 0
BITMAP
00F200
013C00
000000
07F0C0
1C1DE0
3007E0
700760
600340
E00380
C00180
C00180
C00180
C00180
C00180
C00180
E00380
600300
700700
300600
1C1C00
07F000
ENDCHAR
STARTCHAR uni1EE1
ENCODING 7905
SWIDTH 500 0
DWIDTH 13 0
BBX 14 15 1 0
BITMAP
0790
09E0
0000
1F18
71FC
60FC
E0EC
C068
C070
C060
C060
E0E0
60C0
71C0
1F00
ENDCHAR
STARTCHAR uni1EE2
ENCODING 7906
SWIDTH 778 0
DWIDTH 19 0
BBX 19 21 1 -3
BITMAP
07F0C0
1C1DE0
3007E0
700760
600340
E00380
C00180
C00180
C00180
C00180
C00180
C00180
E00380
600300
700700
300600
1C1C00
07F000
000000
00C000
00C000
ENDCHAR
STARTCHAR uni1EE3
ENCODING 7907
SWIDTH 500 0
DWIDTH 13 0
BBX 14 15 1 -3
BITMAP
1F18
71FC
60FC
E0EC
C068
C070
C060
C060
E0E0
60C0
71C0
1F00
0000
0600
0600
ENDCHAR
STARTCHAR uni1EE4
ENCODING 7908
SWIDTH 815 0
DWIDTH 19 0
BBX 18 21 1 -3
BITMAP
FE1FC0
780700
300200
300200
300200
300200
300200
300200
300200
300200
300200
300200
300200
300200
300600
180400
1C1C00
07F000
000000
018000
018000
ENDCHAR
STARTCHAR uni1EE5
ENCODING 7909
SWIDTH 611 0
DWIDTH 14 0
BBX 14 15 0 -3
BITMAP
F0F0
3030
3030
3030
3030
3030
3030
3030
3030
3870
1FB0
0E3C
0000
0300
0300
ENDCHAR
STARTCHAR uni1EE8
ENCODING 7912
SWIDTH 815 0
DWIDTH 19 0
BBX 20 23 1 0
BITMAP
000C00
001C00
003000
004000
000000
FE1FE0
7807F0
3002F0
300230
300220
300240
300280
300200
300200
300200
300200
300200
300200
300200
300600
180400
1C1C00
07F000
ENDCHAR
STARTCHAR uni1EE9
ENCODING 7913
SWIDTH 611 0
DWIDTH 14 0
BBX 17 17 0 0
BITMAP
001800
003800
006000
008000
000000
F0F300
303780
303780
303180
303100
303200
303400
303000
303000
387000
1FB000
0E3C00
ENDCHAR
STARTCHAR uni1EEA
ENCODING 7914
SWIDTH 815 0
DWIDTH 19 0
BBX 20 23 1 0
BITMAP
00C000
00E000
003000
000800
000000
FE1FE0
7807F0
3002F0
300230
300220
300240
300280
300200
300200
300200
300200
300200
300200
300200
300600
180400
1C1C00
07F000
ENDCHAR
STARTCHAR uni1EEB
ENCODING 7915
SWIDTH 611 0
DWIDTH 14 0
BBX 17 17 0 0
BITMAP
030000
038000
00C000
002000
000000
F0F300
303780
303780
303180
303100
303200
303400
303000
303000
387000
1FB000
0E3C00
ENDCHAR
STARTCHAR uni1EEE
ENCODING 7918
SWIDTH 815 0
DWIDTH 19 0
BBX 20 21 1 0
BITMAP
00F200
013C00
000000
FE1FE0
7807F0
3002F0
300230
300220
300240
300280
300200
300200
300200
300200
300200
300200
300200
300600
180400
1C1C00
07F000
ENDCHAR
STARTCHAR uni1EEF
ENCODING 7919
SWIDTH 611 0
DWIDTH 14 0
BBX 17 15 0 0
BITMAP
03C800
04F000
000000
F0F300
303780
303780
303180
303100
303200
303400
303000
303000
387000
1FB000
0E3C00
ENDCHAR
STARTCHAR uni1EF0
ENCODING 7920
SWIDTH 815 0
DWIDTH 19 0
BBX 20 21 1 -3
BITMAP
FE1FE0
7807F0
3002F0
300230
300220
300240
300280
300200
300200
300200
300200
300200
300200
300200
300600
180400
1C1C00
07F000
000000
00C000
00C000
ENDCHAR
STARTCHAR uni1EF1
ENCODING 7921
SWIDTH 611 0
DWIDTH 14 0
BBX 17 15 0 -3
BITMAP
F0F300
303780
303780
303180
303100
303200
303400
303000
303000
387000
1FB000
0E3C00
000000
018000
018000
ENDCHAR
STARTCHAR Ygrave
ENCODING 7922
SWIDTH 704 0
DWIDTH 17 0
BBX 19 23 -1 0
BITMAP
030000
038000
00C000
002000
000000
FE0FE0
3C0380
1C0300
0C0600
0E0400
070C00
030800
019800
01F000
00F000
006000
006000
006000
006000
006000
006000
00F000
03FC00
ENDCHAR
STARTCHAR ygrave
ENCODING 7923
SWIDTH 537 0
DWIDTH 12 0
BBX 13 22 -1 -5
BITMAP
1800
1C00
0600
0100
0000
7838
3010
1820
1820
1860
0C40
0C40
06C0
0680
0680
0300
0300
0200
0200
C400
EC00
7800
ENDCHAR
STARTCHAR uni1EF4
ENCODING 7924
SWIDTH 704 0
DWIDTH 17 0
BBX 19 21 -1 -3
BITMAP
FE0FE0
3C0380
1C0300
0C0600
0E0400
070C00
030800
019800
01F000
00F000
006000
006000
006000
006000
006000
006000
00F000
03FC00
000000
006000
006000
ENDCHAR
STARTCHAR uni1EF5
ENCODING 7925
SWIDTH 537 0
DWIDTH 12 0
BBX 13 20 -1 -8
BITMAP
7838
3010
1820
1820
1860
0C40
0C40
06C0
0680
0680
0300
0300
0200
0200
C400
EC00
7800
0000
1800
1800
ENDCHAR
STARTCHAR uni1EF8
ENCODING 7928
SWIDTH 704 0
DWIDTH 17 0
BBX 19 21 -1 0
BITMAP
03C800
04F000
000000
FE0FE0
3C0380
1C0300
0C0600
0E0400
070C00
030800
019800
01F000
00F000
006000
006000
006000
006000
006000
006000
00F000
03FC00
ENDCHAR
STARTCHAR uni1EF9
ENCODING 7929
SWIDTH 537 0
DWIDTH 12 0
BBX 13 20 -1 -5
BITMAP
1E40
2780
0000
7838
3010
1820
1820
1860
0C40
0C40
06C0
0680
0680
0300
0300
0200
0200
C400
EC00
7800
ENDCHAR
STARTCHAR uni2000
ENCODING 8192
SWIDTH 500 0
DWIDTH 13 0
BBX 1 1 0 0
BITMAP
00
ENDCHAR
STARTCHAR uni2001
ENCODING 8193
SWIDTH 1000 0
DWIDTH 25 0
BBX 1 1 0 0
BITMAP
00
ENDCHAR
STARTCHAR uni2002
ENCODING 8194
SWIDTH 500 0
DWIDTH 13 0
BBX 1 1 0 0
BITMAP
00
ENDCHAR
STARTCHAR uni2003
ENCODING 8195
SWIDTH 1000 0
DWIDTH 25 0
BBX 1 1 0 0
BITMAP
00
ENDCHAR
STARTCHAR uni2004
ENCODING 8196
SWIDTH 333 0
DWIDTH 8 0
BBX 1 1 0 0
BITMAP
00
ENDCHAR
STARTCHAR uni2005
ENCODING 8197
SWIDTH 250 0
DWIDTH 6 0
BBX 1 1 0 0
BITMAP
00
ENDCHAR
STARTCHAR uni2006
ENCODING 8198
SWIDTH 167 0
DWIDTH 4 0
BBX 1 1 0 0
BITMAP
00
ENDCHAR
STARTCHAR uni2007
ENCODING 8199
SWIDTH 556 0
DWIDTH 13 0
BBX 1 1 0 0
BITMAP
00
ENDCHAR
STARTCHAR uni2008
ENCODING 8200
SWIDTH 278 0
DWIDTH 7 0
BBX 1 1 0 0
BITMAP
00
ENDCHAR
STARTCHAR uni2009
ENCODING 8201
SWIDTH 200 0
DWIDTH 5 0
BBX 1 1 0 0
BITMAP
00
ENDCHAR
STARTCHAR uni200A
ENCODING 8202
SWIDTH 100 0
DWIDTH 3 0
BBX 1 1 0 0
BITMAP
00
ENDCHAR
STARTCHAR uni200B
ENCODING 8203
SWIDTH 0 0
DWIDTH 0 0
BBX 1 1 0 0
BITMAP
00
ENDCHAR
STARTCHAR uni2010
ENCODING 8208
SWIDTH 333 0
DWIDTH 8 0
BBX 6 2 1 6
BITMAP
FC
FC
ENDCHAR
STARTCHAR uni2011
ENCODING 8209
SWIDTH 333 0
DWIDTH 8 0
BBX 6 2 1 6
BITMAP
FC
FC
ENDCHAR
STARTCHAR figuredash
ENCODING 8210
SWIDTH 500 0
DWIDTH 14 0
BBX 12 2 1 6
BITMAP
FFF0
FFF0
ENDCHAR
STARTCHAR endash
ENCODING 8211
SWIDTH 500 0
DWIDTH 14 0
BBX 12 2 1 6
BITMAP
FFF0
FFF0
ENDCHAR
STARTCHAR emdash
ENCODING 8212
SWIDTH 1000 0
DWIDTH 25 0
BBX 23 2 1 6
BITMAP
FFFFFE
FFFFFE
ENDCHAR
STARTCHAR afii00208
ENCODING 8213
SWIDTH 1000 0
DWIDTH 25 0
BBX 23 2 1 6
BITMAP
FFFFFE
FFFFFE
ENDCHAR
STARTCHAR quoteleft
ENCODING 8216
SWIDTH 204 0
DWIDTH 6 0
BBX 4 7 1 11
BITMAP
10
20
40
C0
F0
F0
60
ENDCHAR
STARTCHAR quoteright
ENCODING 8217
SWIDTH 204 0
DWIDTH 6 0
BBX 4 7 1 11
BITMAP
60
F0
F0
30
20
40
80
ENDCHAR
STARTCHAR quotesinglbase
ENCODING 8218
SWIDTH 204 0
DWIDTH 6 0
BBX 4 7 1 -4
BITMAP
60
F0
F0
30
20
40
80
ENDCHAR
STARTCHAR quotereversed
ENCODING 8219
SWIDTH 204 0
DWIDTH 6 0
BBX 4 7 1 11
BITMAP
60
F0
F0
C0
40
20
10
ENDCHAR
STARTCHAR quotedblleft
ENCODING 8220
SWIDTH 389 0
DWIDTH 11 0
BBX 9 7 1 11
BITMAP
1080
2100
4200
C600
F780
F780
6300
ENDCHAR
STARTCHAR quotedblright
ENCODING 8221
SWIDTH 389 0
DWIDTH 11 0
BBX 9 7 1 11
BITMAP
6300
F780
F780
3180
2100
4200
8400
ENDCHAR
STARTCHAR quotedblbase
ENCODING 8222
SWIDTH 389 0
DWIDTH 11 0
BBX 9 7 1 -4
BITMAP
6300
F780
F780
3180
2100
4200
8400
ENDCHAR
STARTCHAR uni201F
ENCODING 8223
SWIDTH 389 0
DWIDTH 11 0
BBX 9 7 1 11
BITMAP
6300
F780
F780
C600
4200
2100
1080
ENDCHAR
STARTCHAR dagger
ENCODING 8224
SWIDTH 500 0
DWIDTH 11 0
BBX 9 22 1 -4
BITMAP
1C00
1C00
0800
0800
C980
FF80
C980
0800
0800
1C00
1C00
1C00
1C00
0800
0800
0800
0800
0800
0800
0800
0800
0800
ENDCHAR
STARTCHAR daggerdbl
ENCODING 8225
SWIDTH 500 0
DWIDTH 11 0
BBX 9 22 1 -4
BITMAP
1C00
1C00
0800
0800
C980
FF80
C980
0800
0800
1C00
1C00
1C00
1C00
0800
0800
C980
FF80
C980
0800
0800
1C00
1C00
ENDCHAR
STARTCHAR bullet
ENCODING 8226
SWIDTH 606 0
DWIDTH 15 0
BBX 8 8 3 5
BITMAP
3C
7E
FF
FF
FF
FF
7E
3C
ENDCHAR
STARTCHAR ellipsis
ENCODING 8230
SWIDTH 1000 0
DWIDTH 25 0
BBX 19 3 2 0
BITMAP
E0E0E0
E0E0E0
E0E0E0
ENDCHAR
STARTCHAR perthousand
ENCODING 8240
SWIDTH 1000 0
DWIDTH 29 0
BBX 27 19 1 -1
BITMAP
1E180000
33280000
61D80000
61100000
C1300000
C1200000
C2600000
C2400000
C4C783C0
788CC660
01984C20
01184C20
03305820
02305820
06309840
04309840
0C311880
081E0F00
08000000
ENDCHAR
STARTCHAR guilsinglleft
ENCODING 8249
SWIDTH 259 0
DWIDTH 7 0
BBX 5 7 1 3
BITMAP
18
30
60
C0
60
30
18
ENDCHAR
STARTCHAR guilsinglright
ENCODING 8250
SWIDTH 259 0
DWIDTH 7 0
BBX 5 7 1 3
BITMAP
C0
60
30
18
30
60
C0
ENDCHAR
STARTCHAR fraction
ENCODING 8260
SWIDTH 167 0
DWIDTH 3 0
BBX 9 18 -3 0
BITMAP
0080
0080
0100
0100
0200
0200
0400
0400
0800
0800
1000
1000
2000
2000
4000
4000
8000
8000
ENDCHAR
STARTCHAR oneinferior
ENCODING 8321
SWIDTH 333 0
DWIDTH 8 0
BBX 6 11 1 -5
BITMAP
10
30
F0
30
30
30
30
30
30
30
FC
ENDCHAR
STARTCHAR twoinferior
ENCODING 8322
SWIDTH 333 0
DWIDTH 8 0
BBX 7 11 0 -5
BITMAP
7C
C6
C6
06
0C
18
30
60
C0
C2
FE
ENDCHAR
STARTCHAR threeinferior
ENCODING 8323
SWIDTH 333 0
DWIDTH 8 0
BBX 7 11 0 -5
BITMAP
7C
C6
C6
06
0C
3C
06
06
C6
C6
7C
ENDCHAR
STARTCHAR uni20A5
ENCODING 8357
SWIDTH 889 0
DWIDTH 22 0
BBX 22 18 0 -3
BITMAP
000600
000600
000600
F1CDC0
37EFE0
387C70
303830
303830
303830
303030
303030
303030
307030
307030
FCFCFC
00C000
00C000
00C000
ENDCHAR
STARTCHAR uni20A6
ENCODING 8358
SWIDTH 815 0
DWIDTH 21 0
BBX 19 18 1 0
BITMAP
F80FE0
3C0380
1C0100
1E0100
170100
138100
1FFF00
1FFF00
10E100
107100
1FFF00
1FFF00
101D00
100F00
100700
100300
380300
FE0100
ENDCHAR
STARTCHAR uni20A9
ENCODING 8361
SWIDTH 981 0
DWIDTH 25 0
BBX 26 18 0 0
BITMAP
FE3F9FC0
F80C0700
380E0200
180E0200
1C160400
1C170400
0DFFE400
0FFFE800
0E238800
06218800
07FFF000
07FFF000
0340D000
0380F000
0380E000
01806000
01806000
01806000
ENDCHAR
STARTCHAR Euro
ENCODING 8364
SWIDTH 722 0
DWIDTH 17 0
BBX 18 18 -2 0
BITMAP
00FE40
0383C0
0601C0
0C00C0
1C0040
180040
FFF000
FFF000
180000
180000
FFF000
FFF000
1C0040
0C0040
0E0040
070080
038180
00FE00
ENDCHAR
STARTCHAR uni20AD
ENCODING 8365
SWIDTH 778 0
DWIDTH 20 0
BBX 19 18 1 0
BITMAP
FE3F80
380E00
180C00
181800
183000
186000
18C000
198000
FFFFE0
FFFFE0
1CE000
187000
183800
181C00
180E00
180700
3C0380
FF0FE0
ENDCHAR
STARTCHAR uni2103
ENCODING 8451
SWIDTH 1102 0
DWIDTH 26 0
BBX 25 18 0 0
BITMAP
3C01FC80
66070780
C30C0380
C3180180
C3380080
66300080
3C300000
00300000
00300000
00300000
00300000
00300000
00380080
00180080
001C0080
000E0100
00070300
0001FC00
ENDCHAR
STARTCHAR uni2109
ENCODING 8457
SWIDTH 1047 0
DWIDTH 25 0
BBX 24 18 0 0
BITMAP
3C3FFF
660E07
C30603
C30601
C30601
660608
3C0608
000618
0007F8
000618
000608
000608
000600
000600
000600
000600
000F00
003FC0
ENDCHAR
STARTCHAR trademark
ENCODING 8482
SWIDTH 1000 0
DWIDTH 27 0
BBX 25 10 1 8
BITMAP
FFDE0780
8C4E0700
8C4B0B00
0C0B0B00
0C099300
0C099300
0C08E300
0C08E300
0C084300
1E1C4780
ENDCHAR
STARTCHAR uni212A
ENCODING 8490
SWIDTH 778 0
DWIDTH 20 0
BBX 19 18 1 0
BITMAP
FE3F80
380E00
180C00
181800
183000
186000
18C000
198000
1B8000
1FC000
1CE000
187000
183800
181C00
180E00
180700
3C0380
FF0FE0
ENDCHAR
STARTCHAR uni212B
ENCODING 8491
SWIDTH 722 0
DWIDTH 19 0
BBX 19 23 0 0
BITMAP
01C000
022000
022000
022000
01C000
000000
004000
00C000
00E000
01E000
013000
033000
023800
061800
041C00
0C0C00
0FFE00
180600
100700
300300
300380
600180
F807E0
ENDCHAR
STARTCHAR uni2132
ENCODING 8498
SWIDTH 667 0
DWIDTH 16 0
BBX 14 18 1 0
BITMAP
03FC
00F0
0060
0060
0060
0060
1060
1060
1860
1FE0
1860
1060
1060
8060
8060
C060
E070
FFFC
ENDCHAR
STARTCHAR universal
ENCODING 8704
SWIDTH 722 0
DWIDTH 19 0
BBX 19 18 0 0
BITMAP
F807E0
600180
300380
300300
100700
180600
0FFE00
0C0C00
041C00
061800
023800
033000
013000
01E000
00E000
00C000
004000
004000
ENDCHAR
STARTCHAR existential
ENCODING 8707
SWIDTH 722 0
DWIDTH 16 0
BBX 14 18 1 0
BITMAP
FFFC
E070
C060
8060
8060
1060
1060
1860
1FE0
1860
1060
1060
0060
8060
8060
C060
E070
FFFC
ENDCHAR
STARTCHAR uni2204
ENCODING 8708
SWIDTH 722 0
DWIDTH 16 0
BBX 14 18 1 0
BITMAP
FFFC
E070
C060
80E0
80E0
10E0
11E0
19E0
1FE0
1B60
1360
1360
0660
8660
8660
CC60
EC70
FFFC
ENDCHAR
STARTCHAR minus
ENCODING 8722
SWIDTH 606 0
DWIDTH 15 0
BBX 12 2 1 6
BITMAP
FFF0
FFF0
ENDCHAR
STARTCHAR fraction
ENCODING 8725
SWIDTH 167 0
DWIDTH 3 0
BBX 9 18 -3 0
BITMAP
0080
0080
0100
0100
0200
0200
0400
0400
0800
0800
1000
1000
2000
2000
4000
4000
8000
8000
ENDCHAR
STARTCHAR periodcentered
ENCODING 8729
SWIDTH 278 0
DWIDTH 7 0
BBX 3 3 2 6
BITMAP
E0
E0
E0
ENDCHAR
STARTCHAR uni2236
ENCODING 8758
SWIDTH 278 0
DWIDTH 7 0
BBX 3 12 2 0
BITMAP
E0
E0
E0
00
00
00
00
00
00
E0
E0
E0
ENDCHAR
STARTCHAR uni2259
ENCODING 8793
SWIDTH 606 0
DWIDTH 15 0
BBX 12 11 1 4
BITMAP
0600
0F00
1980
2040
0000
FFF0
FFF0
0000
0000
FFF0
FFF0
ENDCHAR
STARTCHAR uni225A
ENCODING 8794
SWIDTH 606 0
DWIDTH 15 0
BBX 12 11 1 4
BITMAP
2040
1980
0F00
0600
0000
FFF0
FFF0
0000
0000
FFF0
FFF0
ENDCHAR
STARTCHAR notequal
ENCODING 8800
SWIDTH 606 0
DWIDTH 15 0
BBX 12 18 1 -2
BITMAP
00C0
00C0
00C0
0180
0180
0180
FFF0
FFF0
0300
0600
FFF0
FFF0
0C00
0C00
0C00
1800
1800
1800
ENDCHAR
STARTCHAR equivalence
ENCODING 8801
SWIDTH 606 0
DWIDTH 15 0
BBX 12 8 0 3
BITMAP
FFF0
FFF0
0000
FFF0
FFF0
0000
FFF0
FFF0
ENDCHAR
STARTCHAR uni2262
ENCODING 8802
SWIDTH 606 0
DWIDTH 15 0
BBX 12 18 0 -2
BITMAP
00C0
00C0
00C0
0180
0180
FFF0
FFF0
0300
FFF0
FFF0
0600
FFF0
FFF0
0C00
0C00
1800
1800
1800
ENDCHAR
STARTCHAR lessequal
ENCODING 8804
SWIDTH 606 0
DWIDTH 14 0
BBX 12 15 1 -2
BITMAP
0030
00F0
03C0
0F00
3C00
F000
F000
3C00
0F00
03C0
00F0
0030
0000
FFF0
FFF0
ENDCHAR
STARTCHAR greaterequal
ENCODING 8805
SWIDTH 606 0
DWIDTH 14 0
BBX 12 15 1 -2
BITMAP
C000
F000
3C00
0F00
03C0
00F0
00F0
03C0
0F00
3C00
F000
C000
0000
FFF0
FFF0
ENDCHAR
STARTCHAR uni226E
ENCODING 8814
SWIDTH 606 0
DWIDTH 14 0
BBX 12 18 1 -2
BITMAP
00C0
00C0
00C0
01B0
01F0
03C0
0F00
3F00
F300
F600
3E00
0F00
0FC0
0CF0
0C30
1800
1800
1800
ENDCHAR
STARTCHAR uni226F
ENCODING 8815
SWIDTH 606 0
DWIDTH 14 0
BBX 12 18 1 -2
BITMAP
00C0
00C0
00C0
C180
F180
3D80
0F00
03C0
03F0
06F0
07C0
0F00
3C00
FC00
CC00
1800
1800
1800
ENDCHAR
STARTCHAR uni2270
ENCODING 8816
SWIDTH 606 0
DWIDTH 14 0
BBX 12 18 1 -3
BITMAP
00C0
00C0
00F0
01F0
03C0
0F80
3F00
F300
F300
3E00
0F00
07C0
0CF0
0C30
0C00
FFF0
FFF0
1800
ENDCHAR
STARTCHAR uni2271
ENCODING 8817
SWIDTH 606 0
DWIDTH 14 0
BBX 12 18 1 -3
BITMAP
00C0
00C0
C0C0
F180
3D80
0F80
03C0
03F0
03F0
07C0
0F00
3E00
FC00
CC00
0C00
FFF0
FFF0
1800
ENDCHAR
STARTCHAR fi
ENCODING -1
SWIDTH 611 0
DWIDTH 15 0
BBX 13 18 1 0
BITMAP
0F80
18E0
30E0
3060
3000
3000
FFE0
3060
3060
3060
3060
3060
3060
3060
3060
3060
3060
FDF8
ENDCHAR
STARTCHAR fl
ENCODING -1
SWIDTH 611 0
DWIDTH 15 0
BBX 13 18 1 0
BITMAP
0FA0
18E0
30E0
3060
3060
3060
FFE0
3060
3060
3060
3060
3060
3060
3060
3060
3060
3060
FDF8
ENDCHAR
ENDFONT
